<svg width="40" height="40" viewBox="0 0 40 40" fill="none" xmlns="http://www.w3.org/2000/svg">
<path d="M17.6284 38.2436C16.1386 38.0657 15.5865 37.9519 14.3235 37.5626C9.21419 35.9873 5.0976 32.2099 2.90383 27.0837C1.45297 23.6935 1.2037 18.9132 2.2809 15.1374C3.23158 11.805 5.1026 8.85154 7.73241 6.5319C9.82078 4.68985 12.1393 3.41471 14.727 2.685C18.5698 1.60134 23.273 1.85781 26.7356 3.33985C30.5389 4.96773 33.56 7.63703 35.592 11.1648C35.9421 11.7728 36.2287 12.2942 36.2287 12.3234C36.2287 12.3526 36.3619 12.6712 36.5249 13.0315C37.216 14.5591 37.5887 15.9914 37.8312 18.0511C38.0287 19.7296 38.0292 20.4204 37.8339 22.28C37.4986 25.4729 36.2465 28.6406 34.3546 31.0819C33.1468 32.6402 31.3993 34.3469 30.2099 35.1296C29.9582 35.2953 29.6205 35.5208 29.4595 35.6307C29.2986 35.7406 28.5758 36.1313 27.8534 36.4989C25.9756 37.4543 24.1174 37.999 21.8769 38.2506C20.279 38.4301 19.175 38.4282 17.6283 38.2436H17.6284ZM11.8537 26.4667C11.8312 26.3992 11.5394 26.2894 11.2051 26.2226C10.7671 26.1352 10.53 26.0231 10.3565 25.8213C10.1197 25.5459 10.1158 25.5023 10.1158 23.1635V20.7856L11.1261 20.7836C13.6414 20.7791 15.3184 19.9307 15.9034 18.3667C16.1717 17.6496 16.1864 16.9577 15.9491 16.2114C15.7052 15.4443 14.7571 14.4924 13.923 14.1772C13.0334 13.8411 11.4343 13.723 8.25055 13.7583C5.80066 13.7855 5.40092 13.8117 5.40092 13.9454C5.40092 14.0573 5.5566 14.1164 5.95702 14.1566C6.41593 14.2027 6.56534 14.2709 6.81193 14.5469L7.11068 14.8814V20.1066C7.11068 23.1766 7.06987 25.4394 7.01169 25.5924C6.87334 25.9563 6.50146 26.1706 5.88033 26.2441C5.53221 26.2854 5.34911 26.3557 5.34911 26.4481C5.34911 26.564 5.93072 26.5891 8.62187 26.5891C11.0954 26.5891 11.8846 26.5592 11.8537 26.4665V26.4667ZM10.1158 17.2485V14.4369L10.7472 14.5084C11.542 14.5983 11.8532 14.7159 12.2234 15.0662C12.6412 15.4616 12.7892 15.7929 12.9175 16.62C13.0397 17.4078 12.923 18.4009 12.6449 18.9386C12.297 19.6115 11.5116 20.0543 10.6598 20.0578L10.1158 20.0602V17.2485ZM21.4918 26.4702C21.47 26.4047 21.198 26.2865 20.8874 26.2075C20.5332 26.1174 20.2066 25.9485 20.0117 25.7546L19.7009 25.4454L19.6778 20.2395L19.6547 15.0337L19.8994 15.6037C20.0339 15.9172 20.4013 16.78 20.7158 17.521C21.0303 18.262 21.4822 19.3113 21.72 19.8528C21.9577 20.3943 22.6107 21.91 23.1709 23.221C24.5133 26.3626 24.6175 26.5893 24.7187 26.5893C24.8714 26.5893 25.0185 26.3401 25.3324 25.5498C25.7133 24.591 26.2282 23.3557 27.4696 20.4228C29.2034 16.3267 29.4931 15.625 29.4931 15.5227C29.4931 15.4672 29.5631 15.3637 29.6486 15.2928C29.7864 15.1784 29.804 15.7358 29.804 20.2062C29.804 25.8447 29.8036 25.8483 29.1375 26.1266C28.9378 26.2101 28.6097 26.2783 28.4085 26.2783C28.1522 26.2783 28.0424 26.325 28.0424 26.4338C28.0424 26.5688 28.4799 26.5893 31.3584 26.5893C34.2367 26.5893 34.6743 26.5688 34.6743 26.4338C34.6743 26.325 34.5645 26.2783 34.3083 26.2783C33.8253 26.2783 33.2914 26.0475 33.0817 25.748C32.9308 25.5327 32.9127 24.9421 32.9127 20.2492C32.9127 16.3937 32.9457 14.9192 33.0365 14.7199C33.1877 14.3879 33.6154 14.1533 34.0733 14.1512C34.4777 14.1492 34.7293 14.0147 34.6296 13.8535C34.5805 13.774 33.7735 13.7382 32.0306 13.7382H29.5028L29.2843 14.2305C29.1641 14.5013 28.6477 15.7488 28.1369 17.0028C27.6259 18.2568 27.0943 19.5393 26.9554 19.8528C26.8165 20.1663 26.557 20.7843 26.3786 21.226C26.2002 21.6678 26.0164 22.0292 25.97 22.0292C25.9028 22.0292 23.7243 17.0463 23.2852 15.8884C23.2257 15.7315 23.0761 15.3817 22.9528 15.1111C22.8294 14.8405 22.6434 14.4209 22.5395 14.1787L22.3506 13.7382H19.7624C17.9753 13.7382 17.1523 13.7739 17.1031 13.8535C16.996 14.0268 17.265 14.1494 17.7563 14.1512C18.0932 14.1524 18.2735 14.2229 18.5334 14.4551L18.8718 14.7574L18.9036 19.6629C18.9211 22.3609 18.9052 24.7754 18.8684 25.0285C18.778 25.6493 18.309 26.1208 17.6777 26.2254C17.1325 26.3157 17.0341 26.3624 17.1147 26.4928C17.2065 26.6414 21.5414 26.6191 21.4918 26.4702H21.4918Z" fill="#D6251C"/>
</svg>
