<svg width="40" height="40" viewBox="0 0 40 40" fill="none" xmlns="http://www.w3.org/2000/svg">
<path fill-rule="evenodd" clip-rule="evenodd" d="M15.1599 39.4014C25.8767 42.0727 36.7305 35.5527 39.402 24.8384H39.4014C42.0729 14.1234 35.5522 3.26973 24.836 0.598493C14.1223 -2.07274 3.26915 4.44849 0.598873 15.1641C-2.07333 25.8777 4.44805 36.7302 15.1599 39.4014ZM24.4197 12.1047C27.1906 13.0591 29.2171 14.4897 28.8196 17.1509H28.819C28.5308 19.099 27.4506 20.0421 26.0167 20.374C27.9857 21.3997 28.9871 22.9715 28.0326 25.6965C26.8494 29.0802 24.0346 29.3659 20.2923 28.6577L19.3841 32.2971L17.1895 31.7502L18.0858 28.1596C17.517 28.0184 16.9357 27.8684 16.3375 27.7059L15.4374 31.3133L13.2453 30.7665L14.1535 27.1196C13.9524 27.0681 13.7499 27.0153 13.546 26.9621C13.2309 26.8798 12.9122 26.7967 12.5896 26.7159L9.73303 26.004L10.8225 23.4915C10.8225 23.4915 12.4396 23.9215 12.4177 23.8897C13.039 24.0434 13.3147 23.6384 13.4234 23.3684L14.8593 17.6153L15.0905 17.6728C15.003 17.6378 14.9236 17.6153 14.8624 17.5997L15.8862 13.4928C15.9137 13.0265 15.7525 12.4385 14.8636 12.2166C14.898 12.1934 13.2697 11.8203 13.2697 11.8203L13.8535 9.47658L16.8801 10.2322L16.8776 10.2434C17.3326 10.3566 17.8014 10.464 18.279 10.5728L19.1785 6.96907L21.3718 7.51596L20.4905 11.0491C21.0793 11.1834 21.6719 11.3191 22.2482 11.4628L23.1233 7.95285L25.3186 8.49969L24.4197 12.1047ZM17.4754 25.1746C19.2656 25.6477 23.1816 26.6825 23.8046 24.1815H23.8053C24.4411 21.6253 20.6457 20.7737 18.7937 20.3581C18.5868 20.3117 18.4041 20.2707 18.2546 20.2334L17.0495 25.064C17.1718 25.0944 17.3151 25.1323 17.4754 25.1746ZM19.166 18.1165C20.6597 18.515 23.9156 19.3835 24.4828 17.1115C25.0627 14.7872 21.8966 14.0867 20.3504 13.7445C20.1765 13.7061 20.0232 13.6721 19.8979 13.6409L18.8053 18.0221C18.9087 18.0479 19.03 18.0803 19.166 18.1165Z" fill="#F7931A"/>
</svg>
