<svg width="40" height="40" viewBox="0 0 40 40" fill="none" xmlns="http://www.w3.org/2000/svg">
<circle cx="20" cy="20" r="20" fill="#50AF95"/>
<path fill-rule="evenodd" clip-rule="evenodd" d="M22.9757 21.323C22.8343 21.3336 22.1036 21.3772 20.4739 21.3772C19.1776 21.3772 18.2572 21.3383 17.9343 21.323C12.9247 21.1026 9.18552 20.2306 9.18552 19.1865C9.18552 18.1424 12.9247 17.2715 17.9343 17.0476V20.4545C18.2619 20.4781 19.2 20.5335 20.4962 20.5335C22.0518 20.5335 22.8307 20.4686 22.971 20.4557V17.05C27.9699 17.2727 31.7009 18.1447 31.7009 19.1865C31.7009 20.2282 27.9711 21.1003 22.971 21.3218L22.9757 21.323ZM22.9757 16.6976V13.649H29.9521V9H10.9579V13.649H17.9331V16.6964C12.2636 16.9569 8 18.0799 8 19.4257C8 20.7715 12.2636 21.8934 17.9331 22.155V31.9243H22.9745V22.1515C28.6311 21.891 32.8876 20.7691 32.8876 19.4245C32.8876 18.0799 28.6346 16.958 22.9745 16.6964L22.9757 16.6976Z" fill="white"/>
</svg>
