<svg width="40" height="40" viewBox="0 0 40 40" fill="none" xmlns="http://www.w3.org/2000/svg">
<path d="M20 0C16.0443 0 12.1776 1.17298 8.88858 3.37061C5.59961 5.56823 3.03616 8.69181 1.52241 12.3463C0.00866568 16.0008 -0.3874 20.0222 0.384303 23.9018C1.15601 27.7814 3.06082 31.3451 5.85786 34.1421C8.6549 36.9392 12.2186 38.844 16.0982 39.6157C19.9778 40.3874 23.9991 39.9913 27.6536 38.4776C31.3081 36.9638 34.4317 34.4004 36.6293 31.1114C38.8269 27.8224 39.9999 23.9556 39.9999 20C40.0076 17.3812 39.4993 14.7865 38.5042 12.3641C37.5091 9.94174 36.0466 7.73908 34.2002 5.88191C32.3538 4.02474 30.1597 2.54942 27.7432 1.5402C25.3266 0.530981 22.735 0.00762018 20.1162 0H20ZM20.3389 20.678L18.2566 27.6998H29.3946C29.4684 27.6972 29.542 27.7091 29.6111 27.735C29.6803 27.7609 29.7436 27.8001 29.7976 27.8505C29.8516 27.9009 29.8951 27.9614 29.9256 28.0286C29.9562 28.0958 29.9732 28.1683 29.9757 28.2421V28.4261L29.0072 31.7675C28.9645 31.9256 28.8693 32.0644 28.7373 32.1612C28.6053 32.258 28.4444 32.307 28.2808 32.3002H11.2349L14.092 22.5666L10.8959 23.5351L11.6223 21.3075L14.8184 20.339L18.8377 6.68281C18.882 6.52568 18.9775 6.38787 19.1092 6.29134C19.2408 6.1948 19.401 6.14509 19.5641 6.15012H23.874C23.9478 6.14753 24.0214 6.15951 24.0905 6.18538C24.1597 6.21124 24.2231 6.25048 24.277 6.30085C24.331 6.35122 24.3745 6.41174 24.4051 6.47894C24.4356 6.54614 24.4527 6.61871 24.4552 6.69249V6.87651L21.0653 18.4019L24.2615 17.4334L23.5835 19.7579L20.3389 20.678Z" fill="#345D9D"/>
</svg>
