<svg width="40" height="40" viewBox="0 0 40 40" fill="none" xmlns="http://www.w3.org/2000/svg">
<path fill-rule="evenodd" clip-rule="evenodd" d="M40 20C40 31.0457 31.0457 40 20 40C8.9543 40 0 31.0457 0 20C0 8.9543 8.9543 0 20 0C31.0457 0 40 8.9543 40 20ZM20.25 11C23.125 10.5 25.5 10.625 26.5 13.125C27.25 15 26.75 16.25 25.5 17.5C27.75 17.375 29.375 18.25 29.875 21C30.5 24.5 28.25 26.125 24.75 27.375L25.75 30.875L23.625 31.5L22.625 28C22 28.25 21.5 28.375 20.875 28.5L21.875 32L19.75 32.625L18.75 29.125L17.25 29.5L14.5 30.25L14.25 27.625L15.75 27.125C16.375 26.875 16.375 26.375 16.375 26.125L14.75 20.375L13.625 16.375C13.375 15.875 13 15.5 12.125 15.75C12.25 15.75 10.625 16.25 10.625 16.25L10 14L12.875 13C13.125 12.9375 13.3438 12.875 13.5625 12.8125C13.7812 12.75 14 12.6875 14.25 12.625L13.25 9.125L15.375 8.5L16.375 12C16.7468 11.9256 17.1186 11.807 17.4641 11.6968C17.6994 11.6218 17.9224 11.5506 18.125 11.5L17.125 8.125L19.25 7.5L20.25 11ZM21.0256 25.5494C22.8955 24.9902 26.4111 23.939 25.75 21.625C24.99 19.2364 21.5895 20.2427 19.7259 20.7942C19.4439 20.8777 19.1971 20.9507 19 21L20.375 25.75C20.5527 25.6908 20.7743 25.6245 21.0256 25.5494ZM18.7235 18.7744C20.218 18.3496 23.4397 17.4341 22.75 15.25C22.1846 12.9884 19.0618 14.0003 17.546 14.4915C17.3862 14.5432 17.2442 14.5892 17.125 14.625L18.375 18.875C18.4755 18.8449 18.5929 18.8115 18.7235 18.7744Z" fill="#8DC351"/>
</svg>
