<svg width="396" height="219" viewBox="0 0 396 219" fill="none" xmlns="http://www.w3.org/2000/svg">
<rect width="396" height="218.687" rx="23.6418" fill="url(#paint0_linear_42_519)"/>
<g filter="url(#filter0_b_42_519)">
<rect width="396" height="218.687" rx="23.6418" fill="white" fill-opacity="0.03"/>
</g>
<path fill-rule="evenodd" clip-rule="evenodd" d="M4.33468 7.56501C1.62111 10.9789 0 15.3001 0 20V198C0 209.046 8.9543 218 20 218H376C384.839 218 392.339 212.266 394.983 204.315C396.134 141.697 340.633 51.4638 48.8367 0H20C19.2398 0 18.4896 0.0424107 17.7514 0.124995L4.33468 7.56501Z" fill="white" fill-opacity="0.06"/>
<circle cx="279" cy="36.9414" r="15" fill="#EB001B"/>
<circle cx="297" cy="36.9414" r="15" fill="#F79E1B"/>
<path fill-rule="evenodd" clip-rule="evenodd" d="M288 48.9414C292.141 46.5461 294.927 42.0691 294.927 36.9414C294.927 31.8137 292.141 27.3367 288 24.9414C283.859 27.3367 281.073 31.8137 281.073 36.9414C281.073 42.0691 283.859 46.5461 288 48.9414Z" fill="#FF5F00"/>
<path d="M33.674 182.227C32.8166 182.227 32.0727 182.076 31.4422 181.773C30.8118 181.458 30.2885 181.01 29.8724 180.43C29.4689 179.85 29.1663 179.138 28.9646 178.293C28.7755 177.448 28.6809 176.484 28.6809 175.399C28.6809 174.327 28.7755 173.369 28.9646 172.524C29.1663 171.667 29.4689 170.948 29.8724 170.368C30.2885 169.788 30.8118 169.347 31.4422 169.044C32.0727 168.729 32.8166 168.571 33.674 168.571C35.3888 168.571 36.6497 169.17 37.4567 170.368C38.2637 171.566 38.6672 173.243 38.6672 175.399C38.6672 177.555 38.2637 179.232 37.4567 180.43C36.6497 181.628 35.3888 182.227 33.674 182.227ZM33.674 180.241C34.5819 180.241 35.2186 179.92 35.5843 179.276C35.9626 178.621 36.1517 177.719 36.1517 176.572V174.227C36.1517 173.079 35.9626 172.184 35.5843 171.541C35.2186 170.885 34.5819 170.557 33.674 170.557C32.7662 170.557 32.1231 170.885 31.7449 171.541C31.3792 172.184 31.1964 173.079 31.1964 174.227V176.572C31.1964 177.719 31.3792 178.621 31.7449 179.276C32.1231 179.92 32.7662 180.241 33.674 180.241ZM33.674 176.515C33.2327 176.515 32.9238 176.427 32.7473 176.25C32.5834 176.074 32.5014 175.859 32.5014 175.607V175.191C32.5014 174.939 32.5834 174.725 32.7473 174.548C32.9238 174.372 33.2327 174.283 33.674 174.283C34.1153 174.283 34.418 174.372 34.5819 174.548C34.7584 174.725 34.8467 174.939 34.8467 175.191V175.607C34.8467 175.859 34.7584 176.074 34.5819 176.25C34.418 176.427 34.1153 176.515 33.674 176.515ZM45.0147 182.227C44.1573 182.227 43.4134 182.076 42.7829 181.773C42.1525 181.458 41.6292 181.01 41.2131 180.43C40.8096 179.85 40.507 179.138 40.3053 178.293C40.1161 177.448 40.0216 176.484 40.0216 175.399C40.0216 174.327 40.1161 173.369 40.3053 172.524C40.507 171.667 40.8096 170.948 41.2131 170.368C41.6292 169.788 42.1525 169.347 42.7829 169.044C43.4134 168.729 44.1573 168.571 45.0147 168.571C46.7295 168.571 47.9904 169.17 48.7974 170.368C49.6044 171.566 50.0078 173.243 50.0078 175.399C50.0078 177.555 49.6044 179.232 48.7974 180.43C47.9904 181.628 46.7295 182.227 45.0147 182.227ZM45.0147 180.241C45.9225 180.241 46.5593 179.92 46.925 179.276C47.3032 178.621 47.4924 177.719 47.4924 176.572V174.227C47.4924 173.079 47.3032 172.184 46.925 171.541C46.5593 170.885 45.9225 170.557 45.0147 170.557C44.1069 170.557 43.4638 170.885 43.0855 171.541C42.7199 172.184 42.537 173.079 42.537 174.227V176.572C42.537 177.719 42.7199 178.621 43.0855 179.276C43.4638 179.92 44.1069 180.241 45.0147 180.241ZM45.0147 176.515C44.5734 176.515 44.2645 176.427 44.0879 176.25C43.924 176.074 43.8421 175.859 43.8421 175.607V175.191C43.8421 174.939 43.924 174.725 44.0879 174.548C44.2645 174.372 44.5734 174.283 45.0147 174.283C45.456 174.283 45.7586 174.372 45.9225 174.548C46.0991 174.725 46.1873 174.939 46.1873 175.191V175.607C46.1873 175.859 46.0991 176.074 45.9225 176.25C45.7586 176.427 45.456 176.515 45.0147 176.515ZM56.3554 182.227C55.498 182.227 54.754 182.076 54.1236 181.773C53.4931 181.458 52.9699 181.01 52.5538 180.43C52.1503 179.85 51.8477 179.138 51.6459 178.293C51.4568 177.448 51.3622 176.484 51.3622 175.399C51.3622 174.327 51.4568 173.369 51.6459 172.524C51.8477 171.667 52.1503 170.948 52.5538 170.368C52.9699 169.788 53.4931 169.347 54.1236 169.044C54.754 168.729 55.498 168.571 56.3554 168.571C58.0702 168.571 59.3311 169.17 60.1381 170.368C60.945 171.566 61.3485 173.243 61.3485 175.399C61.3485 177.555 60.945 179.232 60.1381 180.43C59.3311 181.628 58.0702 182.227 56.3554 182.227ZM56.3554 180.241C57.2632 180.241 57.9 179.92 58.2656 179.276C58.6439 178.621 58.833 177.719 58.833 176.572V174.227C58.833 173.079 58.6439 172.184 58.2656 171.541C57.9 170.885 57.2632 170.557 56.3554 170.557C55.4475 170.557 54.8045 170.885 54.4262 171.541C54.0605 172.184 53.8777 173.079 53.8777 174.227V176.572C53.8777 177.719 54.0605 178.621 54.4262 179.276C54.8045 179.92 55.4475 180.241 56.3554 180.241ZM56.3554 176.515C55.9141 176.515 55.6051 176.427 55.4286 176.25C55.2647 176.074 55.1827 175.859 55.1827 175.607V175.191C55.1827 174.939 55.2647 174.725 55.4286 174.548C55.6051 174.372 55.9141 174.283 56.3554 174.283C56.7967 174.283 57.0993 174.372 57.2632 174.548C57.4397 174.725 57.528 174.939 57.528 175.191V175.607C57.528 175.859 57.4397 176.074 57.2632 176.25C57.0993 176.427 56.7967 176.515 56.3554 176.515ZM67.696 182.227C66.8386 182.227 66.0947 182.076 65.4643 181.773C64.8338 181.458 64.3105 181.01 63.8944 180.43C63.491 179.85 63.1883 179.138 62.9866 178.293C62.7975 177.448 62.7029 176.484 62.7029 175.399C62.7029 174.327 62.7975 173.369 62.9866 172.524C63.1883 171.667 63.491 170.948 63.8944 170.368C64.3105 169.788 64.8338 169.347 65.4643 169.044C66.0947 168.729 66.8386 168.571 67.696 168.571C69.4109 168.571 70.6718 169.17 71.4787 170.368C72.2857 171.566 72.6892 173.243 72.6892 175.399C72.6892 177.555 72.2857 179.232 71.4787 180.43C70.6718 181.628 69.4109 182.227 67.696 182.227ZM67.696 180.241C68.6039 180.241 69.2406 179.92 69.6063 179.276C69.9846 178.621 70.1737 177.719 70.1737 176.572V174.227C70.1737 173.079 69.9846 172.184 69.6063 171.541C69.2406 170.885 68.6039 170.557 67.696 170.557C66.7882 170.557 66.1451 170.885 65.7669 171.541C65.4012 172.184 65.2184 173.079 65.2184 174.227V176.572C65.2184 177.719 65.4012 178.621 65.7669 179.276C66.1451 179.92 66.7882 180.241 67.696 180.241ZM67.696 176.515C67.2547 176.515 66.9458 176.427 66.7693 176.25C66.6054 176.074 66.5234 175.859 66.5234 175.607V175.191C66.5234 174.939 66.6054 174.725 66.7693 174.548C66.9458 174.372 67.2547 174.283 67.696 174.283C68.1374 174.283 68.44 174.372 68.6039 174.548C68.7804 174.725 68.8687 174.939 68.8687 175.191V175.607C68.8687 175.859 68.7804 176.074 68.6039 176.25C68.44 176.427 68.1374 176.515 67.696 176.515ZM101.718 182.227C100.861 182.227 100.117 182.076 99.4863 181.773C98.8558 181.458 98.3326 181.01 97.9165 180.43C97.513 179.85 97.2104 179.138 97.0086 178.293C96.8195 177.448 96.7249 176.484 96.7249 175.399C96.7249 174.327 96.8195 173.369 97.0086 172.524C97.2104 171.667 97.513 170.948 97.9165 170.368C98.3326 169.788 98.8558 169.347 99.4863 169.044C100.117 168.729 100.861 168.571 101.718 168.571C103.433 168.571 104.694 169.17 105.501 170.368C106.308 171.566 106.711 173.243 106.711 175.399C106.711 177.555 106.308 179.232 105.501 180.43C104.694 181.628 103.433 182.227 101.718 182.227ZM101.718 180.241C102.626 180.241 103.263 179.92 103.628 179.276C104.007 178.621 104.196 177.719 104.196 176.572V174.227C104.196 173.079 104.007 172.184 103.628 171.541C103.263 170.885 102.626 170.557 101.718 170.557C100.81 170.557 100.167 170.885 99.7889 171.541C99.4232 172.184 99.2404 173.079 99.2404 174.227V176.572C99.2404 177.719 99.4232 178.621 99.7889 179.276C100.167 179.92 100.81 180.241 101.718 180.241ZM101.718 176.515C101.277 176.515 100.968 176.427 100.791 176.25C100.627 176.074 100.545 175.859 100.545 175.607V175.191C100.545 174.939 100.627 174.725 100.791 174.548C100.968 174.372 101.277 174.283 101.718 174.283C102.159 174.283 102.462 174.372 102.626 174.548C102.802 174.725 102.891 174.939 102.891 175.191V175.607C102.891 175.859 102.802 176.074 102.626 176.25C102.462 176.427 102.159 176.515 101.718 176.515ZM113.059 182.227C112.201 182.227 111.457 182.076 110.827 181.773C110.197 181.458 109.673 181.01 109.257 180.43C108.854 179.85 108.551 179.138 108.349 178.293C108.16 177.448 108.066 176.484 108.066 175.399C108.066 174.327 108.16 173.369 108.349 172.524C108.551 171.667 108.854 170.948 109.257 170.368C109.673 169.788 110.197 169.347 110.827 169.044C111.457 168.729 112.201 168.571 113.059 168.571C114.774 168.571 116.034 169.17 116.841 170.368C117.648 171.566 118.052 173.243 118.052 175.399C118.052 177.555 117.648 179.232 116.841 180.43C116.034 181.628 114.774 182.227 113.059 182.227ZM113.059 180.241C113.967 180.241 114.603 179.92 114.969 179.276C115.347 178.621 115.536 177.719 115.536 176.572V174.227C115.536 173.079 115.347 172.184 114.969 171.541C114.603 170.885 113.967 170.557 113.059 170.557C112.151 170.557 111.508 170.885 111.13 171.541C110.764 172.184 110.581 173.079 110.581 174.227V176.572C110.581 177.719 110.764 178.621 111.13 179.276C111.508 179.92 112.151 180.241 113.059 180.241ZM113.059 176.515C112.617 176.515 112.309 176.427 112.132 176.25C111.968 176.074 111.886 175.859 111.886 175.607V175.191C111.886 174.939 111.968 174.725 112.132 174.548C112.309 174.372 112.617 174.283 113.059 174.283C113.5 174.283 113.803 174.372 113.967 174.548C114.143 174.725 114.231 174.939 114.231 175.191V175.607C114.231 175.859 114.143 176.074 113.967 176.25C113.803 176.427 113.5 176.515 113.059 176.515ZM124.399 182.227C123.542 182.227 122.798 182.076 122.168 181.773C121.537 181.458 121.014 181.01 120.598 180.43C120.194 179.85 119.892 179.138 119.69 178.293C119.501 177.448 119.406 176.484 119.406 175.399C119.406 174.327 119.501 173.369 119.69 172.524C119.892 171.667 120.194 170.948 120.598 170.368C121.014 169.788 121.537 169.347 122.168 169.044C122.798 168.729 123.542 168.571 124.399 168.571C126.114 168.571 127.375 169.17 128.182 170.368C128.989 171.566 129.393 173.243 129.393 175.399C129.393 177.555 128.989 179.232 128.182 180.43C127.375 181.628 126.114 182.227 124.399 182.227ZM124.399 180.241C125.307 180.241 125.944 179.92 126.31 179.276C126.688 178.621 126.877 177.719 126.877 176.572V174.227C126.877 173.079 126.688 172.184 126.31 171.541C125.944 170.885 125.307 170.557 124.399 170.557C123.492 170.557 122.849 170.885 122.47 171.541C122.105 172.184 121.922 173.079 121.922 174.227V176.572C121.922 177.719 122.105 178.621 122.47 179.276C122.849 179.92 123.492 180.241 124.399 180.241ZM124.399 176.515C123.958 176.515 123.649 176.427 123.473 176.25C123.309 176.074 123.227 175.859 123.227 175.607V175.191C123.227 174.939 123.309 174.725 123.473 174.548C123.649 174.372 123.958 174.283 124.399 174.283C124.841 174.283 125.143 174.372 125.307 174.548C125.484 174.725 125.572 174.939 125.572 175.191V175.607C125.572 175.859 125.484 176.074 125.307 176.25C125.143 176.427 124.841 176.515 124.399 176.515ZM135.74 182.227C134.883 182.227 134.139 182.076 133.508 181.773C132.878 181.458 132.355 181.01 131.938 180.43C131.535 179.85 131.232 179.138 131.031 178.293C130.841 177.448 130.747 176.484 130.747 175.399C130.747 174.327 130.841 173.369 131.031 172.524C131.232 171.667 131.535 170.948 131.938 170.368C132.355 169.788 132.878 169.347 133.508 169.044C134.139 168.729 134.883 168.571 135.74 168.571C137.455 168.571 138.716 169.17 139.523 170.368C140.33 171.566 140.733 173.243 140.733 175.399C140.733 177.555 140.33 179.232 139.523 180.43C138.716 181.628 137.455 182.227 135.74 182.227ZM135.74 180.241C136.648 180.241 137.285 179.92 137.65 179.276C138.029 178.621 138.218 177.719 138.218 176.572V174.227C138.218 173.079 138.029 172.184 137.65 171.541C137.285 170.885 136.648 170.557 135.74 170.557C134.832 170.557 134.189 170.885 133.811 171.541C133.445 172.184 133.262 173.079 133.262 174.227V176.572C133.262 177.719 133.445 178.621 133.811 179.276C134.189 179.92 134.832 180.241 135.74 180.241ZM135.74 176.515C135.299 176.515 134.99 176.427 134.813 176.25C134.649 176.074 134.567 175.859 134.567 175.607V175.191C134.567 174.939 134.649 174.725 134.813 174.548C134.99 174.372 135.299 174.283 135.74 174.283C136.181 174.283 136.484 174.372 136.648 174.548C136.824 174.725 136.913 174.939 136.913 175.191V175.607C136.913 175.859 136.824 176.074 136.648 176.25C136.484 176.427 136.181 176.515 135.74 176.515ZM169.762 182.227C168.905 182.227 168.161 182.076 167.53 181.773C166.9 181.458 166.377 181.01 165.96 180.43C165.557 179.85 165.254 179.138 165.053 178.293C164.864 177.448 164.769 176.484 164.769 175.399C164.769 174.327 164.864 173.369 165.053 172.524C165.254 171.667 165.557 170.948 165.96 170.368C166.377 169.788 166.9 169.347 167.53 169.044C168.161 168.729 168.905 168.571 169.762 168.571C171.477 168.571 172.738 169.17 173.545 170.368C174.352 171.566 174.755 173.243 174.755 175.399C174.755 177.555 174.352 179.232 173.545 180.43C172.738 181.628 171.477 182.227 169.762 182.227ZM169.762 180.241C170.67 180.241 171.307 179.92 171.672 179.276C172.051 178.621 172.24 177.719 172.24 176.572V174.227C172.24 173.079 172.051 172.184 171.672 171.541C171.307 170.885 170.67 170.557 169.762 170.557C168.854 170.557 168.211 170.885 167.833 171.541C167.467 172.184 167.284 173.079 167.284 174.227V176.572C167.284 177.719 167.467 178.621 167.833 179.276C168.211 179.92 168.854 180.241 169.762 180.241ZM169.762 176.515C169.321 176.515 169.012 176.427 168.835 176.25C168.671 176.074 168.589 175.859 168.589 175.607V175.191C168.589 174.939 168.671 174.725 168.835 174.548C169.012 174.372 169.321 174.283 169.762 174.283C170.203 174.283 170.506 174.372 170.67 174.548C170.846 174.725 170.935 174.939 170.935 175.191V175.607C170.935 175.859 170.846 176.074 170.67 176.25C170.506 176.427 170.203 176.515 169.762 176.515ZM181.103 182.227C180.245 182.227 179.501 182.076 178.871 181.773C178.241 181.458 177.717 181.01 177.301 180.43C176.898 179.85 176.595 179.138 176.393 178.293C176.204 177.448 176.11 176.484 176.11 175.399C176.11 174.327 176.204 173.369 176.393 172.524C176.595 171.667 176.898 170.948 177.301 170.368C177.717 169.788 178.241 169.347 178.871 169.044C179.501 168.729 180.245 168.571 181.103 168.571C182.818 168.571 184.078 169.17 184.885 170.368C185.692 171.566 186.096 173.243 186.096 175.399C186.096 177.555 185.692 179.232 184.885 180.43C184.078 181.628 182.818 182.227 181.103 182.227ZM181.103 180.241C182.011 180.241 182.647 179.92 183.013 179.276C183.391 178.621 183.58 177.719 183.58 176.572V174.227C183.58 173.079 183.391 172.184 183.013 171.541C182.647 170.885 182.011 170.557 181.103 170.557C180.195 170.557 179.552 170.885 179.174 171.541C178.808 172.184 178.625 173.079 178.625 174.227V176.572C178.625 177.719 178.808 178.621 179.174 179.276C179.552 179.92 180.195 180.241 181.103 180.241ZM181.103 176.515C180.661 176.515 180.353 176.427 180.176 176.25C180.012 176.074 179.93 175.859 179.93 175.607V175.191C179.93 174.939 180.012 174.725 180.176 174.548C180.353 174.372 180.661 174.283 181.103 174.283C181.544 174.283 181.847 174.372 182.011 174.548C182.187 174.725 182.275 174.939 182.275 175.191V175.607C182.275 175.859 182.187 176.074 182.011 176.25C181.847 176.427 181.544 176.515 181.103 176.515ZM192.443 182.227C191.586 182.227 190.842 182.076 190.212 181.773C189.581 181.458 189.058 181.01 188.642 180.43C188.238 179.85 187.936 179.138 187.734 178.293C187.545 177.448 187.45 176.484 187.45 175.399C187.45 174.327 187.545 173.369 187.734 172.524C187.936 171.667 188.238 170.948 188.642 170.368C189.058 169.788 189.581 169.347 190.212 169.044C190.842 168.729 191.586 168.571 192.443 168.571C194.158 168.571 195.419 169.17 196.226 170.368C197.033 171.566 197.437 173.243 197.437 175.399C197.437 177.555 197.033 179.232 196.226 180.43C195.419 181.628 194.158 182.227 192.443 182.227ZM192.443 180.241C193.351 180.241 193.988 179.92 194.354 179.276C194.732 178.621 194.921 177.719 194.921 176.572V174.227C194.921 173.079 194.732 172.184 194.354 171.541C193.988 170.885 193.351 170.557 192.443 170.557C191.536 170.557 190.893 170.885 190.514 171.541C190.149 172.184 189.966 173.079 189.966 174.227V176.572C189.966 177.719 190.149 178.621 190.514 179.276C190.893 179.92 191.536 180.241 192.443 180.241ZM192.443 176.515C192.002 176.515 191.693 176.427 191.517 176.25C191.353 176.074 191.271 175.859 191.271 175.607V175.191C191.271 174.939 191.353 174.725 191.517 174.548C191.693 174.372 192.002 174.283 192.443 174.283C192.885 174.283 193.187 174.372 193.351 174.548C193.528 174.725 193.616 174.939 193.616 175.191V175.607C193.616 175.859 193.528 176.074 193.351 176.25C193.187 176.427 192.885 176.515 192.443 176.515ZM203.784 182.227C202.927 182.227 202.183 182.076 201.552 181.773C200.922 181.458 200.399 181.01 199.983 180.43C199.579 179.85 199.276 179.138 199.075 178.293C198.886 177.448 198.791 176.484 198.791 175.399C198.791 174.327 198.886 173.369 199.075 172.524C199.276 171.667 199.579 170.948 199.983 170.368C200.399 169.788 200.922 169.347 201.552 169.044C202.183 168.729 202.927 168.571 203.784 168.571C205.499 168.571 206.76 169.17 207.567 170.368C208.374 171.566 208.777 173.243 208.777 175.399C208.777 177.555 208.374 179.232 207.567 180.43C206.76 181.628 205.499 182.227 203.784 182.227ZM203.784 180.241C204.692 180.241 205.329 179.92 205.694 179.276C206.073 178.621 206.262 177.719 206.262 176.572V174.227C206.262 173.079 206.073 172.184 205.694 171.541C205.329 170.885 204.692 170.557 203.784 170.557C202.876 170.557 202.233 170.885 201.855 171.541C201.489 172.184 201.306 173.079 201.306 174.227V176.572C201.306 177.719 201.489 178.621 201.855 179.276C202.233 179.92 202.876 180.241 203.784 180.241ZM203.784 176.515C203.343 176.515 203.034 176.427 202.857 176.25C202.693 176.074 202.611 175.859 202.611 175.607V175.191C202.611 174.939 202.693 174.725 202.857 174.548C203.034 174.372 203.343 174.283 203.784 174.283C204.225 174.283 204.528 174.372 204.692 174.548C204.868 174.725 204.957 174.939 204.957 175.191V175.607C204.957 175.859 204.868 176.074 204.692 176.25C204.528 176.427 204.225 176.515 203.784 176.515ZM237.806 182.227C236.949 182.227 236.205 182.076 235.574 181.773C234.944 181.458 234.421 181.01 234.005 180.43C233.601 179.85 233.298 179.138 233.097 178.293C232.908 177.448 232.813 176.484 232.813 175.399C232.813 174.327 232.908 173.369 233.097 172.524C233.298 171.667 233.601 170.948 234.005 170.368C234.421 169.788 234.944 169.347 235.574 169.044C236.205 168.729 236.949 168.571 237.806 168.571C239.521 168.571 240.782 169.17 241.589 170.368C242.396 171.566 242.799 173.243 242.799 175.399C242.799 177.555 242.396 179.232 241.589 180.43C240.782 181.628 239.521 182.227 237.806 182.227ZM237.806 180.241C238.714 180.241 239.351 179.92 239.716 179.276C240.095 178.621 240.284 177.719 240.284 176.572V174.227C240.284 173.079 240.095 172.184 239.716 171.541C239.351 170.885 238.714 170.557 237.806 170.557C236.898 170.557 236.255 170.885 235.877 171.541C235.511 172.184 235.328 173.079 235.328 174.227V176.572C235.328 177.719 235.511 178.621 235.877 179.276C236.255 179.92 236.898 180.241 237.806 180.241ZM237.806 176.515C237.365 176.515 237.056 176.427 236.879 176.25C236.715 176.074 236.633 175.859 236.633 175.607V175.191C236.633 174.939 236.715 174.725 236.879 174.548C237.056 174.372 237.365 174.283 237.806 174.283C238.247 174.283 238.55 174.372 238.714 174.548C238.89 174.725 238.979 174.939 238.979 175.191V175.607C238.979 175.859 238.89 176.074 238.714 176.25C238.55 176.427 238.247 176.515 237.806 176.515ZM249.147 182.227C248.289 182.227 247.545 182.076 246.915 181.773C246.285 181.458 245.761 181.01 245.345 180.43C244.942 179.85 244.639 179.138 244.437 178.293C244.248 177.448 244.154 176.484 244.154 175.399C244.154 174.327 244.248 173.369 244.437 172.524C244.639 171.667 244.942 170.948 245.345 170.368C245.761 169.788 246.285 169.347 246.915 169.044C247.545 168.729 248.289 168.571 249.147 168.571C250.862 168.571 252.123 169.17 252.929 170.368C253.736 171.566 254.14 173.243 254.14 175.399C254.14 177.555 253.736 179.232 252.929 180.43C252.123 181.628 250.862 182.227 249.147 182.227ZM249.147 180.241C250.055 180.241 250.691 179.92 251.057 179.276C251.435 178.621 251.624 177.719 251.624 176.572V174.227C251.624 173.079 251.435 172.184 251.057 171.541C250.691 170.885 250.055 170.557 249.147 170.557C248.239 170.557 247.596 170.885 247.218 171.541C246.852 172.184 246.669 173.079 246.669 174.227V176.572C246.669 177.719 246.852 178.621 247.218 179.276C247.596 179.92 248.239 180.241 249.147 180.241ZM249.147 176.515C248.705 176.515 248.397 176.427 248.22 176.25C248.056 176.074 247.974 175.859 247.974 175.607V175.191C247.974 174.939 248.056 174.725 248.22 174.548C248.397 174.372 248.705 174.283 249.147 174.283C249.588 174.283 249.891 174.372 250.055 174.548C250.231 174.725 250.319 174.939 250.319 175.191V175.607C250.319 175.859 250.231 176.074 250.055 176.25C249.891 176.427 249.588 176.515 249.147 176.515ZM260.487 182.227C259.63 182.227 258.886 182.076 258.256 181.773C257.625 181.458 257.102 181.01 256.686 180.43C256.282 179.85 255.98 179.138 255.778 178.293C255.589 177.448 255.494 176.484 255.494 175.399C255.494 174.327 255.589 173.369 255.778 172.524C255.98 171.667 256.282 170.948 256.686 170.368C257.102 169.788 257.625 169.347 258.256 169.044C258.886 168.729 259.63 168.571 260.487 168.571C262.202 168.571 263.463 169.17 264.27 170.368C265.077 171.566 265.481 173.243 265.481 175.399C265.481 177.555 265.077 179.232 264.27 180.43C263.463 181.628 262.202 182.227 260.487 182.227ZM260.487 180.241C261.395 180.241 262.032 179.92 262.398 179.276C262.776 178.621 262.965 177.719 262.965 176.572V174.227C262.965 173.079 262.776 172.184 262.398 171.541C262.032 170.885 261.395 170.557 260.487 170.557C259.58 170.557 258.937 170.885 258.558 171.541C258.193 172.184 258.01 173.079 258.01 174.227V176.572C258.01 177.719 258.193 178.621 258.558 179.276C258.937 179.92 259.58 180.241 260.487 180.241ZM260.487 176.515C260.046 176.515 259.737 176.427 259.561 176.25C259.397 176.074 259.315 175.859 259.315 175.607V175.191C259.315 174.939 259.397 174.725 259.561 174.548C259.737 174.372 260.046 174.283 260.487 174.283C260.929 174.283 261.231 174.372 261.395 174.548C261.572 174.725 261.66 174.939 261.66 175.191V175.607C261.66 175.859 261.572 176.074 261.395 176.25C261.231 176.427 260.929 176.515 260.487 176.515ZM271.828 182.227C270.971 182.227 270.227 182.076 269.596 181.773C268.966 181.458 268.443 181.01 268.027 180.43C267.623 179.85 267.32 179.138 267.119 178.293C266.93 177.448 266.835 176.484 266.835 175.399C266.835 174.327 266.93 173.369 267.119 172.524C267.32 171.667 267.623 170.948 268.027 170.368C268.443 169.788 268.966 169.347 269.596 169.044C270.227 168.729 270.971 168.571 271.828 168.571C273.543 168.571 274.804 169.17 275.611 170.368C276.418 171.566 276.821 173.243 276.821 175.399C276.821 177.555 276.418 179.232 275.611 180.43C274.804 181.628 273.543 182.227 271.828 182.227ZM271.828 180.241C272.736 180.241 273.373 179.92 273.738 179.276C274.117 178.621 274.306 177.719 274.306 176.572V174.227C274.306 173.079 274.117 172.184 273.738 171.541C273.373 170.885 272.736 170.557 271.828 170.557C270.92 170.557 270.277 170.885 269.899 171.541C269.533 172.184 269.35 173.079 269.35 174.227V176.572C269.35 177.719 269.533 178.621 269.899 179.276C270.277 179.92 270.92 180.241 271.828 180.241ZM271.828 176.515C271.387 176.515 271.078 176.427 270.901 176.25C270.737 176.074 270.655 175.859 270.655 175.607V175.191C270.655 174.939 270.737 174.725 270.901 174.548C271.078 174.372 271.387 174.283 271.828 174.283C272.269 174.283 272.572 174.372 272.736 174.548C272.912 174.725 273.001 174.939 273.001 175.191V175.607C273.001 175.859 272.912 176.074 272.736 176.25C272.572 176.427 272.269 176.515 271.828 176.515Z" fill="white"/>
<path opacity="0.9" d="M34.912 44.27C34.036 44.27 33.238 44.126 32.518 43.838C31.798 43.55 31.18 43.13 30.664 42.578C30.148 42.026 29.746 41.348 29.458 40.544C29.182 39.728 29.044 38.798 29.044 37.754C29.044 36.71 29.2 35.786 29.512 34.982C29.836 34.166 30.268 33.482 30.808 32.93C31.348 32.378 31.978 31.958 32.698 31.67C33.418 31.382 34.186 31.238 35.002 31.238C35.518 31.238 35.98 31.274 36.388 31.346C36.808 31.418 37.168 31.502 37.468 31.598C37.78 31.694 38.032 31.79 38.224 31.886C38.416 31.982 38.548 32.054 38.62 32.102L38.116 33.542C38.008 33.47 37.852 33.392 37.648 33.308C37.444 33.224 37.21 33.14 36.946 33.056C36.694 32.972 36.412 32.906 36.1 32.858C35.8 32.798 35.494 32.768 35.182 32.768C34.522 32.768 33.928 32.882 33.4 33.11C32.872 33.338 32.422 33.668 32.05 34.1C31.678 34.532 31.39 35.06 31.186 35.684C30.994 36.296 30.898 36.986 30.898 37.754C30.898 38.498 30.982 39.176 31.15 39.788C31.33 40.4 31.594 40.928 31.942 41.372C32.29 41.804 32.722 42.14 33.238 42.38C33.766 42.62 34.378 42.74 35.074 42.74C35.878 42.74 36.544 42.656 37.072 42.488C37.6 42.32 37.996 42.17 38.26 42.038L38.71 43.478C38.626 43.538 38.476 43.616 38.26 43.712C38.044 43.796 37.774 43.88 37.45 43.964C37.126 44.048 36.748 44.12 36.316 44.18C35.884 44.24 35.416 44.27 34.912 44.27ZM44.0581 34.442C44.2021 34.442 44.3641 34.454 44.5441 34.478C44.7361 34.49 44.9221 34.514 45.1021 34.55C45.2821 34.574 45.4441 34.604 45.5881 34.64C45.7441 34.664 45.8581 34.688 45.9301 34.712L45.6421 36.17C45.5101 36.122 45.2881 36.068 44.9761 36.008C44.6761 35.936 44.2861 35.9 43.8061 35.9C43.4941 35.9 43.1821 35.936 42.8701 36.008C42.5701 36.068 42.3721 36.11 42.2761 36.134V44H40.6021V35.036C40.9981 34.892 41.4901 34.76 42.0781 34.64C42.6661 34.508 43.3261 34.442 44.0581 34.442ZM47.0235 39.338C47.0235 38.51 47.1435 37.79 47.3835 37.178C47.6235 36.554 47.9415 36.038 48.3375 35.63C48.7335 35.222 49.1895 34.916 49.7055 34.712C50.2215 34.508 50.7495 34.406 51.2895 34.406C52.5495 34.406 53.5155 34.802 54.1875 35.594C54.8595 36.374 55.1955 37.568 55.1955 39.176C55.1955 39.248 55.1955 39.344 55.1955 39.464C55.1955 39.572 55.1895 39.674 55.1775 39.77H48.7695C48.8415 40.742 49.1235 41.48 49.6155 41.984C50.1075 42.488 50.8755 42.74 51.9195 42.74C52.5075 42.74 52.9995 42.692 53.3955 42.596C53.8035 42.488 54.1095 42.386 54.3135 42.29L54.5475 43.694C54.3435 43.802 53.9835 43.916 53.4675 44.036C52.9635 44.156 52.3875 44.216 51.7395 44.216C50.9235 44.216 50.2155 44.096 49.6155 43.856C49.0275 43.604 48.5415 43.262 48.1575 42.83C47.7735 42.398 47.4855 41.888 47.2935 41.3C47.1135 40.7 47.0235 40.046 47.0235 39.338ZM53.4495 38.42C53.4615 37.664 53.2695 37.046 52.8735 36.566C52.4895 36.074 51.9555 35.828 51.2715 35.828C50.8875 35.828 50.5455 35.906 50.2455 36.062C49.9575 36.206 49.7115 36.398 49.5075 36.638C49.3035 36.878 49.1415 37.154 49.0215 37.466C48.9135 37.778 48.8415 38.096 48.8055 38.42H53.4495ZM63.6482 36.62C63.4442 36.452 63.1502 36.29 62.7662 36.134C62.3822 35.978 61.9622 35.9 61.5062 35.9C61.0262 35.9 60.6122 35.99 60.2642 36.17C59.9282 36.338 59.6522 36.578 59.4362 36.89C59.2202 37.19 59.0642 37.55 58.9682 37.97C58.8722 38.39 58.8242 38.84 58.8242 39.32C58.8242 40.412 59.0942 41.258 59.6342 41.858C60.1742 42.446 60.8942 42.74 61.7942 42.74C62.2502 42.74 62.6282 42.722 62.9282 42.686C63.2402 42.638 63.4802 42.59 63.6482 42.542V36.62ZM63.6482 30.32L65.3222 30.032V43.73C64.9382 43.838 64.4462 43.946 63.8462 44.054C63.2462 44.162 62.5562 44.216 61.7762 44.216C61.0562 44.216 60.4082 44.102 59.8322 43.874C59.2562 43.646 58.7642 43.322 58.3562 42.902C57.9482 42.482 57.6302 41.972 57.4022 41.372C57.1862 40.76 57.0782 40.076 57.0782 39.32C57.0782 38.6 57.1682 37.94 57.3482 37.34C57.5402 36.74 57.8162 36.224 58.1762 35.792C58.5362 35.36 58.9742 35.024 59.4902 34.784C60.0182 34.544 60.6182 34.424 61.2902 34.424C61.8302 34.424 62.3042 34.496 62.7122 34.64C63.1322 34.784 63.4442 34.922 63.6482 35.054V30.32ZM69.8738 44H68.1998V34.64H69.8738V44ZM69.0278 32.948C68.7278 32.948 68.4698 32.852 68.2538 32.66C68.0498 32.456 67.9478 32.186 67.9478 31.85C67.9478 31.514 68.0498 31.25 68.2538 31.058C68.4698 30.854 68.7278 30.752 69.0278 30.752C69.3278 30.752 69.5798 30.854 69.7838 31.058C69.9998 31.25 70.1078 31.514 70.1078 31.85C70.1078 32.186 69.9998 32.456 69.7838 32.66C69.5798 32.852 69.3278 32.948 69.0278 32.948ZM74.3185 34.64H77.8645V36.044H74.3185V40.364C74.3185 40.832 74.3545 41.222 74.4265 41.534C74.4985 41.834 74.6065 42.074 74.7505 42.254C74.8945 42.422 75.0745 42.542 75.2905 42.614C75.5065 42.686 75.7585 42.722 76.0465 42.722C76.5505 42.722 76.9525 42.668 77.2525 42.56C77.5645 42.44 77.7805 42.356 77.9005 42.308L78.2245 43.694C78.0565 43.778 77.7625 43.88 77.3425 44C76.9225 44.132 76.4425 44.198 75.9025 44.198C75.2665 44.198 74.7385 44.12 74.3185 43.964C73.9105 43.796 73.5805 43.55 73.3285 43.226C73.0765 42.902 72.8965 42.506 72.7885 42.038C72.6925 41.558 72.6445 41.006 72.6445 40.382V32.03L74.3185 31.742V34.64Z" fill="white"/>
<g clip-path="url(#clip0_42_519)">
<path d="M341.261 27.2781L333.93 44.7687H329.147L325.539 30.8084C325.32 29.9497 325.131 29.6347 324.464 29.2731C323.376 28.6827 321.58 28.1297 320 27.7844L320.107 27.2781H327.807C328.311 27.2776 328.797 27.4569 329.18 27.7838C329.562 28.1107 329.815 28.5636 329.893 29.0607L331.8 39.1827L336.508 27.2781H341.261ZM360.005 39.0591C360.024 34.4414 353.621 34.1871 353.665 32.1244C353.679 31.4967 354.277 30.8294 355.583 30.6591C357.115 30.5136 358.657 30.7845 360.047 31.4431L360.84 27.7331C359.487 27.2243 358.054 26.9611 356.608 26.9561C352.135 26.9561 348.987 29.3361 348.959 32.7404C348.931 35.2581 351.206 36.6604 352.921 37.5004C354.685 38.3567 355.278 38.9074 355.268 39.6727C355.257 40.8487 353.864 41.3644 352.562 41.3854C350.287 41.4204 348.968 40.7717 347.914 40.2817L347.095 44.1131C348.152 44.5984 350.102 45.0231 352.125 45.0417C356.878 45.0417 359.989 42.6944 360.005 39.0591ZM371.814 44.7687H376L372.348 27.2781H368.484C368.071 27.2742 367.667 27.3945 367.323 27.6234C366.98 27.8522 366.713 28.179 366.557 28.5614L359.769 44.7687H364.52L365.465 42.1554H371.27L371.814 44.7687ZM366.767 38.5714L369.147 32.0031L370.519 38.5714H366.767ZM347.727 27.2781L343.987 44.7687H339.46L343.205 27.2781H347.727Z" fill="white"/>
</g>
<defs>
<filter id="filter0_b_42_519" x="-94.5672" y="-94.5672" width="585.134" height="407.821" filterUnits="userSpaceOnUse" color-interpolation-filters="sRGB">
<feFlood flood-opacity="0" result="BackgroundImageFix"/>
<feGaussianBlur in="BackgroundImage" stdDeviation="47.2836"/>
<feComposite in2="SourceAlpha" operator="in" result="effect1_backgroundBlur_42_519"/>
<feBlend mode="normal" in="SourceGraphic" in2="effect1_backgroundBlur_42_519" result="shape"/>
</filter>
<linearGradient id="paint0_linear_42_519" x1="-56.7403" y1="-23.6418" x2="451.558" y2="242.919" gradientUnits="userSpaceOnUse">
<stop offset="0.119355" stop-color="#282828"/>
<stop offset="0.843296" stop-color="#0B0B0B"/>
</linearGradient>
<clipPath id="clip0_42_519">
<rect width="56" height="56" fill="white" transform="translate(320 8)"/>
</clipPath>
</defs>
</svg>
