<svg width="18" height="18" viewBox="0 0 18 18" fill="none" xmlns="http://www.w3.org/2000/svg">
<path d="M9.21658 5.93115H7.93066V8.46636H9.95377V9.52782H7.93066V12.0629H9.27958C9.62617 12.0629 12.125 12.102 12.1212 9.11337C12.1173 6.12474 9.69754 5.93115 9.21658 5.93115Z" fill="#C2A633"/>
<path d="M9 0C4.02939 0 0 4.02939 0 9C0 13.9706 4.02939 18 9 18C13.9706 18 18 13.9706 18 9C18 4.02939 13.9706 0 9 0ZM9.35361 13.8609H6.09426V9.52776H4.94532V8.4663H6.09417V4.13289H8.89155C9.55332 4.13289 13.9366 3.99546 13.9366 9.07821C13.9366 14.245 9.3537 13.8609 9.3537 13.8609H9.35361Z" fill="#C2A633"/>
</svg>
