<svg width="18" height="18" viewBox="0 0 18 18" fill="none" xmlns="http://www.w3.org/2000/svg">
<path d="M9 0C7.21993 0 5.47992 0.527841 3.99986 1.51677C2.51982 2.5057 1.36627 3.91131 0.685084 5.55583C0.00389956 7.20036 -0.17433 9.00999 0.172936 10.7558C0.520204 12.5016 1.37737 14.1053 2.63604 15.3639C3.8947 16.6226 5.49837 17.4798 7.24419 17.8271C8.99001 18.1743 10.7996 17.9961 12.4441 17.3149C14.0886 16.6337 15.4943 15.4802 16.4832 14.0001C17.4721 12.5201 18 10.78 18 9C18.0034 7.82154 17.7747 6.65393 17.3269 5.56385C16.8791 4.47378 16.221 3.48259 15.3901 2.64686C14.5592 1.81113 13.5719 1.14724 12.4844 0.69309C11.397 0.238941 10.2307 0.00342908 9.05229 0H9ZM9.1525 9.3051L8.21547 12.4649H13.2276C13.2608 12.4637 13.2939 12.4691 13.325 12.4807C13.3561 12.4924 13.3846 12.51 13.4089 12.5327C13.4332 12.5554 13.4528 12.5826 13.4665 12.6129C13.4803 12.6431 13.4879 12.6757 13.4891 12.7089V12.7917L13.0532 14.2954C13.034 14.3665 12.9912 14.429 12.9318 14.4725C12.8724 14.5161 12.8 14.5382 12.7264 14.5351H5.05571L6.3414 10.155L4.90315 10.5908L5.23003 9.58838L6.66828 9.15255L8.47696 3.00726C8.4969 2.93656 8.53987 2.87454 8.59914 2.8311C8.65836 2.78766 8.73045 2.76529 8.80384 2.76755H10.7433C10.7765 2.76639 10.8096 2.77178 10.8407 2.78342C10.8719 2.79506 10.9004 2.81272 10.9246 2.83538C10.9489 2.85805 10.9685 2.88528 10.9823 2.91552C10.996 2.94576 11.0037 2.97842 11.0048 3.01162V3.09443L9.47938 8.28085L10.9177 7.84503L10.6126 8.89105L9.1525 9.3051Z" fill="#345D9D"/>
</svg>
