<svg width="18" height="18" viewBox="0 0 18 18" fill="none" xmlns="http://www.w3.org/2000/svg">
<path fill-rule="evenodd" clip-rule="evenodd" d="M18 9C18 13.9706 13.9706 18 9 18C4.02943 18 0 13.9706 0 9C0 4.02943 4.02943 0 9 0C13.9706 0 18 4.02943 18 9ZM9.1125 4.95C10.4062 4.725 11.475 4.78125 11.925 5.90625C12.2625 6.75 12.0375 7.3125 11.475 7.875C12.4875 7.81875 13.2188 8.2125 13.4437 9.45C13.725 11.025 12.7125 11.7562 11.1375 12.3187L11.5875 13.8937L10.6312 14.175L10.1812 12.6C9.9 12.7125 9.675 12.7687 9.39375 12.825L9.84375 14.4L8.8875 14.6812L8.4375 13.1062L7.7625 13.275L6.525 13.6125L6.4125 12.4312L7.0875 12.2062C7.36875 12.0938 7.36875 11.8687 7.36875 11.7562L6.6375 9.16875L6.13125 7.36875C6.01875 7.14375 5.85 6.975 5.45625 7.0875C5.5125 7.0875 4.78125 7.3125 4.78125 7.3125L4.5 6.3L5.79375 5.85C5.90625 5.82187 6.00471 5.79375 6.10312 5.76562C6.20154 5.7375 6.3 5.70937 6.4125 5.68125L5.9625 4.10625L6.91875 3.825L7.36875 5.4C7.53606 5.36652 7.70337 5.31315 7.85884 5.26356C7.96473 5.22981 8.06508 5.19777 8.15625 5.175L7.70625 3.65625L8.6625 3.375L9.1125 4.95ZM9.46152 11.4972C10.303 11.2456 11.885 10.7725 11.5875 9.73125C11.2455 8.65638 9.71527 9.10921 8.87665 9.35739C8.74975 9.39497 8.63869 9.42781 8.55 9.45L9.16875 11.5875C9.24871 11.5609 9.34844 11.531 9.46152 11.4972ZM8.42557 8.44848C9.0981 8.25732 10.5479 7.84534 10.2375 6.8625C9.98307 5.84478 8.57781 6.30013 7.8957 6.52117C7.82379 6.54444 7.75989 6.56514 7.70625 6.58125L8.26875 8.49375C8.31397 8.4802 8.3668 8.46517 8.42557 8.44848Z" fill="#8DC351"/>
</svg>
