<svg width="296" height="183" viewBox="0 0 296 183" fill="none" xmlns="http://www.w3.org/2000/svg">
<g filter="url(#filter0_d_101_406)">
<rect x="25" y="16" width="246" height="133" rx="16" fill="url(#paint0_linear_101_406)"/>
<rect x="25" y="16" width="246" height="133" rx="16" fill="white" fill-opacity="0.03"/>
</g>
<path fill-rule="evenodd" clip-rule="evenodd" d="M70.8874 16H40C31.7157 16 25 22.7157 25 31V134C25 142.284 31.7157 149 40 149H256C263.966 149 270.481 142.791 270.971 134.948C269.823 97.9841 234.604 46.8784 70.8874 16Z" fill="white" fill-opacity="0.06"/>
<path d="M45.3 127.132C44.8013 127.132 44.3687 127.044 44.002 126.868C43.6353 126.685 43.331 126.424 43.089 126.087C42.8543 125.75 42.6783 125.335 42.561 124.844C42.451 124.353 42.396 123.792 42.396 123.161C42.396 122.538 42.451 121.98 42.561 121.489C42.6783 120.99 42.8543 120.572 43.089 120.235C43.331 119.898 43.6353 119.641 44.002 119.465C44.3687 119.282 44.8013 119.19 45.3 119.19C46.2973 119.19 47.0307 119.538 47.5 120.235C47.9693 120.932 48.204 121.907 48.204 123.161C48.204 124.415 47.9693 125.39 47.5 126.087C47.0307 126.784 46.2973 127.132 45.3 127.132ZM45.3 125.977C45.828 125.977 46.1983 125.79 46.411 125.416C46.631 125.035 46.741 124.51 46.741 123.843V122.479C46.741 121.812 46.631 121.291 46.411 120.917C46.1983 120.536 45.828 120.345 45.3 120.345C44.772 120.345 44.398 120.536 44.178 120.917C43.9653 121.291 43.859 121.812 43.859 122.479V123.843C43.859 124.51 43.9653 125.035 44.178 125.416C44.398 125.79 44.772 125.977 45.3 125.977ZM45.3 123.81C45.0433 123.81 44.8637 123.759 44.761 123.656C44.6657 123.553 44.618 123.429 44.618 123.282V123.04C44.618 122.893 44.6657 122.769 44.761 122.666C44.8637 122.563 45.0433 122.512 45.3 122.512C45.5567 122.512 45.7327 122.563 45.828 122.666C45.9307 122.769 45.982 122.893 45.982 123.04V123.282C45.982 123.429 45.9307 123.553 45.828 123.656C45.7327 123.759 45.5567 123.81 45.3 123.81ZM51.8957 127.132C51.397 127.132 50.9644 127.044 50.5977 126.868C50.231 126.685 49.9267 126.424 49.6847 126.087C49.45 125.75 49.274 125.335 49.1567 124.844C49.0467 124.353 48.9917 123.792 48.9917 123.161C48.9917 122.538 49.0467 121.98 49.1567 121.489C49.274 120.99 49.45 120.572 49.6847 120.235C49.9267 119.898 50.231 119.641 50.5977 119.465C50.9644 119.282 51.397 119.19 51.8957 119.19C52.893 119.19 53.6264 119.538 54.0957 120.235C54.565 120.932 54.7997 121.907 54.7997 123.161C54.7997 124.415 54.565 125.39 54.0957 126.087C53.6264 126.784 52.893 127.132 51.8957 127.132ZM51.8957 125.977C52.4237 125.977 52.794 125.79 53.0067 125.416C53.2267 125.035 53.3367 124.51 53.3367 123.843V122.479C53.3367 121.812 53.2267 121.291 53.0067 120.917C52.794 120.536 52.4237 120.345 51.8957 120.345C51.3677 120.345 50.9937 120.536 50.7737 120.917C50.561 121.291 50.4547 121.812 50.4547 122.479V123.843C50.4547 124.51 50.561 125.035 50.7737 125.416C50.9937 125.79 51.3677 125.977 51.8957 125.977ZM51.8957 123.81C51.639 123.81 51.4594 123.759 51.3567 123.656C51.2614 123.553 51.2137 123.429 51.2137 123.282V123.04C51.2137 122.893 51.2614 122.769 51.3567 122.666C51.4594 122.563 51.639 122.512 51.8957 122.512C52.1524 122.512 52.3284 122.563 52.4237 122.666C52.5264 122.769 52.5777 122.893 52.5777 123.04V123.282C52.5777 123.429 52.5264 123.553 52.4237 123.656C52.3284 123.759 52.1524 123.81 51.8957 123.81ZM58.4914 127.132C57.9927 127.132 57.5601 127.044 57.1934 126.868C56.8267 126.685 56.5224 126.424 56.2804 126.087C56.0457 125.75 55.8697 125.335 55.7524 124.844C55.6424 124.353 55.5874 123.792 55.5874 123.161C55.5874 122.538 55.6424 121.98 55.7524 121.489C55.8697 120.99 56.0457 120.572 56.2804 120.235C56.5224 119.898 56.8267 119.641 57.1934 119.465C57.5601 119.282 57.9927 119.19 58.4914 119.19C59.4887 119.19 60.2221 119.538 60.6914 120.235C61.1607 120.932 61.3954 121.907 61.3954 123.161C61.3954 124.415 61.1607 125.39 60.6914 126.087C60.2221 126.784 59.4887 127.132 58.4914 127.132ZM58.4914 125.977C59.0194 125.977 59.3897 125.79 59.6024 125.416C59.8224 125.035 59.9324 124.51 59.9324 123.843V122.479C59.9324 121.812 59.8224 121.291 59.6024 120.917C59.3897 120.536 59.0194 120.345 58.4914 120.345C57.9634 120.345 57.5894 120.536 57.3694 120.917C57.1567 121.291 57.0504 121.812 57.0504 122.479V123.843C57.0504 124.51 57.1567 125.035 57.3694 125.416C57.5894 125.79 57.9634 125.977 58.4914 125.977ZM58.4914 123.81C58.2347 123.81 58.0551 123.759 57.9524 123.656C57.8571 123.553 57.8094 123.429 57.8094 123.282V123.04C57.8094 122.893 57.8571 122.769 57.9524 122.666C58.0551 122.563 58.2347 122.512 58.4914 122.512C58.7481 122.512 58.9241 122.563 59.0194 122.666C59.1221 122.769 59.1734 122.893 59.1734 123.04V123.282C59.1734 123.429 59.1221 123.553 59.0194 123.656C58.9241 123.759 58.7481 123.81 58.4914 123.81ZM65.0871 127.132C64.5884 127.132 64.1558 127.044 63.7891 126.868C63.4224 126.685 63.1181 126.424 62.8761 126.087C62.6414 125.75 62.4654 125.335 62.3481 124.844C62.2381 124.353 62.1831 123.792 62.1831 123.161C62.1831 122.538 62.2381 121.98 62.3481 121.489C62.4654 120.99 62.6414 120.572 62.8761 120.235C63.1181 119.898 63.4224 119.641 63.7891 119.465C64.1558 119.282 64.5884 119.19 65.0871 119.19C66.0844 119.19 66.8178 119.538 67.2871 120.235C67.7564 120.932 67.9911 121.907 67.9911 123.161C67.9911 124.415 67.7564 125.39 67.2871 126.087C66.8178 126.784 66.0844 127.132 65.0871 127.132ZM65.0871 125.977C65.6151 125.977 65.9854 125.79 66.1981 125.416C66.4181 125.035 66.5281 124.51 66.5281 123.843V122.479C66.5281 121.812 66.4181 121.291 66.1981 120.917C65.9854 120.536 65.6151 120.345 65.0871 120.345C64.5591 120.345 64.1851 120.536 63.9651 120.917C63.7524 121.291 63.6461 121.812 63.6461 122.479V123.843C63.6461 124.51 63.7524 125.035 63.9651 125.416C64.1851 125.79 64.5591 125.977 65.0871 125.977ZM65.0871 123.81C64.8304 123.81 64.6508 123.759 64.5481 123.656C64.4528 123.553 64.4051 123.429 64.4051 123.282V123.04C64.4051 122.893 64.4528 122.769 64.5481 122.666C64.6508 122.563 64.8304 122.512 65.0871 122.512C65.3438 122.512 65.5198 122.563 65.6151 122.666C65.7178 122.769 65.7691 122.893 65.7691 123.04V123.282C65.7691 123.429 65.7178 123.553 65.6151 123.656C65.5198 123.759 65.3438 123.81 65.0871 123.81ZM84.8742 127.132C84.3756 127.132 83.9429 127.044 83.5762 126.868C83.2096 126.685 82.9052 126.424 82.6632 126.087C82.4286 125.75 82.2526 125.335 82.1352 124.844C82.0252 124.353 81.9702 123.792 81.9702 123.161C81.9702 122.538 82.0252 121.98 82.1352 121.489C82.2526 120.99 82.4286 120.572 82.6632 120.235C82.9052 119.898 83.2096 119.641 83.5762 119.465C83.9429 119.282 84.3756 119.19 84.8742 119.19C85.8716 119.19 86.6049 119.538 87.0742 120.235C87.5436 120.932 87.7782 121.907 87.7782 123.161C87.7782 124.415 87.5436 125.39 87.0742 126.087C86.6049 126.784 85.8716 127.132 84.8742 127.132ZM84.8742 125.977C85.4022 125.977 85.7726 125.79 85.9852 125.416C86.2052 125.035 86.3152 124.51 86.3152 123.843V122.479C86.3152 121.812 86.2052 121.291 85.9852 120.917C85.7726 120.536 85.4022 120.345 84.8742 120.345C84.3462 120.345 83.9722 120.536 83.7522 120.917C83.5396 121.291 83.4332 121.812 83.4332 122.479V123.843C83.4332 124.51 83.5396 125.035 83.7522 125.416C83.9722 125.79 84.3462 125.977 84.8742 125.977ZM84.8742 123.81C84.6176 123.81 84.4379 123.759 84.3352 123.656C84.2399 123.553 84.1922 123.429 84.1922 123.282V123.04C84.1922 122.893 84.2399 122.769 84.3352 122.666C84.4379 122.563 84.6176 122.512 84.8742 122.512C85.1309 122.512 85.3069 122.563 85.4022 122.666C85.5049 122.769 85.5562 122.893 85.5562 123.04V123.282C85.5562 123.429 85.5049 123.553 85.4022 123.656C85.3069 123.759 85.1309 123.81 84.8742 123.81ZM91.4699 127.132C90.9713 127.132 90.5386 127.044 90.1719 126.868C89.8053 126.685 89.5009 126.424 89.2589 126.087C89.0243 125.75 88.8483 125.335 88.7309 124.844C88.6209 124.353 88.5659 123.792 88.5659 123.161C88.5659 122.538 88.6209 121.98 88.7309 121.489C88.8483 120.99 89.0243 120.572 89.2589 120.235C89.5009 119.898 89.8053 119.641 90.1719 119.465C90.5386 119.282 90.9713 119.19 91.4699 119.19C92.4673 119.19 93.2006 119.538 93.6699 120.235C94.1393 120.932 94.3739 121.907 94.3739 123.161C94.3739 124.415 94.1393 125.39 93.6699 126.087C93.2006 126.784 92.4673 127.132 91.4699 127.132ZM91.4699 125.977C91.9979 125.977 92.3683 125.79 92.5809 125.416C92.8009 125.035 92.9109 124.51 92.9109 123.843V122.479C92.9109 121.812 92.8009 121.291 92.5809 120.917C92.3683 120.536 91.9979 120.345 91.4699 120.345C90.9419 120.345 90.5679 120.536 90.3479 120.917C90.1353 121.291 90.0289 121.812 90.0289 122.479V123.843C90.0289 124.51 90.1353 125.035 90.3479 125.416C90.5679 125.79 90.9419 125.977 91.4699 125.977ZM91.4699 123.81C91.2133 123.81 91.0336 123.759 90.9309 123.656C90.8356 123.553 90.7879 123.429 90.7879 123.282V123.04C90.7879 122.893 90.8356 122.769 90.9309 122.666C91.0336 122.563 91.2133 122.512 91.4699 122.512C91.7266 122.512 91.9026 122.563 91.9979 122.666C92.1006 122.769 92.1519 122.893 92.1519 123.04V123.282C92.1519 123.429 92.1006 123.553 91.9979 123.656C91.9026 123.759 91.7266 123.81 91.4699 123.81ZM98.0656 127.132C97.567 127.132 97.1343 127.044 96.7676 126.868C96.401 126.685 96.0966 126.424 95.8546 126.087C95.62 125.75 95.444 125.335 95.3266 124.844C95.2166 124.353 95.1616 123.792 95.1616 123.161C95.1616 122.538 95.2166 121.98 95.3266 121.489C95.444 120.99 95.62 120.572 95.8546 120.235C96.0966 119.898 96.401 119.641 96.7676 119.465C97.1343 119.282 97.567 119.19 98.0656 119.19C99.063 119.19 99.7963 119.538 100.266 120.235C100.735 120.932 100.97 121.907 100.97 123.161C100.97 124.415 100.735 125.39 100.266 126.087C99.7963 126.784 99.063 127.132 98.0656 127.132ZM98.0656 125.977C98.5936 125.977 98.964 125.79 99.1766 125.416C99.3966 125.035 99.5066 124.51 99.5066 123.843V122.479C99.5066 121.812 99.3966 121.291 99.1766 120.917C98.964 120.536 98.5936 120.345 98.0656 120.345C97.5376 120.345 97.1636 120.536 96.9436 120.917C96.731 121.291 96.6246 121.812 96.6246 122.479V123.843C96.6246 124.51 96.731 125.035 96.9436 125.416C97.1636 125.79 97.5376 125.977 98.0656 125.977ZM98.0656 123.81C97.809 123.81 97.6293 123.759 97.5266 123.656C97.4313 123.553 97.3836 123.429 97.3836 123.282V123.04C97.3836 122.893 97.4313 122.769 97.5266 122.666C97.6293 122.563 97.809 122.512 98.0656 122.512C98.3223 122.512 98.4983 122.563 98.5936 122.666C98.6963 122.769 98.7476 122.893 98.7476 123.04V123.282C98.7476 123.429 98.6963 123.553 98.5936 123.656C98.4983 123.759 98.3223 123.81 98.0656 123.81ZM104.661 127.132C104.163 127.132 103.73 127.044 103.363 126.868C102.997 126.685 102.692 126.424 102.45 126.087C102.216 125.75 102.04 125.335 101.922 124.844C101.812 124.353 101.757 123.792 101.757 123.161C101.757 122.538 101.812 121.98 101.922 121.489C102.04 120.99 102.216 120.572 102.45 120.235C102.692 119.898 102.997 119.641 103.363 119.465C103.73 119.282 104.163 119.19 104.661 119.19C105.659 119.19 106.392 119.538 106.861 120.235C107.331 120.932 107.565 121.907 107.565 123.161C107.565 124.415 107.331 125.39 106.861 126.087C106.392 126.784 105.659 127.132 104.661 127.132ZM104.661 125.977C105.189 125.977 105.56 125.79 105.772 125.416C105.992 125.035 106.102 124.51 106.102 123.843V122.479C106.102 121.812 105.992 121.291 105.772 120.917C105.56 120.536 105.189 120.345 104.661 120.345C104.133 120.345 103.759 120.536 103.539 120.917C103.327 121.291 103.22 121.812 103.22 122.479V123.843C103.22 124.51 103.327 125.035 103.539 125.416C103.759 125.79 104.133 125.977 104.661 125.977ZM104.661 123.81C104.405 123.81 104.225 123.759 104.122 123.656C104.027 123.553 103.979 123.429 103.979 123.282V123.04C103.979 122.893 104.027 122.769 104.122 122.666C104.225 122.563 104.405 122.512 104.661 122.512C104.918 122.512 105.094 122.563 105.189 122.666C105.292 122.769 105.343 122.893 105.343 123.04V123.282C105.343 123.429 105.292 123.553 105.189 123.656C105.094 123.759 104.918 123.81 104.661 123.81ZM124.448 127.132C123.95 127.132 123.517 127.044 123.15 126.868C122.784 126.685 122.479 126.424 122.237 126.087C122.003 125.75 121.827 125.335 121.709 124.844C121.599 124.353 121.544 123.792 121.544 123.161C121.544 122.538 121.599 121.98 121.709 121.489C121.827 120.99 122.003 120.572 122.237 120.235C122.479 119.898 122.784 119.641 123.15 119.465C123.517 119.282 123.95 119.19 124.448 119.19C125.446 119.19 126.179 119.538 126.648 120.235C127.118 120.932 127.352 121.907 127.352 123.161C127.352 124.415 127.118 125.39 126.648 126.087C126.179 126.784 125.446 127.132 124.448 127.132ZM124.448 125.977C124.976 125.977 125.347 125.79 125.559 125.416C125.779 125.035 125.889 124.51 125.889 123.843V122.479C125.889 121.812 125.779 121.291 125.559 120.917C125.347 120.536 124.976 120.345 124.448 120.345C123.92 120.345 123.546 120.536 123.326 120.917C123.114 121.291 123.007 121.812 123.007 122.479V123.843C123.007 124.51 123.114 125.035 123.326 125.416C123.546 125.79 123.92 125.977 124.448 125.977ZM124.448 123.81C124.192 123.81 124.012 123.759 123.909 123.656C123.814 123.553 123.766 123.429 123.766 123.282V123.04C123.766 122.893 123.814 122.769 123.909 122.666C124.012 122.563 124.192 122.512 124.448 122.512C124.705 122.512 124.881 122.563 124.976 122.666C125.079 122.769 125.13 122.893 125.13 123.04V123.282C125.13 123.429 125.079 123.553 124.976 123.656C124.881 123.759 124.705 123.81 124.448 123.81ZM131.044 127.132C130.545 127.132 130.113 127.044 129.746 126.868C129.379 126.685 129.075 126.424 128.833 126.087C128.598 125.75 128.422 125.335 128.305 124.844C128.195 124.353 128.14 123.792 128.14 123.161C128.14 122.538 128.195 121.98 128.305 121.489C128.422 120.99 128.598 120.572 128.833 120.235C129.075 119.898 129.379 119.641 129.746 119.465C130.113 119.282 130.545 119.19 131.044 119.19C132.041 119.19 132.775 119.538 133.244 120.235C133.713 120.932 133.948 121.907 133.948 123.161C133.948 124.415 133.713 125.39 133.244 126.087C132.775 126.784 132.041 127.132 131.044 127.132ZM131.044 125.977C131.572 125.977 131.942 125.79 132.155 125.416C132.375 125.035 132.485 124.51 132.485 123.843V122.479C132.485 121.812 132.375 121.291 132.155 120.917C131.942 120.536 131.572 120.345 131.044 120.345C130.516 120.345 130.142 120.536 129.922 120.917C129.709 121.291 129.603 121.812 129.603 122.479V123.843C129.603 124.51 129.709 125.035 129.922 125.416C130.142 125.79 130.516 125.977 131.044 125.977ZM131.044 123.81C130.787 123.81 130.608 123.759 130.505 123.656C130.41 123.553 130.362 123.429 130.362 123.282V123.04C130.362 122.893 130.41 122.769 130.505 122.666C130.608 122.563 130.787 122.512 131.044 122.512C131.301 122.512 131.477 122.563 131.572 122.666C131.675 122.769 131.726 122.893 131.726 123.04V123.282C131.726 123.429 131.675 123.553 131.572 123.656C131.477 123.759 131.301 123.81 131.044 123.81ZM137.64 127.132C137.141 127.132 136.709 127.044 136.342 126.868C135.975 126.685 135.671 126.424 135.429 126.087C135.194 125.75 135.018 125.335 134.901 124.844C134.791 124.353 134.736 123.792 134.736 123.161C134.736 122.538 134.791 121.98 134.901 121.489C135.018 120.99 135.194 120.572 135.429 120.235C135.671 119.898 135.975 119.641 136.342 119.465C136.709 119.282 137.141 119.19 137.64 119.19C138.637 119.19 139.371 119.538 139.84 120.235C140.309 120.932 140.544 121.907 140.544 123.161C140.544 124.415 140.309 125.39 139.84 126.087C139.371 126.784 138.637 127.132 137.64 127.132ZM137.64 125.977C138.168 125.977 138.538 125.79 138.751 125.416C138.971 125.035 139.081 124.51 139.081 123.843V122.479C139.081 121.812 138.971 121.291 138.751 120.917C138.538 120.536 138.168 120.345 137.64 120.345C137.112 120.345 136.738 120.536 136.518 120.917C136.305 121.291 136.199 121.812 136.199 122.479V123.843C136.199 124.51 136.305 125.035 136.518 125.416C136.738 125.79 137.112 125.977 137.64 125.977ZM137.64 123.81C137.383 123.81 137.204 123.759 137.101 123.656C137.006 123.553 136.958 123.429 136.958 123.282V123.04C136.958 122.893 137.006 122.769 137.101 122.666C137.204 122.563 137.383 122.512 137.64 122.512C137.897 122.512 138.073 122.563 138.168 122.666C138.271 122.769 138.322 122.893 138.322 123.04V123.282C138.322 123.429 138.271 123.553 138.168 123.656C138.073 123.759 137.897 123.81 137.64 123.81ZM144.236 127.132C143.737 127.132 143.304 127.044 142.938 126.868C142.571 126.685 142.267 126.424 142.025 126.087C141.79 125.75 141.614 125.335 141.497 124.844C141.387 124.353 141.332 123.792 141.332 123.161C141.332 122.538 141.387 121.98 141.497 121.489C141.614 120.99 141.79 120.572 142.025 120.235C142.267 119.898 142.571 119.641 142.938 119.465C143.304 119.282 143.737 119.19 144.236 119.19C145.233 119.19 145.966 119.538 146.436 120.235C146.905 120.932 147.14 121.907 147.14 123.161C147.14 124.415 146.905 125.39 146.436 126.087C145.966 126.784 145.233 127.132 144.236 127.132ZM144.236 125.977C144.764 125.977 145.134 125.79 145.347 125.416C145.567 125.035 145.677 124.51 145.677 123.843V122.479C145.677 121.812 145.567 121.291 145.347 120.917C145.134 120.536 144.764 120.345 144.236 120.345C143.708 120.345 143.334 120.536 143.114 120.917C142.901 121.291 142.795 121.812 142.795 122.479V123.843C142.795 124.51 142.901 125.035 143.114 125.416C143.334 125.79 143.708 125.977 144.236 125.977ZM144.236 123.81C143.979 123.81 143.799 123.759 143.697 123.656C143.601 123.553 143.554 123.429 143.554 123.282V123.04C143.554 122.893 143.601 122.769 143.697 122.666C143.799 122.563 143.979 122.512 144.236 122.512C144.492 122.512 144.668 122.563 144.764 122.666C144.866 122.769 144.918 122.893 144.918 123.04V123.282C144.918 123.429 144.866 123.553 144.764 123.656C144.668 123.759 144.492 123.81 144.236 123.81ZM164.023 127.132C163.524 127.132 163.091 127.044 162.725 126.868C162.358 126.685 162.054 126.424 161.812 126.087C161.577 125.75 161.401 125.335 161.284 124.844C161.174 124.353 161.119 123.792 161.119 123.161C161.119 122.538 161.174 121.98 161.284 121.489C161.401 120.99 161.577 120.572 161.812 120.235C162.054 119.898 162.358 119.641 162.725 119.465C163.091 119.282 163.524 119.19 164.023 119.19C165.02 119.19 165.753 119.538 166.223 120.235C166.692 120.932 166.927 121.907 166.927 123.161C166.927 124.415 166.692 125.39 166.223 126.087C165.753 126.784 165.02 127.132 164.023 127.132ZM164.023 125.977C164.551 125.977 164.921 125.79 165.134 125.416C165.354 125.035 165.464 124.51 165.464 123.843V122.479C165.464 121.812 165.354 121.291 165.134 120.917C164.921 120.536 164.551 120.345 164.023 120.345C163.495 120.345 163.121 120.536 162.901 120.917C162.688 121.291 162.582 121.812 162.582 122.479V123.843C162.582 124.51 162.688 125.035 162.901 125.416C163.121 125.79 163.495 125.977 164.023 125.977ZM164.023 123.81C163.766 123.81 163.586 123.759 163.484 123.656C163.388 123.553 163.341 123.429 163.341 123.282V123.04C163.341 122.893 163.388 122.769 163.484 122.666C163.586 122.563 163.766 122.512 164.023 122.512C164.279 122.512 164.455 122.563 164.551 122.666C164.653 122.769 164.705 122.893 164.705 123.04V123.282C164.705 123.429 164.653 123.553 164.551 123.656C164.455 123.759 164.279 123.81 164.023 123.81ZM170.618 127.132C170.12 127.132 169.687 127.044 169.32 126.868C168.954 126.685 168.649 126.424 168.407 126.087C168.173 125.75 167.997 125.335 167.879 124.844C167.769 124.353 167.714 123.792 167.714 123.161C167.714 122.538 167.769 121.98 167.879 121.489C167.997 120.99 168.173 120.572 168.407 120.235C168.649 119.898 168.954 119.641 169.32 119.465C169.687 119.282 170.12 119.19 170.618 119.19C171.616 119.19 172.349 119.538 172.818 120.235C173.288 120.932 173.522 121.907 173.522 123.161C173.522 124.415 173.288 125.39 172.818 126.087C172.349 126.784 171.616 127.132 170.618 127.132ZM170.618 125.977C171.146 125.977 171.517 125.79 171.729 125.416C171.949 125.035 172.059 124.51 172.059 123.843V122.479C172.059 121.812 171.949 121.291 171.729 120.917C171.517 120.536 171.146 120.345 170.618 120.345C170.09 120.345 169.716 120.536 169.496 120.917C169.284 121.291 169.177 121.812 169.177 122.479V123.843C169.177 124.51 169.284 125.035 169.496 125.416C169.716 125.79 170.09 125.977 170.618 125.977ZM170.618 123.81C170.362 123.81 170.182 123.759 170.079 123.656C169.984 123.553 169.936 123.429 169.936 123.282V123.04C169.936 122.893 169.984 122.769 170.079 122.666C170.182 122.563 170.362 122.512 170.618 122.512C170.875 122.512 171.051 122.563 171.146 122.666C171.249 122.769 171.3 122.893 171.3 123.04V123.282C171.3 123.429 171.249 123.553 171.146 123.656C171.051 123.759 170.875 123.81 170.618 123.81ZM177.214 127.132C176.715 127.132 176.283 127.044 175.916 126.868C175.549 126.685 175.245 126.424 175.003 126.087C174.768 125.75 174.592 125.335 174.475 124.844C174.365 124.353 174.31 123.792 174.31 123.161C174.31 122.538 174.365 121.98 174.475 121.489C174.592 120.99 174.768 120.572 175.003 120.235C175.245 119.898 175.549 119.641 175.916 119.465C176.283 119.282 176.715 119.19 177.214 119.19C178.211 119.19 178.945 119.538 179.414 120.235C179.883 120.932 180.118 121.907 180.118 123.161C180.118 124.415 179.883 125.39 179.414 126.087C178.945 126.784 178.211 127.132 177.214 127.132ZM177.214 125.977C177.742 125.977 178.112 125.79 178.325 125.416C178.545 125.035 178.655 124.51 178.655 123.843V122.479C178.655 121.812 178.545 121.291 178.325 120.917C178.112 120.536 177.742 120.345 177.214 120.345C176.686 120.345 176.312 120.536 176.092 120.917C175.879 121.291 175.773 121.812 175.773 122.479V123.843C175.773 124.51 175.879 125.035 176.092 125.416C176.312 125.79 176.686 125.977 177.214 125.977ZM177.214 123.81C176.957 123.81 176.778 123.759 176.675 123.656C176.58 123.553 176.532 123.429 176.532 123.282V123.04C176.532 122.893 176.58 122.769 176.675 122.666C176.778 122.563 176.957 122.512 177.214 122.512C177.471 122.512 177.647 122.563 177.742 122.666C177.845 122.769 177.896 122.893 177.896 123.04V123.282C177.896 123.429 177.845 123.553 177.742 123.656C177.647 123.759 177.471 123.81 177.214 123.81ZM183.81 127.132C183.311 127.132 182.878 127.044 182.512 126.868C182.145 126.685 181.841 126.424 181.599 126.087C181.364 125.75 181.188 125.335 181.071 124.844C180.961 124.353 180.906 123.792 180.906 123.161C180.906 122.538 180.961 121.98 181.071 121.489C181.188 120.99 181.364 120.572 181.599 120.235C181.841 119.898 182.145 119.641 182.512 119.465C182.878 119.282 183.311 119.19 183.81 119.19C184.807 119.19 185.54 119.538 186.01 120.235C186.479 120.932 186.714 121.907 186.714 123.161C186.714 124.415 186.479 125.39 186.01 126.087C185.54 126.784 184.807 127.132 183.81 127.132ZM183.81 125.977C184.338 125.977 184.708 125.79 184.921 125.416C185.141 125.035 185.251 124.51 185.251 123.843V122.479C185.251 121.812 185.141 121.291 184.921 120.917C184.708 120.536 184.338 120.345 183.81 120.345C183.282 120.345 182.908 120.536 182.688 120.917C182.475 121.291 182.369 121.812 182.369 122.479V123.843C182.369 124.51 182.475 125.035 182.688 125.416C182.908 125.79 183.282 125.977 183.81 125.977ZM183.81 123.81C183.553 123.81 183.373 123.759 183.271 123.656C183.175 123.553 183.128 123.429 183.128 123.282V123.04C183.128 122.893 183.175 122.769 183.271 122.666C183.373 122.563 183.553 122.512 183.81 122.512C184.066 122.512 184.242 122.563 184.338 122.666C184.44 122.769 184.492 122.893 184.492 123.04V123.282C184.492 123.429 184.44 123.553 184.338 123.656C184.242 123.759 184.066 123.81 183.81 123.81Z" fill="white"/>
<path opacity="0.9" d="M46.356 43.154C45.1167 43.154 44.1707 42.8093 43.518 42.12C42.8727 41.4307 42.55 40.4517 42.55 39.183C42.55 38.5523 42.649 37.9913 42.847 37.5C43.045 37.0013 43.3163 36.5833 43.661 36.246C44.0057 35.9013 44.4163 35.641 44.893 35.465C45.3697 35.289 45.8867 35.201 46.444 35.201C46.7667 35.201 47.06 35.2267 47.324 35.278C47.588 35.322 47.819 35.377 48.017 35.443C48.215 35.5017 48.38 35.564 48.512 35.63C48.644 35.696 48.7393 35.7473 48.798 35.784L48.303 37.17C48.0683 37.0453 47.7933 36.939 47.478 36.851C47.17 36.763 46.818 36.719 46.422 36.719C46.158 36.719 45.8977 36.763 45.641 36.851C45.3917 36.939 45.168 37.082 44.97 37.28C44.7793 37.4707 44.6253 37.72 44.508 38.028C44.3907 38.336 44.332 38.71 44.332 39.15C44.332 39.502 44.3687 39.832 44.442 40.14C44.5227 40.4407 44.6473 40.701 44.816 40.921C44.992 41.141 45.2193 41.317 45.498 41.449C45.7767 41.5737 46.114 41.636 46.51 41.636C46.7593 41.636 46.983 41.6213 47.181 41.592C47.379 41.5627 47.555 41.5297 47.709 41.493C47.863 41.449 47.9987 41.4013 48.116 41.35C48.2333 41.2987 48.3397 41.251 48.435 41.207L48.908 42.582C48.666 42.7287 48.325 42.8607 47.885 42.978C47.445 43.0953 46.9353 43.154 46.356 43.154ZM53.3898 38.666C53.2431 38.6293 53.0708 38.5927 52.8728 38.556C52.6748 38.512 52.4621 38.49 52.2348 38.49C52.1321 38.49 52.0075 38.501 51.8608 38.523C51.7215 38.5377 51.6151 38.556 51.5418 38.578V43H49.9028V37.522C50.1961 37.4193 50.5408 37.324 50.9368 37.236C51.3401 37.1407 51.7875 37.093 52.2788 37.093C52.3668 37.093 52.4731 37.1003 52.5978 37.115C52.7225 37.1223 52.8471 37.137 52.9718 37.159C53.0965 37.1737 53.2211 37.1957 53.3458 37.225C53.4705 37.247 53.5768 37.2763 53.6648 37.313L53.3898 38.666ZM54.161 40.151C54.161 39.6377 54.238 39.1903 54.392 38.809C54.5533 38.4203 54.7623 38.0977 55.019 37.841C55.2757 37.5843 55.569 37.39 55.899 37.258C56.2363 37.126 56.581 37.06 56.933 37.06C57.7543 37.06 58.4033 37.313 58.88 37.819C59.3567 38.3177 59.595 39.0547 59.595 40.03C59.595 40.1253 59.5913 40.2317 59.584 40.349C59.5767 40.459 59.5693 40.558 59.562 40.646H55.844C55.8807 40.9833 56.0383 41.251 56.317 41.449C56.5957 41.647 56.9697 41.746 57.439 41.746C57.7397 41.746 58.033 41.7203 58.319 41.669C58.6123 41.6103 58.8507 41.5407 59.034 41.46L59.254 42.791C59.166 42.835 59.0487 42.879 58.902 42.923C58.7553 42.967 58.5903 43.0037 58.407 43.033C58.231 43.0697 58.0403 43.099 57.835 43.121C57.6297 43.143 57.4243 43.154 57.219 43.154C56.6983 43.154 56.2437 43.077 55.855 42.923C55.4737 42.769 55.1547 42.56 54.898 42.296C54.6487 42.0247 54.4617 41.7057 54.337 41.339C54.2197 40.9723 54.161 40.5763 54.161 40.151ZM58.011 39.524C58.0037 39.3847 57.978 39.249 57.934 39.117C57.8973 38.985 57.835 38.8677 57.747 38.765C57.6663 38.6623 57.56 38.578 57.428 38.512C57.3033 38.446 57.1457 38.413 56.955 38.413C56.7717 38.413 56.614 38.446 56.482 38.512C56.35 38.5707 56.24 38.6513 56.152 38.754C56.064 38.8567 55.9943 38.9777 55.943 39.117C55.899 39.249 55.866 39.3847 55.844 39.524H58.011ZM62.2568 40.063C62.2568 40.569 62.3705 40.976 62.5978 41.284C62.8252 41.592 63.1625 41.746 63.6098 41.746C63.7565 41.746 63.8922 41.7423 64.0168 41.735C64.1415 41.7203 64.2442 41.7057 64.3248 41.691V38.71C64.2222 38.644 64.0865 38.589 63.9178 38.545C63.7565 38.501 63.5915 38.479 63.4228 38.479C62.6455 38.479 62.2568 39.007 62.2568 40.063ZM65.9638 42.813C65.8172 42.857 65.6485 42.901 65.4578 42.945C65.2672 42.9817 65.0655 43.0147 64.8528 43.044C64.6475 43.0733 64.4348 43.0953 64.2148 43.11C64.0022 43.132 63.7968 43.143 63.5988 43.143C63.1222 43.143 62.6968 43.0733 62.3228 42.934C61.9488 42.7947 61.6335 42.5967 61.3768 42.34C61.1202 42.076 60.9222 41.7607 60.7828 41.394C60.6508 41.02 60.5848 40.602 60.5848 40.14C60.5848 39.6707 60.6435 39.249 60.7608 38.875C60.8782 38.4937 61.0468 38.171 61.2668 37.907C61.4868 37.643 61.7545 37.4413 62.0698 37.302C62.3925 37.1627 62.7592 37.093 63.1698 37.093C63.3972 37.093 63.5988 37.115 63.7748 37.159C63.9582 37.203 64.1415 37.2653 64.3248 37.346V34.728L65.9638 34.464V42.813ZM69.1375 43H67.4985V37.214H69.1375V43ZM69.2915 35.542C69.2915 35.8427 69.1925 36.081 68.9945 36.257C68.8038 36.4257 68.5765 36.51 68.3125 36.51C68.0485 36.51 67.8175 36.4257 67.6195 36.257C67.4288 36.081 67.3335 35.8427 67.3335 35.542C67.3335 35.2413 67.4288 35.0067 67.6195 34.838C67.8175 34.662 68.0485 34.574 68.3125 34.574C68.5765 34.574 68.8038 34.662 68.9945 34.838C69.1925 35.0067 69.2915 35.2413 69.2915 35.542ZM70.6232 35.773L72.2622 35.509V37.214H74.2312V38.578H72.2622V40.613C72.2622 40.9577 72.3209 41.2327 72.4382 41.438C72.5629 41.6433 72.8085 41.746 73.1752 41.746C73.3512 41.746 73.5309 41.7313 73.7142 41.702C73.9049 41.6653 74.0772 41.6177 74.2312 41.559L74.4622 42.835C74.2642 42.9157 74.0442 42.9853 73.8022 43.044C73.5602 43.1027 73.2632 43.132 72.9112 43.132C72.4639 43.132 72.0935 43.0733 71.8002 42.956C71.5069 42.8313 71.2722 42.6627 71.0962 42.45C70.9202 42.23 70.7955 41.966 70.7222 41.658C70.6562 41.35 70.6232 41.009 70.6232 40.635V35.773Z" fill="white"/>
<ellipse cx="230.625" cy="36.9585" rx="10.625" ry="10.625" fill="#EB001B"/>
<ellipse cx="243.375" cy="36.9585" rx="10.625" ry="10.625" fill="#F79E1B"/>
<path fill-rule="evenodd" clip-rule="evenodd" d="M237 45.4586C239.933 43.762 241.907 40.5907 241.907 36.9586C241.907 33.3264 239.933 30.1552 237 28.4585C234.067 30.1552 232.094 33.3264 232.094 36.9586C232.094 40.5907 234.067 43.762 237 45.4586Z" fill="#FF5F00"/>
</g>
<defs>
<filter id="filter0_d_101_406" x="0.543455" y="0.714659" width="294.913" height="181.913" filterUnits="userSpaceOnUse" color-interpolation-filters="sRGB">
<feFlood flood-opacity="0" result="BackgroundImageFix"/>
<feColorMatrix in="SourceAlpha" type="matrix" values="0 0 0 0 0 0 0 0 0 0 0 0 0 0 0 0 0 0 127 0" result="hardAlpha"/>
<feOffset dy="9.1712"/>
<feGaussianBlur stdDeviation="12.2283"/>
<feColorMatrix type="matrix" values="0 0 0 0 0.816667 0 0 0 0 0.816667 0 0 0 0 0.816667 0 0 0 0.8 0"/>
<feBlend mode="normal" in2="BackgroundImageFix" result="effect1_dropShadow_101_406"/>
<feBlend mode="normal" in="SourceGraphic" in2="effect1_dropShadow_101_406" result="shape"/>
</filter>
<linearGradient id="paint0_linear_101_406" x1="-10.2478" y1="1.62162" x2="302.59" y2="169.196" gradientUnits="userSpaceOnUse">
<stop offset="0.119355" stop-color="#282828"/>
<stop offset="0.843296" stop-color="#0B0B0B"/>
</linearGradient>
</defs>
</svg>
