<svg width="246" height="133" viewBox="0 0 246 133" fill="none" xmlns="http://www.w3.org/2000/svg">
<g clip-path="url(#clip0_101_364)">
<rect width="246" height="133" rx="14.6866" fill="url(#paint0_linear_101_364)"/>
<g filter="url(#filter0_b_101_364)">
<rect width="246" height="133" rx="14.6866" fill="white" fill-opacity="0.03"/>
</g>
<path fill-rule="evenodd" clip-rule="evenodd" d="M174.836 0H91.96L12.2468 135.649C13.0404 135.782 13.8555 135.851 14.6867 135.851H231.314C239.425 135.851 246 129.275 246 121.164V58.4214L174.836 0Z" fill="white" fill-opacity="0.08"/>
<path fill-rule="evenodd" clip-rule="evenodd" d="M40.8525 0H14.6866C6.5754 0 0 6.57541 0 14.6866V121.164C0 129.275 6.5754 135.851 14.6866 135.851H206.334L40.8525 0Z" fill="white" fill-opacity="0.08"/>
<path opacity="0.9" d="M21.356 27.154C20.1167 27.154 19.1707 26.8093 18.518 26.12C17.8727 25.4307 17.55 24.4517 17.55 23.183C17.55 22.5523 17.649 21.9913 17.847 21.5C18.045 21.0013 18.3163 20.5833 18.661 20.246C19.0057 19.9013 19.4163 19.641 19.893 19.465C20.3697 19.289 20.8867 19.201 21.444 19.201C21.7667 19.201 22.06 19.2267 22.324 19.278C22.588 19.322 22.819 19.377 23.017 19.443C23.215 19.5017 23.38 19.564 23.512 19.63C23.644 19.696 23.7393 19.7473 23.798 19.784L23.303 21.17C23.0683 21.0453 22.7933 20.939 22.478 20.851C22.17 20.763 21.818 20.719 21.422 20.719C21.158 20.719 20.8977 20.763 20.641 20.851C20.3917 20.939 20.168 21.082 19.97 21.28C19.7793 21.4707 19.6253 21.72 19.508 22.028C19.3907 22.336 19.332 22.71 19.332 23.15C19.332 23.502 19.3687 23.832 19.442 24.14C19.5227 24.4407 19.6473 24.701 19.816 24.921C19.992 25.141 20.2193 25.317 20.498 25.449C20.7767 25.5737 21.114 25.636 21.51 25.636C21.7593 25.636 21.983 25.6213 22.181 25.592C22.379 25.5627 22.555 25.5297 22.709 25.493C22.863 25.449 22.9987 25.4013 23.116 25.35C23.2333 25.2987 23.3397 25.251 23.435 25.207L23.908 26.582C23.666 26.7287 23.325 26.8607 22.885 26.978C22.445 27.0953 21.9353 27.154 21.356 27.154ZM28.3898 22.666C28.2431 22.6293 28.0708 22.5927 27.8728 22.556C27.6748 22.512 27.4621 22.49 27.2348 22.49C27.1321 22.49 27.0075 22.501 26.8608 22.523C26.7215 22.5377 26.6151 22.556 26.5418 22.578V27H24.9028V21.522C25.1961 21.4193 25.5408 21.324 25.9368 21.236C26.3401 21.1407 26.7875 21.093 27.2788 21.093C27.3668 21.093 27.4731 21.1003 27.5978 21.115C27.7225 21.1223 27.8471 21.137 27.9718 21.159C28.0965 21.1737 28.2211 21.1957 28.3458 21.225C28.4705 21.247 28.5768 21.2763 28.6648 21.313L28.3898 22.666ZM29.161 24.151C29.161 23.6377 29.238 23.1903 29.392 22.809C29.5533 22.4203 29.7623 22.0977 30.019 21.841C30.2757 21.5843 30.569 21.39 30.899 21.258C31.2363 21.126 31.581 21.06 31.933 21.06C32.7543 21.06 33.4033 21.313 33.88 21.819C34.3567 22.3177 34.595 23.0547 34.595 24.03C34.595 24.1253 34.5913 24.2317 34.584 24.349C34.5767 24.459 34.5693 24.558 34.562 24.646H30.844C30.8807 24.9833 31.0383 25.251 31.317 25.449C31.5957 25.647 31.9697 25.746 32.439 25.746C32.7397 25.746 33.033 25.7203 33.319 25.669C33.6123 25.6103 33.8507 25.5407 34.034 25.46L34.254 26.791C34.166 26.835 34.0487 26.879 33.902 26.923C33.7553 26.967 33.5903 27.0037 33.407 27.033C33.231 27.0697 33.0403 27.099 32.835 27.121C32.6297 27.143 32.4243 27.154 32.219 27.154C31.6983 27.154 31.2437 27.077 30.855 26.923C30.4737 26.769 30.1547 26.56 29.898 26.296C29.6487 26.0247 29.4617 25.7057 29.337 25.339C29.2197 24.9723 29.161 24.5763 29.161 24.151ZM33.011 23.524C33.0037 23.3847 32.978 23.249 32.934 23.117C32.8973 22.985 32.835 22.8677 32.747 22.765C32.6663 22.6623 32.56 22.578 32.428 22.512C32.3033 22.446 32.1457 22.413 31.955 22.413C31.7717 22.413 31.614 22.446 31.482 22.512C31.35 22.5707 31.24 22.6513 31.152 22.754C31.064 22.8567 30.9943 22.9777 30.943 23.117C30.899 23.249 30.866 23.3847 30.844 23.524H33.011ZM37.2568 24.063C37.2568 24.569 37.3705 24.976 37.5978 25.284C37.8252 25.592 38.1625 25.746 38.6098 25.746C38.7565 25.746 38.8922 25.7423 39.0168 25.735C39.1415 25.7203 39.2442 25.7057 39.3248 25.691V22.71C39.2222 22.644 39.0865 22.589 38.9178 22.545C38.7565 22.501 38.5915 22.479 38.4228 22.479C37.6455 22.479 37.2568 23.007 37.2568 24.063ZM40.9638 26.813C40.8172 26.857 40.6485 26.901 40.4578 26.945C40.2672 26.9817 40.0655 27.0147 39.8528 27.044C39.6475 27.0733 39.4348 27.0953 39.2148 27.11C39.0022 27.132 38.7968 27.143 38.5988 27.143C38.1222 27.143 37.6968 27.0733 37.3228 26.934C36.9488 26.7947 36.6335 26.5967 36.3768 26.34C36.1202 26.076 35.9222 25.7607 35.7828 25.394C35.6508 25.02 35.5848 24.602 35.5848 24.14C35.5848 23.6707 35.6435 23.249 35.7608 22.875C35.8782 22.4937 36.0468 22.171 36.2668 21.907C36.4868 21.643 36.7545 21.4413 37.0698 21.302C37.3925 21.1627 37.7592 21.093 38.1698 21.093C38.3972 21.093 38.5988 21.115 38.7748 21.159C38.9582 21.203 39.1415 21.2653 39.3248 21.346V18.728L40.9638 18.464V26.813ZM44.1375 27H42.4985V21.214H44.1375V27ZM44.2915 19.542C44.2915 19.8427 44.1925 20.081 43.9945 20.257C43.8038 20.4257 43.5765 20.51 43.3125 20.51C43.0485 20.51 42.8175 20.4257 42.6195 20.257C42.4288 20.081 42.3335 19.8427 42.3335 19.542C42.3335 19.2413 42.4288 19.0067 42.6195 18.838C42.8175 18.662 43.0485 18.574 43.3125 18.574C43.5765 18.574 43.8038 18.662 43.9945 18.838C44.1925 19.0067 44.2915 19.2413 44.2915 19.542ZM45.6232 19.773L47.2622 19.509V21.214H49.2312V22.578H47.2622V24.613C47.2622 24.9577 47.3209 25.2327 47.4382 25.438C47.5629 25.6433 47.8085 25.746 48.1752 25.746C48.3512 25.746 48.5309 25.7313 48.7142 25.702C48.9049 25.6653 49.0772 25.6177 49.2312 25.559L49.4622 26.835C49.2642 26.9157 49.0442 26.9853 48.8022 27.044C48.5602 27.1027 48.2632 27.132 47.9112 27.132C47.4639 27.132 47.0935 27.0733 46.8002 26.956C46.5069 26.8313 46.2722 26.6627 46.0962 26.45C45.9202 26.23 45.7955 25.966 45.7222 25.658C45.6562 25.35 45.6232 25.009 45.6232 24.635V19.773Z" fill="white"/>
<ellipse cx="205.625" cy="20.9585" rx="10.625" ry="10.625" fill="#EB001B"/>
<ellipse cx="218.375" cy="20.9585" rx="10.625" ry="10.625" fill="#F79E1B"/>
<path fill-rule="evenodd" clip-rule="evenodd" d="M212 12.4585C214.933 14.1551 216.907 17.3264 216.907 20.9586C216.907 24.5907 214.933 27.762 212 29.4586C209.067 27.762 207.094 24.5907 207.094 20.9586C207.094 17.3264 209.067 14.1552 212 12.4585Z" fill="#FF5F00"/>
<path d="M21.3 114.132C20.8013 114.132 20.3687 114.044 20.002 113.868C19.6353 113.685 19.331 113.424 19.089 113.087C18.8543 112.75 18.6783 112.335 18.561 111.844C18.451 111.353 18.396 110.792 18.396 110.161C18.396 109.538 18.451 108.98 18.561 108.489C18.6783 107.99 18.8543 107.572 19.089 107.235C19.331 106.898 19.6353 106.641 20.002 106.465C20.3687 106.282 20.8013 106.19 21.3 106.19C22.2973 106.19 23.0307 106.538 23.5 107.235C23.9693 107.932 24.204 108.907 24.204 110.161C24.204 111.415 23.9693 112.39 23.5 113.087C23.0307 113.784 22.2973 114.132 21.3 114.132ZM21.3 112.977C21.828 112.977 22.1983 112.79 22.411 112.416C22.631 112.035 22.741 111.51 22.741 110.843V109.479C22.741 108.812 22.631 108.291 22.411 107.917C22.1983 107.536 21.828 107.345 21.3 107.345C20.772 107.345 20.398 107.536 20.178 107.917C19.9653 108.291 19.859 108.812 19.859 109.479V110.843C19.859 111.51 19.9653 112.035 20.178 112.416C20.398 112.79 20.772 112.977 21.3 112.977ZM21.3 110.81C21.0433 110.81 20.8637 110.759 20.761 110.656C20.6657 110.553 20.618 110.429 20.618 110.282V110.04C20.618 109.893 20.6657 109.769 20.761 109.666C20.8637 109.563 21.0433 109.512 21.3 109.512C21.5567 109.512 21.7327 109.563 21.828 109.666C21.9307 109.769 21.982 109.893 21.982 110.04V110.282C21.982 110.429 21.9307 110.553 21.828 110.656C21.7327 110.759 21.5567 110.81 21.3 110.81ZM27.8957 114.132C27.397 114.132 26.9644 114.044 26.5977 113.868C26.231 113.685 25.9267 113.424 25.6847 113.087C25.45 112.75 25.274 112.335 25.1567 111.844C25.0467 111.353 24.9917 110.792 24.9917 110.161C24.9917 109.538 25.0467 108.98 25.1567 108.489C25.274 107.99 25.45 107.572 25.6847 107.235C25.9267 106.898 26.231 106.641 26.5977 106.465C26.9644 106.282 27.397 106.19 27.8957 106.19C28.893 106.19 29.6264 106.538 30.0957 107.235C30.565 107.932 30.7997 108.907 30.7997 110.161C30.7997 111.415 30.565 112.39 30.0957 113.087C29.6264 113.784 28.893 114.132 27.8957 114.132ZM27.8957 112.977C28.4237 112.977 28.794 112.79 29.0067 112.416C29.2267 112.035 29.3367 111.51 29.3367 110.843V109.479C29.3367 108.812 29.2267 108.291 29.0067 107.917C28.794 107.536 28.4237 107.345 27.8957 107.345C27.3677 107.345 26.9937 107.536 26.7737 107.917C26.561 108.291 26.4547 108.812 26.4547 109.479V110.843C26.4547 111.51 26.561 112.035 26.7737 112.416C26.9937 112.79 27.3677 112.977 27.8957 112.977ZM27.8957 110.81C27.639 110.81 27.4594 110.759 27.3567 110.656C27.2614 110.553 27.2137 110.429 27.2137 110.282V110.04C27.2137 109.893 27.2614 109.769 27.3567 109.666C27.4594 109.563 27.639 109.512 27.8957 109.512C28.1524 109.512 28.3284 109.563 28.4237 109.666C28.5264 109.769 28.5777 109.893 28.5777 110.04V110.282C28.5777 110.429 28.5264 110.553 28.4237 110.656C28.3284 110.759 28.1524 110.81 27.8957 110.81ZM34.4914 114.132C33.9927 114.132 33.5601 114.044 33.1934 113.868C32.8267 113.685 32.5224 113.424 32.2804 113.087C32.0457 112.75 31.8697 112.335 31.7524 111.844C31.6424 111.353 31.5874 110.792 31.5874 110.161C31.5874 109.538 31.6424 108.98 31.7524 108.489C31.8697 107.99 32.0457 107.572 32.2804 107.235C32.5224 106.898 32.8267 106.641 33.1934 106.465C33.5601 106.282 33.9927 106.19 34.4914 106.19C35.4887 106.19 36.2221 106.538 36.6914 107.235C37.1607 107.932 37.3954 108.907 37.3954 110.161C37.3954 111.415 37.1607 112.39 36.6914 113.087C36.2221 113.784 35.4887 114.132 34.4914 114.132ZM34.4914 112.977C35.0194 112.977 35.3897 112.79 35.6024 112.416C35.8224 112.035 35.9324 111.51 35.9324 110.843V109.479C35.9324 108.812 35.8224 108.291 35.6024 107.917C35.3897 107.536 35.0194 107.345 34.4914 107.345C33.9634 107.345 33.5894 107.536 33.3694 107.917C33.1567 108.291 33.0504 108.812 33.0504 109.479V110.843C33.0504 111.51 33.1567 112.035 33.3694 112.416C33.5894 112.79 33.9634 112.977 34.4914 112.977ZM34.4914 110.81C34.2347 110.81 34.0551 110.759 33.9524 110.656C33.8571 110.553 33.8094 110.429 33.8094 110.282V110.04C33.8094 109.893 33.8571 109.769 33.9524 109.666C34.0551 109.563 34.2347 109.512 34.4914 109.512C34.7481 109.512 34.9241 109.563 35.0194 109.666C35.1221 109.769 35.1734 109.893 35.1734 110.04V110.282C35.1734 110.429 35.1221 110.553 35.0194 110.656C34.9241 110.759 34.7481 110.81 34.4914 110.81ZM41.0871 114.132C40.5884 114.132 40.1558 114.044 39.7891 113.868C39.4224 113.685 39.1181 113.424 38.8761 113.087C38.6414 112.75 38.4654 112.335 38.3481 111.844C38.2381 111.353 38.1831 110.792 38.1831 110.161C38.1831 109.538 38.2381 108.98 38.3481 108.489C38.4654 107.99 38.6414 107.572 38.8761 107.235C39.1181 106.898 39.4224 106.641 39.7891 106.465C40.1558 106.282 40.5884 106.19 41.0871 106.19C42.0844 106.19 42.8178 106.538 43.2871 107.235C43.7564 107.932 43.9911 108.907 43.9911 110.161C43.9911 111.415 43.7564 112.39 43.2871 113.087C42.8178 113.784 42.0844 114.132 41.0871 114.132ZM41.0871 112.977C41.6151 112.977 41.9854 112.79 42.1981 112.416C42.4181 112.035 42.5281 111.51 42.5281 110.843V109.479C42.5281 108.812 42.4181 108.291 42.1981 107.917C41.9854 107.536 41.6151 107.345 41.0871 107.345C40.5591 107.345 40.1851 107.536 39.9651 107.917C39.7524 108.291 39.6461 108.812 39.6461 109.479V110.843C39.6461 111.51 39.7524 112.035 39.9651 112.416C40.1851 112.79 40.5591 112.977 41.0871 112.977ZM41.0871 110.81C40.8304 110.81 40.6508 110.759 40.5481 110.656C40.4528 110.553 40.4051 110.429 40.4051 110.282V110.04C40.4051 109.893 40.4528 109.769 40.5481 109.666C40.6508 109.563 40.8304 109.512 41.0871 109.512C41.3438 109.512 41.5198 109.563 41.6151 109.666C41.7178 109.769 41.7691 109.893 41.7691 110.04V110.282C41.7691 110.429 41.7178 110.553 41.6151 110.656C41.5198 110.759 41.3438 110.81 41.0871 110.81ZM60.8742 114.132C60.3756 114.132 59.9429 114.044 59.5762 113.868C59.2096 113.685 58.9052 113.424 58.6632 113.087C58.4286 112.75 58.2526 112.335 58.1352 111.844C58.0252 111.353 57.9702 110.792 57.9702 110.161C57.9702 109.538 58.0252 108.98 58.1352 108.489C58.2526 107.99 58.4286 107.572 58.6632 107.235C58.9052 106.898 59.2096 106.641 59.5762 106.465C59.9429 106.282 60.3756 106.19 60.8742 106.19C61.8716 106.19 62.6049 106.538 63.0742 107.235C63.5436 107.932 63.7782 108.907 63.7782 110.161C63.7782 111.415 63.5436 112.39 63.0742 113.087C62.6049 113.784 61.8716 114.132 60.8742 114.132ZM60.8742 112.977C61.4022 112.977 61.7726 112.79 61.9852 112.416C62.2052 112.035 62.3152 111.51 62.3152 110.843V109.479C62.3152 108.812 62.2052 108.291 61.9852 107.917C61.7726 107.536 61.4022 107.345 60.8742 107.345C60.3462 107.345 59.9722 107.536 59.7522 107.917C59.5396 108.291 59.4332 108.812 59.4332 109.479V110.843C59.4332 111.51 59.5396 112.035 59.7522 112.416C59.9722 112.79 60.3462 112.977 60.8742 112.977ZM60.8742 110.81C60.6176 110.81 60.4379 110.759 60.3352 110.656C60.2399 110.553 60.1922 110.429 60.1922 110.282V110.04C60.1922 109.893 60.2399 109.769 60.3352 109.666C60.4379 109.563 60.6176 109.512 60.8742 109.512C61.1309 109.512 61.3069 109.563 61.4022 109.666C61.5049 109.769 61.5562 109.893 61.5562 110.04V110.282C61.5562 110.429 61.5049 110.553 61.4022 110.656C61.3069 110.759 61.1309 110.81 60.8742 110.81ZM67.4699 114.132C66.9713 114.132 66.5386 114.044 66.1719 113.868C65.8053 113.685 65.5009 113.424 65.2589 113.087C65.0243 112.75 64.8483 112.335 64.7309 111.844C64.6209 111.353 64.5659 110.792 64.5659 110.161C64.5659 109.538 64.6209 108.98 64.7309 108.489C64.8483 107.99 65.0243 107.572 65.2589 107.235C65.5009 106.898 65.8053 106.641 66.1719 106.465C66.5386 106.282 66.9713 106.19 67.4699 106.19C68.4673 106.19 69.2006 106.538 69.6699 107.235C70.1393 107.932 70.3739 108.907 70.3739 110.161C70.3739 111.415 70.1393 112.39 69.6699 113.087C69.2006 113.784 68.4673 114.132 67.4699 114.132ZM67.4699 112.977C67.9979 112.977 68.3683 112.79 68.5809 112.416C68.8009 112.035 68.9109 111.51 68.9109 110.843V109.479C68.9109 108.812 68.8009 108.291 68.5809 107.917C68.3683 107.536 67.9979 107.345 67.4699 107.345C66.9419 107.345 66.5679 107.536 66.3479 107.917C66.1353 108.291 66.0289 108.812 66.0289 109.479V110.843C66.0289 111.51 66.1353 112.035 66.3479 112.416C66.5679 112.79 66.9419 112.977 67.4699 112.977ZM67.4699 110.81C67.2133 110.81 67.0336 110.759 66.9309 110.656C66.8356 110.553 66.7879 110.429 66.7879 110.282V110.04C66.7879 109.893 66.8356 109.769 66.9309 109.666C67.0336 109.563 67.2133 109.512 67.4699 109.512C67.7266 109.512 67.9026 109.563 67.9979 109.666C68.1006 109.769 68.1519 109.893 68.1519 110.04V110.282C68.1519 110.429 68.1006 110.553 67.9979 110.656C67.9026 110.759 67.7266 110.81 67.4699 110.81ZM74.0656 114.132C73.567 114.132 73.1343 114.044 72.7676 113.868C72.401 113.685 72.0966 113.424 71.8546 113.087C71.62 112.75 71.444 112.335 71.3266 111.844C71.2166 111.353 71.1616 110.792 71.1616 110.161C71.1616 109.538 71.2166 108.98 71.3266 108.489C71.444 107.99 71.62 107.572 71.8546 107.235C72.0966 106.898 72.401 106.641 72.7676 106.465C73.1343 106.282 73.567 106.19 74.0656 106.19C75.063 106.19 75.7963 106.538 76.2656 107.235C76.735 107.932 76.9696 108.907 76.9696 110.161C76.9696 111.415 76.735 112.39 76.2656 113.087C75.7963 113.784 75.063 114.132 74.0656 114.132ZM74.0656 112.977C74.5936 112.977 74.964 112.79 75.1766 112.416C75.3966 112.035 75.5066 111.51 75.5066 110.843V109.479C75.5066 108.812 75.3966 108.291 75.1766 107.917C74.964 107.536 74.5936 107.345 74.0656 107.345C73.5376 107.345 73.1636 107.536 72.9436 107.917C72.731 108.291 72.6246 108.812 72.6246 109.479V110.843C72.6246 111.51 72.731 112.035 72.9436 112.416C73.1636 112.79 73.5376 112.977 74.0656 112.977ZM74.0656 110.81C73.809 110.81 73.6293 110.759 73.5266 110.656C73.4313 110.553 73.3836 110.429 73.3836 110.282V110.04C73.3836 109.893 73.4313 109.769 73.5266 109.666C73.6293 109.563 73.809 109.512 74.0656 109.512C74.3223 109.512 74.4983 109.563 74.5936 109.666C74.6963 109.769 74.7476 109.893 74.7476 110.04V110.282C74.7476 110.429 74.6963 110.553 74.5936 110.656C74.4983 110.759 74.3223 110.81 74.0656 110.81ZM80.6613 114.132C80.1627 114.132 79.73 114.044 79.3633 113.868C78.9967 113.685 78.6923 113.424 78.4503 113.087C78.2157 112.75 78.0397 112.335 77.9223 111.844C77.8123 111.353 77.7573 110.792 77.7573 110.161C77.7573 109.538 77.8123 108.98 77.9223 108.489C78.0397 107.99 78.2157 107.572 78.4503 107.235C78.6923 106.898 78.9967 106.641 79.3633 106.465C79.73 106.282 80.1627 106.19 80.6613 106.19C81.6587 106.19 82.392 106.538 82.8613 107.235C83.3307 107.932 83.5653 108.907 83.5653 110.161C83.5653 111.415 83.3307 112.39 82.8613 113.087C82.392 113.784 81.6587 114.132 80.6613 114.132ZM80.6613 112.977C81.1893 112.977 81.5597 112.79 81.7723 112.416C81.9923 112.035 82.1023 111.51 82.1023 110.843V109.479C82.1023 108.812 81.9923 108.291 81.7723 107.917C81.5597 107.536 81.1893 107.345 80.6613 107.345C80.1333 107.345 79.7593 107.536 79.5393 107.917C79.3267 108.291 79.2203 108.812 79.2203 109.479V110.843C79.2203 111.51 79.3267 112.035 79.5393 112.416C79.7593 112.79 80.1333 112.977 80.6613 112.977ZM80.6613 110.81C80.4047 110.81 80.225 110.759 80.1223 110.656C80.027 110.553 79.9793 110.429 79.9793 110.282V110.04C79.9793 109.893 80.027 109.769 80.1223 109.666C80.225 109.563 80.4047 109.512 80.6613 109.512C80.918 109.512 81.094 109.563 81.1893 109.666C81.292 109.769 81.3433 109.893 81.3433 110.04V110.282C81.3433 110.429 81.292 110.553 81.1893 110.656C81.094 110.759 80.918 110.81 80.6613 110.81ZM100.448 114.132C99.9498 114.132 99.5171 114.044 99.1504 113.868C98.7838 113.685 98.4794 113.424 98.2374 113.087C98.0028 112.75 97.8268 112.335 97.7094 111.844C97.5994 111.353 97.5444 110.792 97.5444 110.161C97.5444 109.538 97.5994 108.98 97.7094 108.489C97.8268 107.99 98.0028 107.572 98.2374 107.235C98.4794 106.898 98.7838 106.641 99.1504 106.465C99.5171 106.282 99.9498 106.19 100.448 106.19C101.446 106.19 102.179 106.538 102.648 107.235C103.118 107.932 103.352 108.907 103.352 110.161C103.352 111.415 103.118 112.39 102.648 113.087C102.179 113.784 101.446 114.132 100.448 114.132ZM100.448 112.977C100.976 112.977 101.347 112.79 101.559 112.416C101.779 112.035 101.889 111.51 101.889 110.843V109.479C101.889 108.812 101.779 108.291 101.559 107.917C101.347 107.536 100.976 107.345 100.448 107.345C99.9204 107.345 99.5464 107.536 99.3264 107.917C99.1138 108.291 99.0074 108.812 99.0074 109.479V110.843C99.0074 111.51 99.1138 112.035 99.3264 112.416C99.5464 112.79 99.9204 112.977 100.448 112.977ZM100.448 110.81C100.192 110.81 100.012 110.759 99.9094 110.656C99.8141 110.553 99.7664 110.429 99.7664 110.282V110.04C99.7664 109.893 99.8141 109.769 99.9094 109.666C100.012 109.563 100.192 109.512 100.448 109.512C100.705 109.512 100.881 109.563 100.976 109.666C101.079 109.769 101.13 109.893 101.13 110.04V110.282C101.13 110.429 101.079 110.553 100.976 110.656C100.881 110.759 100.705 110.81 100.448 110.81ZM107.044 114.132C106.545 114.132 106.113 114.044 105.746 113.868C105.379 113.685 105.075 113.424 104.833 113.087C104.598 112.75 104.422 112.335 104.305 111.844C104.195 111.353 104.14 110.792 104.14 110.161C104.14 109.538 104.195 108.98 104.305 108.489C104.422 107.99 104.598 107.572 104.833 107.235C105.075 106.898 105.379 106.641 105.746 106.465C106.113 106.282 106.545 106.19 107.044 106.19C108.041 106.19 108.775 106.538 109.244 107.235C109.713 107.932 109.948 108.907 109.948 110.161C109.948 111.415 109.713 112.39 109.244 113.087C108.775 113.784 108.041 114.132 107.044 114.132ZM107.044 112.977C107.572 112.977 107.942 112.79 108.155 112.416C108.375 112.035 108.485 111.51 108.485 110.843V109.479C108.485 108.812 108.375 108.291 108.155 107.917C107.942 107.536 107.572 107.345 107.044 107.345C106.516 107.345 106.142 107.536 105.922 107.917C105.709 108.291 105.603 108.812 105.603 109.479V110.843C105.603 111.51 105.709 112.035 105.922 112.416C106.142 112.79 106.516 112.977 107.044 112.977ZM107.044 110.81C106.787 110.81 106.608 110.759 106.505 110.656C106.41 110.553 106.362 110.429 106.362 110.282V110.04C106.362 109.893 106.41 109.769 106.505 109.666C106.608 109.563 106.787 109.512 107.044 109.512C107.301 109.512 107.477 109.563 107.572 109.666C107.675 109.769 107.726 109.893 107.726 110.04V110.282C107.726 110.429 107.675 110.553 107.572 110.656C107.477 110.759 107.301 110.81 107.044 110.81ZM113.64 114.132C113.141 114.132 112.709 114.044 112.342 113.868C111.975 113.685 111.671 113.424 111.429 113.087C111.194 112.75 111.018 112.335 110.901 111.844C110.791 111.353 110.736 110.792 110.736 110.161C110.736 109.538 110.791 108.98 110.901 108.489C111.018 107.99 111.194 107.572 111.429 107.235C111.671 106.898 111.975 106.641 112.342 106.465C112.709 106.282 113.141 106.19 113.64 106.19C114.637 106.19 115.371 106.538 115.84 107.235C116.309 107.932 116.544 108.907 116.544 110.161C116.544 111.415 116.309 112.39 115.84 113.087C115.371 113.784 114.637 114.132 113.64 114.132ZM113.64 112.977C114.168 112.977 114.538 112.79 114.751 112.416C114.971 112.035 115.081 111.51 115.081 110.843V109.479C115.081 108.812 114.971 108.291 114.751 107.917C114.538 107.536 114.168 107.345 113.64 107.345C113.112 107.345 112.738 107.536 112.518 107.917C112.305 108.291 112.199 108.812 112.199 109.479V110.843C112.199 111.51 112.305 112.035 112.518 112.416C112.738 112.79 113.112 112.977 113.64 112.977ZM113.64 110.81C113.383 110.81 113.204 110.759 113.101 110.656C113.006 110.553 112.958 110.429 112.958 110.282V110.04C112.958 109.893 113.006 109.769 113.101 109.666C113.204 109.563 113.383 109.512 113.64 109.512C113.897 109.512 114.073 109.563 114.168 109.666C114.271 109.769 114.322 109.893 114.322 110.04V110.282C114.322 110.429 114.271 110.553 114.168 110.656C114.073 110.759 113.897 110.81 113.64 110.81ZM120.236 114.132C119.737 114.132 119.304 114.044 118.938 113.868C118.571 113.685 118.267 113.424 118.025 113.087C117.79 112.75 117.614 112.335 117.497 111.844C117.387 111.353 117.332 110.792 117.332 110.161C117.332 109.538 117.387 108.98 117.497 108.489C117.614 107.99 117.79 107.572 118.025 107.235C118.267 106.898 118.571 106.641 118.938 106.465C119.304 106.282 119.737 106.19 120.236 106.19C121.233 106.19 121.966 106.538 122.436 107.235C122.905 107.932 123.14 108.907 123.14 110.161C123.14 111.415 122.905 112.39 122.436 113.087C121.966 113.784 121.233 114.132 120.236 114.132ZM120.236 112.977C120.764 112.977 121.134 112.79 121.347 112.416C121.567 112.035 121.677 111.51 121.677 110.843V109.479C121.677 108.812 121.567 108.291 121.347 107.917C121.134 107.536 120.764 107.345 120.236 107.345C119.708 107.345 119.334 107.536 119.114 107.917C118.901 108.291 118.795 108.812 118.795 109.479V110.843C118.795 111.51 118.901 112.035 119.114 112.416C119.334 112.79 119.708 112.977 120.236 112.977ZM120.236 110.81C119.979 110.81 119.799 110.759 119.697 110.656C119.601 110.553 119.554 110.429 119.554 110.282V110.04C119.554 109.893 119.601 109.769 119.697 109.666C119.799 109.563 119.979 109.512 120.236 109.512C120.492 109.512 120.668 109.563 120.764 109.666C120.866 109.769 120.918 109.893 120.918 110.04V110.282C120.918 110.429 120.866 110.553 120.764 110.656C120.668 110.759 120.492 110.81 120.236 110.81ZM140.023 114.132C139.524 114.132 139.091 114.044 138.725 113.868C138.358 113.685 138.054 113.424 137.812 113.087C137.577 112.75 137.401 112.335 137.284 111.844C137.174 111.353 137.119 110.792 137.119 110.161C137.119 109.538 137.174 108.98 137.284 108.489C137.401 107.99 137.577 107.572 137.812 107.235C138.054 106.898 138.358 106.641 138.725 106.465C139.091 106.282 139.524 106.19 140.023 106.19C141.02 106.19 141.753 106.538 142.223 107.235C142.692 107.932 142.927 108.907 142.927 110.161C142.927 111.415 142.692 112.39 142.223 113.087C141.753 113.784 141.02 114.132 140.023 114.132ZM140.023 112.977C140.551 112.977 140.921 112.79 141.134 112.416C141.354 112.035 141.464 111.51 141.464 110.843V109.479C141.464 108.812 141.354 108.291 141.134 107.917C140.921 107.536 140.551 107.345 140.023 107.345C139.495 107.345 139.121 107.536 138.901 107.917C138.688 108.291 138.582 108.812 138.582 109.479V110.843C138.582 111.51 138.688 112.035 138.901 112.416C139.121 112.79 139.495 112.977 140.023 112.977ZM140.023 110.81C139.766 110.81 139.586 110.759 139.484 110.656C139.388 110.553 139.341 110.429 139.341 110.282V110.04C139.341 109.893 139.388 109.769 139.484 109.666C139.586 109.563 139.766 109.512 140.023 109.512C140.279 109.512 140.455 109.563 140.551 109.666C140.653 109.769 140.705 109.893 140.705 110.04V110.282C140.705 110.429 140.653 110.553 140.551 110.656C140.455 110.759 140.279 110.81 140.023 110.81ZM146.618 114.132C146.12 114.132 145.687 114.044 145.32 113.868C144.954 113.685 144.649 113.424 144.407 113.087C144.173 112.75 143.997 112.335 143.879 111.844C143.769 111.353 143.714 110.792 143.714 110.161C143.714 109.538 143.769 108.98 143.879 108.489C143.997 107.99 144.173 107.572 144.407 107.235C144.649 106.898 144.954 106.641 145.32 106.465C145.687 106.282 146.12 106.19 146.618 106.19C147.616 106.19 148.349 106.538 148.818 107.235C149.288 107.932 149.522 108.907 149.522 110.161C149.522 111.415 149.288 112.39 148.818 113.087C148.349 113.784 147.616 114.132 146.618 114.132ZM146.618 112.977C147.146 112.977 147.517 112.79 147.729 112.416C147.949 112.035 148.059 111.51 148.059 110.843V109.479C148.059 108.812 147.949 108.291 147.729 107.917C147.517 107.536 147.146 107.345 146.618 107.345C146.09 107.345 145.716 107.536 145.496 107.917C145.284 108.291 145.177 108.812 145.177 109.479V110.843C145.177 111.51 145.284 112.035 145.496 112.416C145.716 112.79 146.09 112.977 146.618 112.977ZM146.618 110.81C146.362 110.81 146.182 110.759 146.079 110.656C145.984 110.553 145.936 110.429 145.936 110.282V110.04C145.936 109.893 145.984 109.769 146.079 109.666C146.182 109.563 146.362 109.512 146.618 109.512C146.875 109.512 147.051 109.563 147.146 109.666C147.249 109.769 147.3 109.893 147.3 110.04V110.282C147.3 110.429 147.249 110.553 147.146 110.656C147.051 110.759 146.875 110.81 146.618 110.81ZM153.214 114.132C152.715 114.132 152.283 114.044 151.916 113.868C151.549 113.685 151.245 113.424 151.003 113.087C150.768 112.75 150.592 112.335 150.475 111.844C150.365 111.353 150.31 110.792 150.31 110.161C150.31 109.538 150.365 108.98 150.475 108.489C150.592 107.99 150.768 107.572 151.003 107.235C151.245 106.898 151.549 106.641 151.916 106.465C152.283 106.282 152.715 106.19 153.214 106.19C154.211 106.19 154.945 106.538 155.414 107.235C155.883 107.932 156.118 108.907 156.118 110.161C156.118 111.415 155.883 112.39 155.414 113.087C154.945 113.784 154.211 114.132 153.214 114.132ZM153.214 112.977C153.742 112.977 154.112 112.79 154.325 112.416C154.545 112.035 154.655 111.51 154.655 110.843V109.479C154.655 108.812 154.545 108.291 154.325 107.917C154.112 107.536 153.742 107.345 153.214 107.345C152.686 107.345 152.312 107.536 152.092 107.917C151.879 108.291 151.773 108.812 151.773 109.479V110.843C151.773 111.51 151.879 112.035 152.092 112.416C152.312 112.79 152.686 112.977 153.214 112.977ZM153.214 110.81C152.957 110.81 152.778 110.759 152.675 110.656C152.58 110.553 152.532 110.429 152.532 110.282V110.04C152.532 109.893 152.58 109.769 152.675 109.666C152.778 109.563 152.957 109.512 153.214 109.512C153.471 109.512 153.647 109.563 153.742 109.666C153.845 109.769 153.896 109.893 153.896 110.04V110.282C153.896 110.429 153.845 110.553 153.742 110.656C153.647 110.759 153.471 110.81 153.214 110.81ZM159.81 114.132C159.311 114.132 158.878 114.044 158.512 113.868C158.145 113.685 157.841 113.424 157.599 113.087C157.364 112.75 157.188 112.335 157.071 111.844C156.961 111.353 156.906 110.792 156.906 110.161C156.906 109.538 156.961 108.98 157.071 108.489C157.188 107.99 157.364 107.572 157.599 107.235C157.841 106.898 158.145 106.641 158.512 106.465C158.878 106.282 159.311 106.19 159.81 106.19C160.807 106.19 161.54 106.538 162.01 107.235C162.479 107.932 162.714 108.907 162.714 110.161C162.714 111.415 162.479 112.39 162.01 113.087C161.54 113.784 160.807 114.132 159.81 114.132ZM159.81 112.977C160.338 112.977 160.708 112.79 160.921 112.416C161.141 112.035 161.251 111.51 161.251 110.843V109.479C161.251 108.812 161.141 108.291 160.921 107.917C160.708 107.536 160.338 107.345 159.81 107.345C159.282 107.345 158.908 107.536 158.688 107.917C158.475 108.291 158.369 108.812 158.369 109.479V110.843C158.369 111.51 158.475 112.035 158.688 112.416C158.908 112.79 159.282 112.977 159.81 112.977ZM159.81 110.81C159.553 110.81 159.373 110.759 159.271 110.656C159.175 110.553 159.128 110.429 159.128 110.282V110.04C159.128 109.893 159.175 109.769 159.271 109.666C159.373 109.563 159.553 109.512 159.81 109.512C160.066 109.512 160.242 109.563 160.338 109.666C160.44 109.769 160.492 109.893 160.492 110.04V110.282C160.492 110.429 160.44 110.553 160.338 110.656C160.242 110.759 160.066 110.81 159.81 110.81Z" fill="white"/>
</g>
<defs>
<filter id="filter0_b_101_364" x="-58.7463" y="-58.7463" width="363.493" height="250.493" filterUnits="userSpaceOnUse" color-interpolation-filters="sRGB">
<feFlood flood-opacity="0" result="BackgroundImageFix"/>
<feGaussianBlur in="BackgroundImage" stdDeviation="29.3731"/>
<feComposite in2="SourceAlpha" operator="in" result="effect1_backgroundBlur_101_364"/>
<feBlend mode="normal" in="SourceGraphic" in2="effect1_backgroundBlur_101_364" result="shape"/>
</filter>
<linearGradient id="paint0_linear_101_364" x1="-63.5194" y1="-26.6" x2="421.708" y2="234.589" gradientUnits="userSpaceOnUse">
<stop stop-color="#A6A8AA"/>
<stop offset="1" stop-color="#A6A8AA"/>
</linearGradient>
<clipPath id="clip0_101_364">
<rect width="246" height="133" fill="white"/>
</clipPath>
</defs>
</svg>
