<svg width="247" height="133" viewBox="0 0 247 133" fill="none" xmlns="http://www.w3.org/2000/svg">
<rect width="246.27" height="133" rx="14.7027" fill="#1AAD6C"/>
<g filter="url(#filter0_b_101_187)">
<rect width="246.27" height="133" rx="14.7027" fill="white" fill-opacity="0.03"/>
</g>
<path fill-rule="evenodd" clip-rule="evenodd" d="M98.4064 41.5849C108.635 64.9124 118.462 87.3247 163.61 86.1205C205.037 85.0156 231.313 89.0995 246.27 96.1611V118.297C246.27 126.417 239.688 133 231.568 133H14.7027C6.58261 133 0 126.417 0 118.297V14.7027C0 6.58263 6.58262 0 14.7027 0H66.0104C84.3765 9.58846 91.4834 25.7963 98.4064 41.5849Z" fill="white" fill-opacity="0.08"/>
<path fill-rule="evenodd" clip-rule="evenodd" d="M12.6616 0.140295C5.50759 1.13387 0 7.27499 0 14.7025V118.297C0 126.417 6.58261 133 14.7027 133H231.568C237.278 133 242.229 129.744 244.663 124.987C250.118 105.147 227.835 88.5361 151.07 90.5835C107.96 91.7333 98.5756 70.3323 88.8085 48.0574C78.2476 23.9722 67.2387 -1.13459 12.6616 0.140295Z" fill="white" fill-opacity="0.08"/>
<path opacity="0.9" d="M21.356 27.154C20.1167 27.154 19.1707 26.8093 18.518 26.12C17.8727 25.4307 17.55 24.4517 17.55 23.183C17.55 22.5523 17.649 21.9913 17.847 21.5C18.045 21.0013 18.3163 20.5833 18.661 20.246C19.0057 19.9013 19.4163 19.641 19.893 19.465C20.3697 19.289 20.8867 19.201 21.444 19.201C21.7667 19.201 22.06 19.2267 22.324 19.278C22.588 19.322 22.819 19.377 23.017 19.443C23.215 19.5017 23.38 19.564 23.512 19.63C23.644 19.696 23.7393 19.7473 23.798 19.784L23.303 21.17C23.0683 21.0453 22.7933 20.939 22.478 20.851C22.17 20.763 21.818 20.719 21.422 20.719C21.158 20.719 20.8977 20.763 20.641 20.851C20.3917 20.939 20.168 21.082 19.97 21.28C19.7793 21.4707 19.6253 21.72 19.508 22.028C19.3907 22.336 19.332 22.71 19.332 23.15C19.332 23.502 19.3687 23.832 19.442 24.14C19.5227 24.4407 19.6473 24.701 19.816 24.921C19.992 25.141 20.2193 25.317 20.498 25.449C20.7767 25.5737 21.114 25.636 21.51 25.636C21.7593 25.636 21.983 25.6213 22.181 25.592C22.379 25.5627 22.555 25.5297 22.709 25.493C22.863 25.449 22.9987 25.4013 23.116 25.35C23.2333 25.2987 23.3397 25.251 23.435 25.207L23.908 26.582C23.666 26.7287 23.325 26.8607 22.885 26.978C22.445 27.0953 21.9353 27.154 21.356 27.154ZM28.3898 22.666C28.2431 22.6293 28.0708 22.5927 27.8728 22.556C27.6748 22.512 27.4621 22.49 27.2348 22.49C27.1321 22.49 27.0075 22.501 26.8608 22.523C26.7215 22.5377 26.6151 22.556 26.5418 22.578V27H24.9028V21.522C25.1961 21.4193 25.5408 21.324 25.9368 21.236C26.3401 21.1407 26.7875 21.093 27.2788 21.093C27.3668 21.093 27.4731 21.1003 27.5978 21.115C27.7225 21.1223 27.8471 21.137 27.9718 21.159C28.0965 21.1737 28.2211 21.1957 28.3458 21.225C28.4705 21.247 28.5768 21.2763 28.6648 21.313L28.3898 22.666ZM29.161 24.151C29.161 23.6377 29.238 23.1903 29.392 22.809C29.5533 22.4203 29.7623 22.0977 30.019 21.841C30.2757 21.5843 30.569 21.39 30.899 21.258C31.2363 21.126 31.581 21.06 31.933 21.06C32.7543 21.06 33.4033 21.313 33.88 21.819C34.3567 22.3177 34.595 23.0547 34.595 24.03C34.595 24.1253 34.5913 24.2317 34.584 24.349C34.5767 24.459 34.5693 24.558 34.562 24.646H30.844C30.8807 24.9833 31.0383 25.251 31.317 25.449C31.5957 25.647 31.9697 25.746 32.439 25.746C32.7397 25.746 33.033 25.7203 33.319 25.669C33.6123 25.6103 33.8507 25.5407 34.034 25.46L34.254 26.791C34.166 26.835 34.0487 26.879 33.902 26.923C33.7553 26.967 33.5903 27.0037 33.407 27.033C33.231 27.0697 33.0403 27.099 32.835 27.121C32.6297 27.143 32.4243 27.154 32.219 27.154C31.6983 27.154 31.2437 27.077 30.855 26.923C30.4737 26.769 30.1547 26.56 29.898 26.296C29.6487 26.0247 29.4617 25.7057 29.337 25.339C29.2197 24.9723 29.161 24.5763 29.161 24.151ZM33.011 23.524C33.0037 23.3847 32.978 23.249 32.934 23.117C32.8973 22.985 32.835 22.8677 32.747 22.765C32.6663 22.6623 32.56 22.578 32.428 22.512C32.3033 22.446 32.1457 22.413 31.955 22.413C31.7717 22.413 31.614 22.446 31.482 22.512C31.35 22.5707 31.24 22.6513 31.152 22.754C31.064 22.8567 30.9943 22.9777 30.943 23.117C30.899 23.249 30.866 23.3847 30.844 23.524H33.011ZM37.2568 24.063C37.2568 24.569 37.3705 24.976 37.5978 25.284C37.8252 25.592 38.1625 25.746 38.6098 25.746C38.7565 25.746 38.8922 25.7423 39.0168 25.735C39.1415 25.7203 39.2442 25.7057 39.3248 25.691V22.71C39.2222 22.644 39.0865 22.589 38.9178 22.545C38.7565 22.501 38.5915 22.479 38.4228 22.479C37.6455 22.479 37.2568 23.007 37.2568 24.063ZM40.9638 26.813C40.8172 26.857 40.6485 26.901 40.4578 26.945C40.2672 26.9817 40.0655 27.0147 39.8528 27.044C39.6475 27.0733 39.4348 27.0953 39.2148 27.11C39.0022 27.132 38.7968 27.143 38.5988 27.143C38.1222 27.143 37.6968 27.0733 37.3228 26.934C36.9488 26.7947 36.6335 26.5967 36.3768 26.34C36.1202 26.076 35.9222 25.7607 35.7828 25.394C35.6508 25.02 35.5848 24.602 35.5848 24.14C35.5848 23.6707 35.6435 23.249 35.7608 22.875C35.8782 22.4937 36.0468 22.171 36.2668 21.907C36.4868 21.643 36.7545 21.4413 37.0698 21.302C37.3925 21.1627 37.7592 21.093 38.1698 21.093C38.3972 21.093 38.5988 21.115 38.7748 21.159C38.9582 21.203 39.1415 21.2653 39.3248 21.346V18.728L40.9638 18.464V26.813ZM44.1375 27H42.4985V21.214H44.1375V27ZM44.2915 19.542C44.2915 19.8427 44.1925 20.081 43.9945 20.257C43.8038 20.4257 43.5765 20.51 43.3125 20.51C43.0485 20.51 42.8175 20.4257 42.6195 20.257C42.4288 20.081 42.3335 19.8427 42.3335 19.542C42.3335 19.2413 42.4288 19.0067 42.6195 18.838C42.8175 18.662 43.0485 18.574 43.3125 18.574C43.5765 18.574 43.8038 18.662 43.9945 18.838C44.1925 19.0067 44.2915 19.2413 44.2915 19.542ZM45.6232 19.773L47.2622 19.509V21.214H49.2312V22.578H47.2622V24.613C47.2622 24.9577 47.3209 25.2327 47.4382 25.438C47.5629 25.6433 47.8085 25.746 48.1752 25.746C48.3512 25.746 48.5309 25.7313 48.7142 25.702C48.9049 25.6653 49.0772 25.6177 49.2312 25.559L49.4622 26.835C49.2642 26.9157 49.0442 26.9853 48.8022 27.044C48.5602 27.1027 48.2632 27.132 47.9112 27.132C47.4639 27.132 47.0935 27.0733 46.8002 26.956C46.5069 26.8313 46.2722 26.6627 46.0962 26.45C45.9202 26.23 45.7955 25.966 45.7222 25.658C45.6562 25.35 45.6232 25.009 45.6232 24.635V19.773Z" fill="white"/>
<ellipse cx="205.625" cy="20.9585" rx="10.625" ry="10.625" fill="#EB001B"/>
<ellipse cx="218.375" cy="20.9585" rx="10.625" ry="10.625" fill="#F79E1B"/>
<path fill-rule="evenodd" clip-rule="evenodd" d="M212 12.4585C214.933 14.1551 216.907 17.3264 216.907 20.9586C216.907 24.5907 214.933 27.762 212 29.4586C209.067 27.762 207.094 24.5907 207.094 20.9586C207.094 17.3264 209.067 14.1552 212 12.4585Z" fill="#FF5F00"/>
<path d="M21.3 115.132C20.8013 115.132 20.3687 115.044 20.002 114.868C19.6353 114.685 19.331 114.424 19.089 114.087C18.8543 113.75 18.6783 113.335 18.561 112.844C18.451 112.353 18.396 111.792 18.396 111.161C18.396 110.538 18.451 109.98 18.561 109.489C18.6783 108.99 18.8543 108.572 19.089 108.235C19.331 107.898 19.6353 107.641 20.002 107.465C20.3687 107.282 20.8013 107.19 21.3 107.19C22.2973 107.19 23.0307 107.538 23.5 108.235C23.9693 108.932 24.204 109.907 24.204 111.161C24.204 112.415 23.9693 113.39 23.5 114.087C23.0307 114.784 22.2973 115.132 21.3 115.132ZM21.3 113.977C21.828 113.977 22.1983 113.79 22.411 113.416C22.631 113.035 22.741 112.51 22.741 111.843V110.479C22.741 109.812 22.631 109.291 22.411 108.917C22.1983 108.536 21.828 108.345 21.3 108.345C20.772 108.345 20.398 108.536 20.178 108.917C19.9653 109.291 19.859 109.812 19.859 110.479V111.843C19.859 112.51 19.9653 113.035 20.178 113.416C20.398 113.79 20.772 113.977 21.3 113.977ZM21.3 111.81C21.0433 111.81 20.8637 111.759 20.761 111.656C20.6657 111.553 20.618 111.429 20.618 111.282V111.04C20.618 110.893 20.6657 110.769 20.761 110.666C20.8637 110.563 21.0433 110.512 21.3 110.512C21.5567 110.512 21.7327 110.563 21.828 110.666C21.9307 110.769 21.982 110.893 21.982 111.04V111.282C21.982 111.429 21.9307 111.553 21.828 111.656C21.7327 111.759 21.5567 111.81 21.3 111.81ZM27.8957 115.132C27.397 115.132 26.9644 115.044 26.5977 114.868C26.231 114.685 25.9267 114.424 25.6847 114.087C25.45 113.75 25.274 113.335 25.1567 112.844C25.0467 112.353 24.9917 111.792 24.9917 111.161C24.9917 110.538 25.0467 109.98 25.1567 109.489C25.274 108.99 25.45 108.572 25.6847 108.235C25.9267 107.898 26.231 107.641 26.5977 107.465C26.9644 107.282 27.397 107.19 27.8957 107.19C28.893 107.19 29.6264 107.538 30.0957 108.235C30.565 108.932 30.7997 109.907 30.7997 111.161C30.7997 112.415 30.565 113.39 30.0957 114.087C29.6264 114.784 28.893 115.132 27.8957 115.132ZM27.8957 113.977C28.4237 113.977 28.794 113.79 29.0067 113.416C29.2267 113.035 29.3367 112.51 29.3367 111.843V110.479C29.3367 109.812 29.2267 109.291 29.0067 108.917C28.794 108.536 28.4237 108.345 27.8957 108.345C27.3677 108.345 26.9937 108.536 26.7737 108.917C26.561 109.291 26.4547 109.812 26.4547 110.479V111.843C26.4547 112.51 26.561 113.035 26.7737 113.416C26.9937 113.79 27.3677 113.977 27.8957 113.977ZM27.8957 111.81C27.639 111.81 27.4594 111.759 27.3567 111.656C27.2614 111.553 27.2137 111.429 27.2137 111.282V111.04C27.2137 110.893 27.2614 110.769 27.3567 110.666C27.4594 110.563 27.639 110.512 27.8957 110.512C28.1524 110.512 28.3284 110.563 28.4237 110.666C28.5264 110.769 28.5777 110.893 28.5777 111.04V111.282C28.5777 111.429 28.5264 111.553 28.4237 111.656C28.3284 111.759 28.1524 111.81 27.8957 111.81ZM34.4914 115.132C33.9927 115.132 33.5601 115.044 33.1934 114.868C32.8267 114.685 32.5224 114.424 32.2804 114.087C32.0457 113.75 31.8697 113.335 31.7524 112.844C31.6424 112.353 31.5874 111.792 31.5874 111.161C31.5874 110.538 31.6424 109.98 31.7524 109.489C31.8697 108.99 32.0457 108.572 32.2804 108.235C32.5224 107.898 32.8267 107.641 33.1934 107.465C33.5601 107.282 33.9927 107.19 34.4914 107.19C35.4887 107.19 36.2221 107.538 36.6914 108.235C37.1607 108.932 37.3954 109.907 37.3954 111.161C37.3954 112.415 37.1607 113.39 36.6914 114.087C36.2221 114.784 35.4887 115.132 34.4914 115.132ZM34.4914 113.977C35.0194 113.977 35.3897 113.79 35.6024 113.416C35.8224 113.035 35.9324 112.51 35.9324 111.843V110.479C35.9324 109.812 35.8224 109.291 35.6024 108.917C35.3897 108.536 35.0194 108.345 34.4914 108.345C33.9634 108.345 33.5894 108.536 33.3694 108.917C33.1567 109.291 33.0504 109.812 33.0504 110.479V111.843C33.0504 112.51 33.1567 113.035 33.3694 113.416C33.5894 113.79 33.9634 113.977 34.4914 113.977ZM34.4914 111.81C34.2347 111.81 34.0551 111.759 33.9524 111.656C33.8571 111.553 33.8094 111.429 33.8094 111.282V111.04C33.8094 110.893 33.8571 110.769 33.9524 110.666C34.0551 110.563 34.2347 110.512 34.4914 110.512C34.7481 110.512 34.9241 110.563 35.0194 110.666C35.1221 110.769 35.1734 110.893 35.1734 111.04V111.282C35.1734 111.429 35.1221 111.553 35.0194 111.656C34.9241 111.759 34.7481 111.81 34.4914 111.81ZM41.0871 115.132C40.5884 115.132 40.1558 115.044 39.7891 114.868C39.4224 114.685 39.1181 114.424 38.8761 114.087C38.6414 113.75 38.4654 113.335 38.3481 112.844C38.2381 112.353 38.1831 111.792 38.1831 111.161C38.1831 110.538 38.2381 109.98 38.3481 109.489C38.4654 108.99 38.6414 108.572 38.8761 108.235C39.1181 107.898 39.4224 107.641 39.7891 107.465C40.1558 107.282 40.5884 107.19 41.0871 107.19C42.0844 107.19 42.8178 107.538 43.2871 108.235C43.7564 108.932 43.9911 109.907 43.9911 111.161C43.9911 112.415 43.7564 113.39 43.2871 114.087C42.8178 114.784 42.0844 115.132 41.0871 115.132ZM41.0871 113.977C41.6151 113.977 41.9854 113.79 42.1981 113.416C42.4181 113.035 42.5281 112.51 42.5281 111.843V110.479C42.5281 109.812 42.4181 109.291 42.1981 108.917C41.9854 108.536 41.6151 108.345 41.0871 108.345C40.5591 108.345 40.1851 108.536 39.9651 108.917C39.7524 109.291 39.6461 109.812 39.6461 110.479V111.843C39.6461 112.51 39.7524 113.035 39.9651 113.416C40.1851 113.79 40.5591 113.977 41.0871 113.977ZM41.0871 111.81C40.8304 111.81 40.6508 111.759 40.5481 111.656C40.4528 111.553 40.4051 111.429 40.4051 111.282V111.04C40.4051 110.893 40.4528 110.769 40.5481 110.666C40.6508 110.563 40.8304 110.512 41.0871 110.512C41.3438 110.512 41.5198 110.563 41.6151 110.666C41.7178 110.769 41.7691 110.893 41.7691 111.04V111.282C41.7691 111.429 41.7178 111.553 41.6151 111.656C41.5198 111.759 41.3438 111.81 41.0871 111.81ZM60.8742 115.132C60.3756 115.132 59.9429 115.044 59.5762 114.868C59.2096 114.685 58.9052 114.424 58.6632 114.087C58.4286 113.75 58.2526 113.335 58.1352 112.844C58.0252 112.353 57.9702 111.792 57.9702 111.161C57.9702 110.538 58.0252 109.98 58.1352 109.489C58.2526 108.99 58.4286 108.572 58.6632 108.235C58.9052 107.898 59.2096 107.641 59.5762 107.465C59.9429 107.282 60.3756 107.19 60.8742 107.19C61.8716 107.19 62.6049 107.538 63.0742 108.235C63.5436 108.932 63.7782 109.907 63.7782 111.161C63.7782 112.415 63.5436 113.39 63.0742 114.087C62.6049 114.784 61.8716 115.132 60.8742 115.132ZM60.8742 113.977C61.4022 113.977 61.7726 113.79 61.9852 113.416C62.2052 113.035 62.3152 112.51 62.3152 111.843V110.479C62.3152 109.812 62.2052 109.291 61.9852 108.917C61.7726 108.536 61.4022 108.345 60.8742 108.345C60.3462 108.345 59.9722 108.536 59.7522 108.917C59.5396 109.291 59.4332 109.812 59.4332 110.479V111.843C59.4332 112.51 59.5396 113.035 59.7522 113.416C59.9722 113.79 60.3462 113.977 60.8742 113.977ZM60.8742 111.81C60.6176 111.81 60.4379 111.759 60.3352 111.656C60.2399 111.553 60.1922 111.429 60.1922 111.282V111.04C60.1922 110.893 60.2399 110.769 60.3352 110.666C60.4379 110.563 60.6176 110.512 60.8742 110.512C61.1309 110.512 61.3069 110.563 61.4022 110.666C61.5049 110.769 61.5562 110.893 61.5562 111.04V111.282C61.5562 111.429 61.5049 111.553 61.4022 111.656C61.3069 111.759 61.1309 111.81 60.8742 111.81ZM67.4699 115.132C66.9713 115.132 66.5386 115.044 66.1719 114.868C65.8053 114.685 65.5009 114.424 65.2589 114.087C65.0243 113.75 64.8483 113.335 64.7309 112.844C64.6209 112.353 64.5659 111.792 64.5659 111.161C64.5659 110.538 64.6209 109.98 64.7309 109.489C64.8483 108.99 65.0243 108.572 65.2589 108.235C65.5009 107.898 65.8053 107.641 66.1719 107.465C66.5386 107.282 66.9713 107.19 67.4699 107.19C68.4673 107.19 69.2006 107.538 69.6699 108.235C70.1393 108.932 70.3739 109.907 70.3739 111.161C70.3739 112.415 70.1393 113.39 69.6699 114.087C69.2006 114.784 68.4673 115.132 67.4699 115.132ZM67.4699 113.977C67.9979 113.977 68.3683 113.79 68.5809 113.416C68.8009 113.035 68.9109 112.51 68.9109 111.843V110.479C68.9109 109.812 68.8009 109.291 68.5809 108.917C68.3683 108.536 67.9979 108.345 67.4699 108.345C66.9419 108.345 66.5679 108.536 66.3479 108.917C66.1353 109.291 66.0289 109.812 66.0289 110.479V111.843C66.0289 112.51 66.1353 113.035 66.3479 113.416C66.5679 113.79 66.9419 113.977 67.4699 113.977ZM67.4699 111.81C67.2133 111.81 67.0336 111.759 66.9309 111.656C66.8356 111.553 66.7879 111.429 66.7879 111.282V111.04C66.7879 110.893 66.8356 110.769 66.9309 110.666C67.0336 110.563 67.2133 110.512 67.4699 110.512C67.7266 110.512 67.9026 110.563 67.9979 110.666C68.1006 110.769 68.1519 110.893 68.1519 111.04V111.282C68.1519 111.429 68.1006 111.553 67.9979 111.656C67.9026 111.759 67.7266 111.81 67.4699 111.81ZM74.0656 115.132C73.567 115.132 73.1343 115.044 72.7676 114.868C72.401 114.685 72.0966 114.424 71.8546 114.087C71.62 113.75 71.444 113.335 71.3266 112.844C71.2166 112.353 71.1616 111.792 71.1616 111.161C71.1616 110.538 71.2166 109.98 71.3266 109.489C71.444 108.99 71.62 108.572 71.8546 108.235C72.0966 107.898 72.401 107.641 72.7676 107.465C73.1343 107.282 73.567 107.19 74.0656 107.19C75.063 107.19 75.7963 107.538 76.2656 108.235C76.735 108.932 76.9696 109.907 76.9696 111.161C76.9696 112.415 76.735 113.39 76.2656 114.087C75.7963 114.784 75.063 115.132 74.0656 115.132ZM74.0656 113.977C74.5936 113.977 74.964 113.79 75.1766 113.416C75.3966 113.035 75.5066 112.51 75.5066 111.843V110.479C75.5066 109.812 75.3966 109.291 75.1766 108.917C74.964 108.536 74.5936 108.345 74.0656 108.345C73.5376 108.345 73.1636 108.536 72.9436 108.917C72.731 109.291 72.6246 109.812 72.6246 110.479V111.843C72.6246 112.51 72.731 113.035 72.9436 113.416C73.1636 113.79 73.5376 113.977 74.0656 113.977ZM74.0656 111.81C73.809 111.81 73.6293 111.759 73.5266 111.656C73.4313 111.553 73.3836 111.429 73.3836 111.282V111.04C73.3836 110.893 73.4313 110.769 73.5266 110.666C73.6293 110.563 73.809 110.512 74.0656 110.512C74.3223 110.512 74.4983 110.563 74.5936 110.666C74.6963 110.769 74.7476 110.893 74.7476 111.04V111.282C74.7476 111.429 74.6963 111.553 74.5936 111.656C74.4983 111.759 74.3223 111.81 74.0656 111.81ZM80.6613 115.132C80.1627 115.132 79.73 115.044 79.3633 114.868C78.9967 114.685 78.6923 114.424 78.4503 114.087C78.2157 113.75 78.0397 113.335 77.9223 112.844C77.8123 112.353 77.7573 111.792 77.7573 111.161C77.7573 110.538 77.8123 109.98 77.9223 109.489C78.0397 108.99 78.2157 108.572 78.4503 108.235C78.6923 107.898 78.9967 107.641 79.3633 107.465C79.73 107.282 80.1627 107.19 80.6613 107.19C81.6587 107.19 82.392 107.538 82.8613 108.235C83.3307 108.932 83.5653 109.907 83.5653 111.161C83.5653 112.415 83.3307 113.39 82.8613 114.087C82.392 114.784 81.6587 115.132 80.6613 115.132ZM80.6613 113.977C81.1893 113.977 81.5597 113.79 81.7723 113.416C81.9923 113.035 82.1023 112.51 82.1023 111.843V110.479C82.1023 109.812 81.9923 109.291 81.7723 108.917C81.5597 108.536 81.1893 108.345 80.6613 108.345C80.1333 108.345 79.7593 108.536 79.5393 108.917C79.3267 109.291 79.2203 109.812 79.2203 110.479V111.843C79.2203 112.51 79.3267 113.035 79.5393 113.416C79.7593 113.79 80.1333 113.977 80.6613 113.977ZM80.6613 111.81C80.4047 111.81 80.225 111.759 80.1223 111.656C80.027 111.553 79.9793 111.429 79.9793 111.282V111.04C79.9793 110.893 80.027 110.769 80.1223 110.666C80.225 110.563 80.4047 110.512 80.6613 110.512C80.918 110.512 81.094 110.563 81.1893 110.666C81.292 110.769 81.3433 110.893 81.3433 111.04V111.282C81.3433 111.429 81.292 111.553 81.1893 111.656C81.094 111.759 80.918 111.81 80.6613 111.81ZM100.448 115.132C99.9498 115.132 99.5171 115.044 99.1504 114.868C98.7838 114.685 98.4794 114.424 98.2374 114.087C98.0028 113.75 97.8268 113.335 97.7094 112.844C97.5994 112.353 97.5444 111.792 97.5444 111.161C97.5444 110.538 97.5994 109.98 97.7094 109.489C97.8268 108.99 98.0028 108.572 98.2374 108.235C98.4794 107.898 98.7838 107.641 99.1504 107.465C99.5171 107.282 99.9498 107.19 100.448 107.19C101.446 107.19 102.179 107.538 102.648 108.235C103.118 108.932 103.352 109.907 103.352 111.161C103.352 112.415 103.118 113.39 102.648 114.087C102.179 114.784 101.446 115.132 100.448 115.132ZM100.448 113.977C100.976 113.977 101.347 113.79 101.559 113.416C101.779 113.035 101.889 112.51 101.889 111.843V110.479C101.889 109.812 101.779 109.291 101.559 108.917C101.347 108.536 100.976 108.345 100.448 108.345C99.9204 108.345 99.5464 108.536 99.3264 108.917C99.1138 109.291 99.0074 109.812 99.0074 110.479V111.843C99.0074 112.51 99.1138 113.035 99.3264 113.416C99.5464 113.79 99.9204 113.977 100.448 113.977ZM100.448 111.81C100.192 111.81 100.012 111.759 99.9094 111.656C99.8141 111.553 99.7664 111.429 99.7664 111.282V111.04C99.7664 110.893 99.8141 110.769 99.9094 110.666C100.012 110.563 100.192 110.512 100.448 110.512C100.705 110.512 100.881 110.563 100.976 110.666C101.079 110.769 101.13 110.893 101.13 111.04V111.282C101.13 111.429 101.079 111.553 100.976 111.656C100.881 111.759 100.705 111.81 100.448 111.81ZM107.044 115.132C106.545 115.132 106.113 115.044 105.746 114.868C105.379 114.685 105.075 114.424 104.833 114.087C104.598 113.75 104.422 113.335 104.305 112.844C104.195 112.353 104.14 111.792 104.14 111.161C104.14 110.538 104.195 109.98 104.305 109.489C104.422 108.99 104.598 108.572 104.833 108.235C105.075 107.898 105.379 107.641 105.746 107.465C106.113 107.282 106.545 107.19 107.044 107.19C108.041 107.19 108.775 107.538 109.244 108.235C109.713 108.932 109.948 109.907 109.948 111.161C109.948 112.415 109.713 113.39 109.244 114.087C108.775 114.784 108.041 115.132 107.044 115.132ZM107.044 113.977C107.572 113.977 107.942 113.79 108.155 113.416C108.375 113.035 108.485 112.51 108.485 111.843V110.479C108.485 109.812 108.375 109.291 108.155 108.917C107.942 108.536 107.572 108.345 107.044 108.345C106.516 108.345 106.142 108.536 105.922 108.917C105.709 109.291 105.603 109.812 105.603 110.479V111.843C105.603 112.51 105.709 113.035 105.922 113.416C106.142 113.79 106.516 113.977 107.044 113.977ZM107.044 111.81C106.787 111.81 106.608 111.759 106.505 111.656C106.41 111.553 106.362 111.429 106.362 111.282V111.04C106.362 110.893 106.41 110.769 106.505 110.666C106.608 110.563 106.787 110.512 107.044 110.512C107.301 110.512 107.477 110.563 107.572 110.666C107.675 110.769 107.726 110.893 107.726 111.04V111.282C107.726 111.429 107.675 111.553 107.572 111.656C107.477 111.759 107.301 111.81 107.044 111.81ZM113.64 115.132C113.141 115.132 112.709 115.044 112.342 114.868C111.975 114.685 111.671 114.424 111.429 114.087C111.194 113.75 111.018 113.335 110.901 112.844C110.791 112.353 110.736 111.792 110.736 111.161C110.736 110.538 110.791 109.98 110.901 109.489C111.018 108.99 111.194 108.572 111.429 108.235C111.671 107.898 111.975 107.641 112.342 107.465C112.709 107.282 113.141 107.19 113.64 107.19C114.637 107.19 115.371 107.538 115.84 108.235C116.309 108.932 116.544 109.907 116.544 111.161C116.544 112.415 116.309 113.39 115.84 114.087C115.371 114.784 114.637 115.132 113.64 115.132ZM113.64 113.977C114.168 113.977 114.538 113.79 114.751 113.416C114.971 113.035 115.081 112.51 115.081 111.843V110.479C115.081 109.812 114.971 109.291 114.751 108.917C114.538 108.536 114.168 108.345 113.64 108.345C113.112 108.345 112.738 108.536 112.518 108.917C112.305 109.291 112.199 109.812 112.199 110.479V111.843C112.199 112.51 112.305 113.035 112.518 113.416C112.738 113.79 113.112 113.977 113.64 113.977ZM113.64 111.81C113.383 111.81 113.204 111.759 113.101 111.656C113.006 111.553 112.958 111.429 112.958 111.282V111.04C112.958 110.893 113.006 110.769 113.101 110.666C113.204 110.563 113.383 110.512 113.64 110.512C113.897 110.512 114.073 110.563 114.168 110.666C114.271 110.769 114.322 110.893 114.322 111.04V111.282C114.322 111.429 114.271 111.553 114.168 111.656C114.073 111.759 113.897 111.81 113.64 111.81ZM120.236 115.132C119.737 115.132 119.304 115.044 118.938 114.868C118.571 114.685 118.267 114.424 118.025 114.087C117.79 113.75 117.614 113.335 117.497 112.844C117.387 112.353 117.332 111.792 117.332 111.161C117.332 110.538 117.387 109.98 117.497 109.489C117.614 108.99 117.79 108.572 118.025 108.235C118.267 107.898 118.571 107.641 118.938 107.465C119.304 107.282 119.737 107.19 120.236 107.19C121.233 107.19 121.966 107.538 122.436 108.235C122.905 108.932 123.14 109.907 123.14 111.161C123.14 112.415 122.905 113.39 122.436 114.087C121.966 114.784 121.233 115.132 120.236 115.132ZM120.236 113.977C120.764 113.977 121.134 113.79 121.347 113.416C121.567 113.035 121.677 112.51 121.677 111.843V110.479C121.677 109.812 121.567 109.291 121.347 108.917C121.134 108.536 120.764 108.345 120.236 108.345C119.708 108.345 119.334 108.536 119.114 108.917C118.901 109.291 118.795 109.812 118.795 110.479V111.843C118.795 112.51 118.901 113.035 119.114 113.416C119.334 113.79 119.708 113.977 120.236 113.977ZM120.236 111.81C119.979 111.81 119.799 111.759 119.697 111.656C119.601 111.553 119.554 111.429 119.554 111.282V111.04C119.554 110.893 119.601 110.769 119.697 110.666C119.799 110.563 119.979 110.512 120.236 110.512C120.492 110.512 120.668 110.563 120.764 110.666C120.866 110.769 120.918 110.893 120.918 111.04V111.282C120.918 111.429 120.866 111.553 120.764 111.656C120.668 111.759 120.492 111.81 120.236 111.81ZM140.023 115.132C139.524 115.132 139.091 115.044 138.725 114.868C138.358 114.685 138.054 114.424 137.812 114.087C137.577 113.75 137.401 113.335 137.284 112.844C137.174 112.353 137.119 111.792 137.119 111.161C137.119 110.538 137.174 109.98 137.284 109.489C137.401 108.99 137.577 108.572 137.812 108.235C138.054 107.898 138.358 107.641 138.725 107.465C139.091 107.282 139.524 107.19 140.023 107.19C141.02 107.19 141.753 107.538 142.223 108.235C142.692 108.932 142.927 109.907 142.927 111.161C142.927 112.415 142.692 113.39 142.223 114.087C141.753 114.784 141.02 115.132 140.023 115.132ZM140.023 113.977C140.551 113.977 140.921 113.79 141.134 113.416C141.354 113.035 141.464 112.51 141.464 111.843V110.479C141.464 109.812 141.354 109.291 141.134 108.917C140.921 108.536 140.551 108.345 140.023 108.345C139.495 108.345 139.121 108.536 138.901 108.917C138.688 109.291 138.582 109.812 138.582 110.479V111.843C138.582 112.51 138.688 113.035 138.901 113.416C139.121 113.79 139.495 113.977 140.023 113.977ZM140.023 111.81C139.766 111.81 139.586 111.759 139.484 111.656C139.388 111.553 139.341 111.429 139.341 111.282V111.04C139.341 110.893 139.388 110.769 139.484 110.666C139.586 110.563 139.766 110.512 140.023 110.512C140.279 110.512 140.455 110.563 140.551 110.666C140.653 110.769 140.705 110.893 140.705 111.04V111.282C140.705 111.429 140.653 111.553 140.551 111.656C140.455 111.759 140.279 111.81 140.023 111.81ZM146.618 115.132C146.12 115.132 145.687 115.044 145.32 114.868C144.954 114.685 144.649 114.424 144.407 114.087C144.173 113.75 143.997 113.335 143.879 112.844C143.769 112.353 143.714 111.792 143.714 111.161C143.714 110.538 143.769 109.98 143.879 109.489C143.997 108.99 144.173 108.572 144.407 108.235C144.649 107.898 144.954 107.641 145.32 107.465C145.687 107.282 146.12 107.19 146.618 107.19C147.616 107.19 148.349 107.538 148.818 108.235C149.288 108.932 149.522 109.907 149.522 111.161C149.522 112.415 149.288 113.39 148.818 114.087C148.349 114.784 147.616 115.132 146.618 115.132ZM146.618 113.977C147.146 113.977 147.517 113.79 147.729 113.416C147.949 113.035 148.059 112.51 148.059 111.843V110.479C148.059 109.812 147.949 109.291 147.729 108.917C147.517 108.536 147.146 108.345 146.618 108.345C146.09 108.345 145.716 108.536 145.496 108.917C145.284 109.291 145.177 109.812 145.177 110.479V111.843C145.177 112.51 145.284 113.035 145.496 113.416C145.716 113.79 146.09 113.977 146.618 113.977ZM146.618 111.81C146.362 111.81 146.182 111.759 146.079 111.656C145.984 111.553 145.936 111.429 145.936 111.282V111.04C145.936 110.893 145.984 110.769 146.079 110.666C146.182 110.563 146.362 110.512 146.618 110.512C146.875 110.512 147.051 110.563 147.146 110.666C147.249 110.769 147.3 110.893 147.3 111.04V111.282C147.3 111.429 147.249 111.553 147.146 111.656C147.051 111.759 146.875 111.81 146.618 111.81ZM153.214 115.132C152.715 115.132 152.283 115.044 151.916 114.868C151.549 114.685 151.245 114.424 151.003 114.087C150.768 113.75 150.592 113.335 150.475 112.844C150.365 112.353 150.31 111.792 150.31 111.161C150.31 110.538 150.365 109.98 150.475 109.489C150.592 108.99 150.768 108.572 151.003 108.235C151.245 107.898 151.549 107.641 151.916 107.465C152.283 107.282 152.715 107.19 153.214 107.19C154.211 107.19 154.945 107.538 155.414 108.235C155.883 108.932 156.118 109.907 156.118 111.161C156.118 112.415 155.883 113.39 155.414 114.087C154.945 114.784 154.211 115.132 153.214 115.132ZM153.214 113.977C153.742 113.977 154.112 113.79 154.325 113.416C154.545 113.035 154.655 112.51 154.655 111.843V110.479C154.655 109.812 154.545 109.291 154.325 108.917C154.112 108.536 153.742 108.345 153.214 108.345C152.686 108.345 152.312 108.536 152.092 108.917C151.879 109.291 151.773 109.812 151.773 110.479V111.843C151.773 112.51 151.879 113.035 152.092 113.416C152.312 113.79 152.686 113.977 153.214 113.977ZM153.214 111.81C152.957 111.81 152.778 111.759 152.675 111.656C152.58 111.553 152.532 111.429 152.532 111.282V111.04C152.532 110.893 152.58 110.769 152.675 110.666C152.778 110.563 152.957 110.512 153.214 110.512C153.471 110.512 153.647 110.563 153.742 110.666C153.845 110.769 153.896 110.893 153.896 111.04V111.282C153.896 111.429 153.845 111.553 153.742 111.656C153.647 111.759 153.471 111.81 153.214 111.81ZM159.81 115.132C159.311 115.132 158.878 115.044 158.512 114.868C158.145 114.685 157.841 114.424 157.599 114.087C157.364 113.75 157.188 113.335 157.071 112.844C156.961 112.353 156.906 111.792 156.906 111.161C156.906 110.538 156.961 109.98 157.071 109.489C157.188 108.99 157.364 108.572 157.599 108.235C157.841 107.898 158.145 107.641 158.512 107.465C158.878 107.282 159.311 107.19 159.81 107.19C160.807 107.19 161.54 107.538 162.01 108.235C162.479 108.932 162.714 109.907 162.714 111.161C162.714 112.415 162.479 113.39 162.01 114.087C161.54 114.784 160.807 115.132 159.81 115.132ZM159.81 113.977C160.338 113.977 160.708 113.79 160.921 113.416C161.141 113.035 161.251 112.51 161.251 111.843V110.479C161.251 109.812 161.141 109.291 160.921 108.917C160.708 108.536 160.338 108.345 159.81 108.345C159.282 108.345 158.908 108.536 158.688 108.917C158.475 109.291 158.369 109.812 158.369 110.479V111.843C158.369 112.51 158.475 113.035 158.688 113.416C158.908 113.79 159.282 113.977 159.81 113.977ZM159.81 111.81C159.553 111.81 159.373 111.759 159.271 111.656C159.175 111.553 159.128 111.429 159.128 111.282V111.04C159.128 110.893 159.175 110.769 159.271 110.666C159.373 110.563 159.553 110.512 159.81 110.512C160.066 110.512 160.242 110.563 160.338 110.666C160.44 110.769 160.492 110.893 160.492 111.04V111.282C160.492 111.429 160.44 111.553 160.338 111.656C160.242 111.759 160.066 111.81 159.81 111.81Z" fill="white"/>
<defs>
<filter id="filter0_b_101_187" x="-58.8108" y="-58.8108" width="363.892" height="250.622" filterUnits="userSpaceOnUse" color-interpolation-filters="sRGB">
<feFlood flood-opacity="0" result="BackgroundImageFix"/>
<feGaussianBlur in="BackgroundImage" stdDeviation="29.4054"/>
<feComposite in2="SourceAlpha" operator="in" result="effect1_backgroundBlur_101_187"/>
<feBlend mode="normal" in="SourceGraphic" in2="effect1_backgroundBlur_101_187" result="shape"/>
</filter>
</defs>
</svg>
