<svg width="247" height="133" viewBox="0 0 247 133" fill="none" xmlns="http://www.w3.org/2000/svg">
<rect x="-0.00012207" width="246.27" height="133" rx="14.7027" fill="#1AAD6C"/>
<g filter="url(#filter0_b_101_698)">
<rect x="-0.00012207" width="246.27" height="133" rx="14.7027" fill="white" fill-opacity="0.03"/>
</g>
<path fill-rule="evenodd" clip-rule="evenodd" d="M98.4063 41.5849C108.635 64.9124 118.462 87.3247 163.61 86.1205C205.037 85.0156 231.313 89.0995 246.27 96.1611V118.297C246.27 126.417 239.688 133 231.567 133H14.7026C6.58249 133 -0.00012207 126.417 -0.00012207 118.297V14.7027C-0.00012207 6.58263 6.5825 0 14.7026 0H66.0102C84.3764 9.58846 91.4833 25.7963 98.4063 41.5849Z" fill="white" fill-opacity="0.08"/>
<path fill-rule="evenodd" clip-rule="evenodd" d="M12.6615 0.140351C5.50746 1.13393 -0.00012207 7.27504 -0.00012207 14.7025V118.297C-0.00012207 126.417 6.58249 133 14.7026 133H231.567C237.278 133 242.228 129.744 244.663 124.987C250.117 105.147 227.835 88.5362 151.07 90.5836C107.959 91.7334 98.5755 70.3323 88.8084 48.0574C78.2475 23.9722 67.2386 -1.13454 12.6615 0.140351Z" fill="white" fill-opacity="0.08"/>
<path opacity="0.9" d="M21.3559 27.154C20.1165 27.154 19.1705 26.8093 18.5179 26.12C17.8725 25.4307 17.5499 24.4517 17.5499 23.183C17.5499 22.5523 17.6489 21.9913 17.8469 21.5C18.0449 21.0013 18.3162 20.5833 18.6609 20.246C19.0055 19.9013 19.4162 19.641 19.8929 19.465C20.3695 19.289 20.8865 19.201 21.4439 19.201C21.7665 19.201 22.0599 19.2267 22.3239 19.278C22.5879 19.322 22.8189 19.377 23.0169 19.443C23.2149 19.5017 23.3799 19.564 23.5119 19.63C23.6439 19.696 23.7392 19.7473 23.7979 19.784L23.3029 21.17C23.0682 21.0453 22.7932 20.939 22.4779 20.851C22.1699 20.763 21.8179 20.719 21.4219 20.719C21.1579 20.719 20.8975 20.763 20.6409 20.851C20.3915 20.939 20.1679 21.082 19.9699 21.28C19.7792 21.4707 19.6252 21.72 19.5079 22.028C19.3905 22.336 19.3319 22.71 19.3319 23.15C19.3319 23.502 19.3685 23.832 19.4419 24.14C19.5225 24.4407 19.6472 24.701 19.8159 24.921C19.9919 25.141 20.2192 25.317 20.4979 25.449C20.7765 25.5737 21.1139 25.636 21.5099 25.636C21.7592 25.636 21.9829 25.6213 22.1809 25.592C22.3789 25.5627 22.5549 25.5297 22.7089 25.493C22.8629 25.449 22.9985 25.4013 23.1159 25.35C23.2332 25.2987 23.3395 25.251 23.4349 25.207L23.9079 26.582C23.6659 26.7287 23.3249 26.8607 22.8849 26.978C22.4449 27.0953 21.9352 27.154 21.3559 27.154ZM28.3897 22.666C28.243 22.6293 28.0707 22.5927 27.8727 22.556C27.6747 22.512 27.462 22.49 27.2347 22.49C27.132 22.49 27.0074 22.501 26.8607 22.523C26.7214 22.5377 26.615 22.556 26.5417 22.578V27H24.9027V21.522C25.196 21.4193 25.5407 21.324 25.9367 21.236C26.34 21.1407 26.7874 21.093 27.2787 21.093C27.3667 21.093 27.473 21.1003 27.5977 21.115C27.7224 21.1223 27.847 21.137 27.9717 21.159C28.0964 21.1737 28.221 21.1957 28.3457 21.225C28.4704 21.247 28.5767 21.2763 28.6647 21.313L28.3897 22.666ZM29.1609 24.151C29.1609 23.6377 29.2379 23.1903 29.3919 22.809C29.5532 22.4203 29.7622 22.0977 30.0189 21.841C30.2756 21.5843 30.5689 21.39 30.8989 21.258C31.2362 21.126 31.5809 21.06 31.9329 21.06C32.7542 21.06 33.4032 21.313 33.8799 21.819C34.3566 22.3177 34.5949 23.0547 34.5949 24.03C34.5949 24.1253 34.5912 24.2317 34.5839 24.349C34.5766 24.459 34.5692 24.558 34.5619 24.646H30.8439C30.8806 24.9833 31.0382 25.251 31.3169 25.449C31.5956 25.647 31.9696 25.746 32.4389 25.746C32.7396 25.746 33.0329 25.7203 33.3189 25.669C33.6122 25.6103 33.8506 25.5407 34.0339 25.46L34.2539 26.791C34.1659 26.835 34.0486 26.879 33.9019 26.923C33.7552 26.967 33.5902 27.0037 33.4069 27.033C33.2309 27.0697 33.0402 27.099 32.8349 27.121C32.6296 27.143 32.4242 27.154 32.2189 27.154C31.6982 27.154 31.2436 27.077 30.8549 26.923C30.4736 26.769 30.1546 26.56 29.8979 26.296C29.6486 26.0247 29.4616 25.7057 29.3369 25.339C29.2196 24.9723 29.1609 24.5763 29.1609 24.151ZM33.0109 23.524C33.0036 23.3847 32.9779 23.249 32.9339 23.117C32.8972 22.985 32.8349 22.8677 32.7469 22.765C32.6662 22.6623 32.5599 22.578 32.4279 22.512C32.3032 22.446 32.1456 22.413 31.9549 22.413C31.7716 22.413 31.6139 22.446 31.4819 22.512C31.3499 22.5707 31.2399 22.6513 31.1519 22.754C31.0639 22.8567 30.9942 22.9777 30.9429 23.117C30.8989 23.249 30.8659 23.3847 30.8439 23.524H33.0109ZM37.2567 24.063C37.2567 24.569 37.3704 24.976 37.5977 25.284C37.8251 25.592 38.1624 25.746 38.6097 25.746C38.7564 25.746 38.8921 25.7423 39.0167 25.735C39.1414 25.7203 39.2441 25.7057 39.3247 25.691V22.71C39.2221 22.644 39.0864 22.589 38.9177 22.545C38.7564 22.501 38.5914 22.479 38.4227 22.479C37.6454 22.479 37.2567 23.007 37.2567 24.063ZM40.9637 26.813C40.8171 26.857 40.6484 26.901 40.4577 26.945C40.2671 26.9817 40.0654 27.0147 39.8527 27.044C39.6474 27.0733 39.4347 27.0953 39.2147 27.11C39.0021 27.132 38.7967 27.143 38.5987 27.143C38.1221 27.143 37.6967 27.0733 37.3227 26.934C36.9487 26.7947 36.6334 26.5967 36.3767 26.34C36.1201 26.076 35.9221 25.7607 35.7827 25.394C35.6507 25.02 35.5847 24.602 35.5847 24.14C35.5847 23.6707 35.6434 23.249 35.7607 22.875C35.8781 22.4937 36.0467 22.171 36.2667 21.907C36.4867 21.643 36.7544 21.4413 37.0697 21.302C37.3924 21.1627 37.7591 21.093 38.1697 21.093C38.3971 21.093 38.5987 21.115 38.7747 21.159C38.9581 21.203 39.1414 21.2653 39.3247 21.346V18.728L40.9637 18.464V26.813ZM44.1374 27H42.4984V21.214H44.1374V27ZM44.2914 19.542C44.2914 19.8427 44.1924 20.081 43.9944 20.257C43.8037 20.4257 43.5764 20.51 43.3124 20.51C43.0484 20.51 42.8174 20.4257 42.6194 20.257C42.4287 20.081 42.3334 19.8427 42.3334 19.542C42.3334 19.2413 42.4287 19.0067 42.6194 18.838C42.8174 18.662 43.0484 18.574 43.3124 18.574C43.5764 18.574 43.8037 18.662 43.9944 18.838C44.1924 19.0067 44.2914 19.2413 44.2914 19.542ZM45.6231 19.773L47.2621 19.509V21.214H49.2311V22.578H47.2621V24.613C47.2621 24.9577 47.3207 25.2327 47.4381 25.438C47.5627 25.6433 47.8084 25.746 48.1751 25.746C48.3511 25.746 48.5307 25.7313 48.7141 25.702C48.9047 25.6653 49.0771 25.6177 49.2311 25.559L49.4621 26.835C49.2641 26.9157 49.0441 26.9853 48.8021 27.044C48.5601 27.1027 48.2631 27.132 47.9111 27.132C47.4637 27.132 47.0934 27.0733 46.8001 26.956C46.5067 26.8313 46.2721 26.6627 46.0961 26.45C45.9201 26.23 45.7954 25.966 45.7221 25.658C45.6561 25.35 45.6231 25.009 45.6231 24.635V19.773Z" fill="white"/>
<g clip-path="url(#clip0_101_698)">
<path d="M207.909 16.1955L203.457 26.8148H200.553L198.363 18.3389C198.23 17.8176 198.115 17.6263 197.71 17.4067C197.05 17.0483 195.959 16.7126 195 16.5029L195.065 16.1955H199.74C200.046 16.1952 200.341 16.3041 200.573 16.5026C200.806 16.7011 200.959 16.976 201.007 17.2778L202.164 23.4233L205.023 16.1955H207.909ZM219.289 23.3482C219.3 20.5447 215.413 20.3902 215.44 19.1379C215.448 18.7568 215.811 18.3517 216.604 18.2483C217.534 18.16 218.47 18.3244 219.314 18.7242L219.796 16.4718C218.974 16.1628 218.104 16.0031 217.226 16C214.51 16 212.599 17.445 212.582 19.5119C212.565 21.0405 213.946 21.8919 214.988 22.4019C216.059 22.9218 216.419 23.2562 216.413 23.7208C216.406 24.4348 215.56 24.7479 214.77 24.7607C213.388 24.7819 212.588 24.3881 211.948 24.0906L211.45 26.4167C212.092 26.7114 213.276 26.9692 214.505 26.9806C217.39 26.9806 219.279 25.5554 219.289 23.3482ZM226.458 26.8148H229L226.783 16.1955H224.437C224.186 16.1932 223.941 16.2662 223.732 16.4052C223.523 16.5441 223.361 16.7425 223.267 16.9747L219.146 26.8148H222.03L222.604 25.2282H226.128L226.458 26.8148ZM223.394 23.0522L224.839 19.0642L225.672 23.0522H223.394ZM211.834 16.1955L209.563 26.8148H206.815L209.089 16.1955H211.834Z" fill="white"/>
</g>
<path d="M21.2999 115.132C20.8012 115.132 20.3685 115.044 20.0019 114.868C19.6352 114.685 19.3309 114.424 19.0889 114.087C18.8542 113.75 18.6782 113.335 18.5609 112.844C18.4509 112.353 18.3959 111.792 18.3959 111.161C18.3959 110.538 18.4509 109.98 18.5609 109.489C18.6782 108.99 18.8542 108.572 19.0889 108.235C19.3309 107.898 19.6352 107.641 20.0019 107.465C20.3685 107.282 20.8012 107.19 21.2999 107.19C22.2972 107.19 23.0305 107.538 23.4999 108.235C23.9692 108.932 24.2039 109.907 24.2039 111.161C24.2039 112.415 23.9692 113.39 23.4999 114.087C23.0305 114.784 22.2972 115.132 21.2999 115.132ZM21.2999 113.977C21.8279 113.977 22.1982 113.79 22.4109 113.416C22.6309 113.035 22.7409 112.51 22.7409 111.843V110.479C22.7409 109.812 22.6309 109.291 22.4109 108.917C22.1982 108.536 21.8279 108.345 21.2999 108.345C20.7719 108.345 20.3979 108.536 20.1779 108.917C19.9652 109.291 19.8589 109.812 19.8589 110.479V111.843C19.8589 112.51 19.9652 113.035 20.1779 113.416C20.3979 113.79 20.7719 113.977 21.2999 113.977ZM21.2999 111.81C21.0432 111.81 20.8635 111.759 20.7609 111.656C20.6655 111.553 20.6179 111.429 20.6179 111.282V111.04C20.6179 110.893 20.6655 110.769 20.7609 110.666C20.8635 110.563 21.0432 110.512 21.2999 110.512C21.5565 110.512 21.7325 110.563 21.8279 110.666C21.9305 110.769 21.9819 110.893 21.9819 111.04V111.282C21.9819 111.429 21.9305 111.553 21.8279 111.656C21.7325 111.759 21.5565 111.81 21.2999 111.81ZM27.8956 115.132C27.3969 115.132 26.9642 115.044 26.5976 114.868C26.2309 114.685 25.9266 114.424 25.6846 114.087C25.4499 113.75 25.2739 113.335 25.1566 112.844C25.0466 112.353 24.9916 111.792 24.9916 111.161C24.9916 110.538 25.0466 109.98 25.1566 109.489C25.2739 108.99 25.4499 108.572 25.6846 108.235C25.9266 107.898 26.2309 107.641 26.5976 107.465C26.9642 107.282 27.3969 107.19 27.8956 107.19C28.8929 107.19 29.6262 107.538 30.0956 108.235C30.5649 108.932 30.7996 109.907 30.7996 111.161C30.7996 112.415 30.5649 113.39 30.0956 114.087C29.6262 114.784 28.8929 115.132 27.8956 115.132ZM27.8956 113.977C28.4236 113.977 28.7939 113.79 29.0066 113.416C29.2266 113.035 29.3366 112.51 29.3366 111.843V110.479C29.3366 109.812 29.2266 109.291 29.0066 108.917C28.7939 108.536 28.4236 108.345 27.8956 108.345C27.3676 108.345 26.9936 108.536 26.7736 108.917C26.5609 109.291 26.4546 109.812 26.4546 110.479V111.843C26.4546 112.51 26.5609 113.035 26.7736 113.416C26.9936 113.79 27.3676 113.977 27.8956 113.977ZM27.8956 111.81C27.6389 111.81 27.4592 111.759 27.3566 111.656C27.2612 111.553 27.2136 111.429 27.2136 111.282V111.04C27.2136 110.893 27.2612 110.769 27.3566 110.666C27.4592 110.563 27.6389 110.512 27.8956 110.512C28.1522 110.512 28.3282 110.563 28.4236 110.666C28.5262 110.769 28.5776 110.893 28.5776 111.04V111.282C28.5776 111.429 28.5262 111.553 28.4236 111.656C28.3282 111.759 28.1522 111.81 27.8956 111.81ZM34.4913 115.132C33.9926 115.132 33.56 115.044 33.1933 114.868C32.8266 114.685 32.5223 114.424 32.2803 114.087C32.0456 113.75 31.8696 113.335 31.7523 112.844C31.6423 112.353 31.5873 111.792 31.5873 111.161C31.5873 110.538 31.6423 109.98 31.7523 109.489C31.8696 108.99 32.0456 108.572 32.2803 108.235C32.5223 107.898 32.8266 107.641 33.1933 107.465C33.56 107.282 33.9926 107.19 34.4913 107.19C35.4886 107.19 36.222 107.538 36.6913 108.235C37.1606 108.932 37.3953 109.907 37.3953 111.161C37.3953 112.415 37.1606 113.39 36.6913 114.087C36.222 114.784 35.4886 115.132 34.4913 115.132ZM34.4913 113.977C35.0193 113.977 35.3896 113.79 35.6023 113.416C35.8223 113.035 35.9323 112.51 35.9323 111.843V110.479C35.9323 109.812 35.8223 109.291 35.6023 108.917C35.3896 108.536 35.0193 108.345 34.4913 108.345C33.9633 108.345 33.5893 108.536 33.3693 108.917C33.1566 109.291 33.0503 109.812 33.0503 110.479V111.843C33.0503 112.51 33.1566 113.035 33.3693 113.416C33.5893 113.79 33.9633 113.977 34.4913 113.977ZM34.4913 111.81C34.2346 111.81 34.055 111.759 33.9523 111.656C33.857 111.553 33.8093 111.429 33.8093 111.282V111.04C33.8093 110.893 33.857 110.769 33.9523 110.666C34.055 110.563 34.2346 110.512 34.4913 110.512C34.748 110.512 34.924 110.563 35.0193 110.666C35.122 110.769 35.1733 110.893 35.1733 111.04V111.282C35.1733 111.429 35.122 111.553 35.0193 111.656C34.924 111.759 34.748 111.81 34.4913 111.81ZM41.087 115.132C40.5883 115.132 40.1557 115.044 39.789 114.868C39.4223 114.685 39.118 114.424 38.876 114.087C38.6413 113.75 38.4653 113.335 38.348 112.844C38.238 112.353 38.183 111.792 38.183 111.161C38.183 110.538 38.238 109.98 38.348 109.489C38.4653 108.99 38.6413 108.572 38.876 108.235C39.118 107.898 39.4223 107.641 39.789 107.465C40.1557 107.282 40.5883 107.19 41.087 107.19C42.0843 107.19 42.8177 107.538 43.287 108.235C43.7563 108.932 43.991 109.907 43.991 111.161C43.991 112.415 43.7563 113.39 43.287 114.087C42.8177 114.784 42.0843 115.132 41.087 115.132ZM41.087 113.977C41.615 113.977 41.9853 113.79 42.198 113.416C42.418 113.035 42.528 112.51 42.528 111.843V110.479C42.528 109.812 42.418 109.291 42.198 108.917C41.9853 108.536 41.615 108.345 41.087 108.345C40.559 108.345 40.185 108.536 39.965 108.917C39.7523 109.291 39.646 109.812 39.646 110.479V111.843C39.646 112.51 39.7523 113.035 39.965 113.416C40.185 113.79 40.559 113.977 41.087 113.977ZM41.087 111.81C40.8303 111.81 40.6507 111.759 40.548 111.656C40.4527 111.553 40.405 111.429 40.405 111.282V111.04C40.405 110.893 40.4527 110.769 40.548 110.666C40.6507 110.563 40.8303 110.512 41.087 110.512C41.3437 110.512 41.5197 110.563 41.615 110.666C41.7177 110.769 41.769 110.893 41.769 111.04V111.282C41.769 111.429 41.7177 111.553 41.615 111.656C41.5197 111.759 41.3437 111.81 41.087 111.81ZM60.8741 115.132C60.3754 115.132 59.9428 115.044 59.5761 114.868C59.2094 114.685 58.9051 114.424 58.6631 114.087C58.4284 113.75 58.2524 113.335 58.1351 112.844C58.0251 112.353 57.9701 111.792 57.9701 111.161C57.9701 110.538 58.0251 109.98 58.1351 109.489C58.2524 108.99 58.4284 108.572 58.6631 108.235C58.9051 107.898 59.2094 107.641 59.5761 107.465C59.9428 107.282 60.3754 107.19 60.8741 107.19C61.8714 107.19 62.6048 107.538 63.0741 108.235C63.5434 108.932 63.7781 109.907 63.7781 111.161C63.7781 112.415 63.5434 113.39 63.0741 114.087C62.6048 114.784 61.8714 115.132 60.8741 115.132ZM60.8741 113.977C61.4021 113.977 61.7724 113.79 61.9851 113.416C62.2051 113.035 62.3151 112.51 62.3151 111.843V110.479C62.3151 109.812 62.2051 109.291 61.9851 108.917C61.7724 108.536 61.4021 108.345 60.8741 108.345C60.3461 108.345 59.9721 108.536 59.7521 108.917C59.5394 109.291 59.4331 109.812 59.4331 110.479V111.843C59.4331 112.51 59.5394 113.035 59.7521 113.416C59.9721 113.79 60.3461 113.977 60.8741 113.977ZM60.8741 111.81C60.6174 111.81 60.4378 111.759 60.3351 111.656C60.2398 111.553 60.1921 111.429 60.1921 111.282V111.04C60.1921 110.893 60.2398 110.769 60.3351 110.666C60.4378 110.563 60.6174 110.512 60.8741 110.512C61.1308 110.512 61.3068 110.563 61.4021 110.666C61.5048 110.769 61.5561 110.893 61.5561 111.04V111.282C61.5561 111.429 61.5048 111.553 61.4021 111.656C61.3068 111.759 61.1308 111.81 60.8741 111.81ZM67.4698 115.132C66.9711 115.132 66.5385 115.044 66.1718 114.868C65.8051 114.685 65.5008 114.424 65.2588 114.087C65.0241 113.75 64.8481 113.335 64.7308 112.844C64.6208 112.353 64.5658 111.792 64.5658 111.161C64.5658 110.538 64.6208 109.98 64.7308 109.489C64.8481 108.99 65.0241 108.572 65.2588 108.235C65.5008 107.898 65.8051 107.641 66.1718 107.465C66.5385 107.282 66.9711 107.19 67.4698 107.19C68.4671 107.19 69.2005 107.538 69.6698 108.235C70.1391 108.932 70.3738 109.907 70.3738 111.161C70.3738 112.415 70.1391 113.39 69.6698 114.087C69.2005 114.784 68.4671 115.132 67.4698 115.132ZM67.4698 113.977C67.9978 113.977 68.3681 113.79 68.5808 113.416C68.8008 113.035 68.9108 112.51 68.9108 111.843V110.479C68.9108 109.812 68.8008 109.291 68.5808 108.917C68.3681 108.536 67.9978 108.345 67.4698 108.345C66.9418 108.345 66.5678 108.536 66.3478 108.917C66.1351 109.291 66.0288 109.812 66.0288 110.479V111.843C66.0288 112.51 66.1351 113.035 66.3478 113.416C66.5678 113.79 66.9418 113.977 67.4698 113.977ZM67.4698 111.81C67.2131 111.81 67.0335 111.759 66.9308 111.656C66.8355 111.553 66.7878 111.429 66.7878 111.282V111.04C66.7878 110.893 66.8355 110.769 66.9308 110.666C67.0335 110.563 67.2131 110.512 67.4698 110.512C67.7265 110.512 67.9025 110.563 67.9978 110.666C68.1005 110.769 68.1518 110.893 68.1518 111.04V111.282C68.1518 111.429 68.1005 111.553 67.9978 111.656C67.9025 111.759 67.7265 111.81 67.4698 111.81ZM74.0655 115.132C73.5668 115.132 73.1342 115.044 72.7675 114.868C72.4008 114.685 72.0965 114.424 71.8545 114.087C71.6198 113.75 71.4438 113.335 71.3265 112.844C71.2165 112.353 71.1615 111.792 71.1615 111.161C71.1615 110.538 71.2165 109.98 71.3265 109.489C71.4438 108.99 71.6198 108.572 71.8545 108.235C72.0965 107.898 72.4008 107.641 72.7675 107.465C73.1342 107.282 73.5668 107.19 74.0655 107.19C75.0628 107.19 75.7962 107.538 76.2655 108.235C76.7348 108.932 76.9695 109.907 76.9695 111.161C76.9695 112.415 76.7348 113.39 76.2655 114.087C75.7962 114.784 75.0628 115.132 74.0655 115.132ZM74.0655 113.977C74.5935 113.977 74.9638 113.79 75.1765 113.416C75.3965 113.035 75.5065 112.51 75.5065 111.843V110.479C75.5065 109.812 75.3965 109.291 75.1765 108.917C74.9638 108.536 74.5935 108.345 74.0655 108.345C73.5375 108.345 73.1635 108.536 72.9435 108.917C72.7308 109.291 72.6245 109.812 72.6245 110.479V111.843C72.6245 112.51 72.7308 113.035 72.9435 113.416C73.1635 113.79 73.5375 113.977 74.0655 113.977ZM74.0655 111.81C73.8088 111.81 73.6292 111.759 73.5265 111.656C73.4312 111.553 73.3835 111.429 73.3835 111.282V111.04C73.3835 110.893 73.4312 110.769 73.5265 110.666C73.6292 110.563 73.8088 110.512 74.0655 110.512C74.3222 110.512 74.4982 110.563 74.5935 110.666C74.6962 110.769 74.7475 110.893 74.7475 111.04V111.282C74.7475 111.429 74.6962 111.553 74.5935 111.656C74.4982 111.759 74.3222 111.81 74.0655 111.81ZM80.6612 115.132C80.1625 115.132 79.7299 115.044 79.3632 114.868C78.9965 114.685 78.6922 114.424 78.4502 114.087C78.2155 113.75 78.0395 113.335 77.9222 112.844C77.8122 112.353 77.7572 111.792 77.7572 111.161C77.7572 110.538 77.8122 109.98 77.9222 109.489C78.0395 108.99 78.2155 108.572 78.4502 108.235C78.6922 107.898 78.9965 107.641 79.3632 107.465C79.7299 107.282 80.1625 107.19 80.6612 107.19C81.6585 107.19 82.3919 107.538 82.8612 108.235C83.3305 108.932 83.5652 109.907 83.5652 111.161C83.5652 112.415 83.3305 113.39 82.8612 114.087C82.3919 114.784 81.6585 115.132 80.6612 115.132ZM80.6612 113.977C81.1892 113.977 81.5595 113.79 81.7722 113.416C81.9922 113.035 82.1022 112.51 82.1022 111.843V110.479C82.1022 109.812 81.9922 109.291 81.7722 108.917C81.5595 108.536 81.1892 108.345 80.6612 108.345C80.1332 108.345 79.7592 108.536 79.5392 108.917C79.3265 109.291 79.2202 109.812 79.2202 110.479V111.843C79.2202 112.51 79.3265 113.035 79.5392 113.416C79.7592 113.79 80.1332 113.977 80.6612 113.977ZM80.6612 111.81C80.4045 111.81 80.2249 111.759 80.1222 111.656C80.0269 111.553 79.9792 111.429 79.9792 111.282V111.04C79.9792 110.893 80.0269 110.769 80.1222 110.666C80.2249 110.563 80.4045 110.512 80.6612 110.512C80.9179 110.512 81.0939 110.563 81.1892 110.666C81.2919 110.769 81.3432 110.893 81.3432 111.04V111.282C81.3432 111.429 81.2919 111.553 81.1892 111.656C81.0939 111.759 80.9179 111.81 80.6612 111.81ZM100.448 115.132C99.9496 115.132 99.517 115.044 99.1503 114.868C98.7836 114.685 98.4793 114.424 98.2373 114.087C98.0026 113.75 97.8266 113.335 97.7093 112.844C97.5993 112.353 97.5443 111.792 97.5443 111.161C97.5443 110.538 97.5993 109.98 97.7093 109.489C97.8266 108.99 98.0026 108.572 98.2373 108.235C98.4793 107.898 98.7836 107.641 99.1503 107.465C99.517 107.282 99.9496 107.19 100.448 107.19C101.446 107.19 102.179 107.538 102.648 108.235C103.118 108.932 103.352 109.907 103.352 111.161C103.352 112.415 103.118 113.39 102.648 114.087C102.179 114.784 101.446 115.132 100.448 115.132ZM100.448 113.977C100.976 113.977 101.347 113.79 101.559 113.416C101.779 113.035 101.889 112.51 101.889 111.843V110.479C101.889 109.812 101.779 109.291 101.559 108.917C101.347 108.536 100.976 108.345 100.448 108.345C99.9203 108.345 99.5463 108.536 99.3263 108.917C99.1136 109.291 99.0073 109.812 99.0073 110.479V111.843C99.0073 112.51 99.1136 113.035 99.3263 113.416C99.5463 113.79 99.9203 113.977 100.448 113.977ZM100.448 111.81C100.192 111.81 100.012 111.759 99.9093 111.656C99.814 111.553 99.7663 111.429 99.7663 111.282V111.04C99.7663 110.893 99.814 110.769 99.9093 110.666C100.012 110.563 100.192 110.512 100.448 110.512C100.705 110.512 100.881 110.563 100.976 110.666C101.079 110.769 101.13 110.893 101.13 111.04V111.282C101.13 111.429 101.079 111.553 100.976 111.656C100.881 111.759 100.705 111.81 100.448 111.81ZM107.044 115.132C106.545 115.132 106.113 115.044 105.746 114.868C105.379 114.685 105.075 114.424 104.833 114.087C104.598 113.75 104.422 113.335 104.305 112.844C104.195 112.353 104.14 111.792 104.14 111.161C104.14 110.538 104.195 109.98 104.305 109.489C104.422 108.99 104.598 108.572 104.833 108.235C105.075 107.898 105.379 107.641 105.746 107.465C106.113 107.282 106.545 107.19 107.044 107.19C108.041 107.19 108.775 107.538 109.244 108.235C109.713 108.932 109.948 109.907 109.948 111.161C109.948 112.415 109.713 113.39 109.244 114.087C108.775 114.784 108.041 115.132 107.044 115.132ZM107.044 113.977C107.572 113.977 107.942 113.79 108.155 113.416C108.375 113.035 108.485 112.51 108.485 111.843V110.479C108.485 109.812 108.375 109.291 108.155 108.917C107.942 108.536 107.572 108.345 107.044 108.345C106.516 108.345 106.142 108.536 105.922 108.917C105.709 109.291 105.603 109.812 105.603 110.479V111.843C105.603 112.51 105.709 113.035 105.922 113.416C106.142 113.79 106.516 113.977 107.044 113.977ZM107.044 111.81C106.787 111.81 106.608 111.759 106.505 111.656C106.41 111.553 106.362 111.429 106.362 111.282V111.04C106.362 110.893 106.41 110.769 106.505 110.666C106.608 110.563 106.787 110.512 107.044 110.512C107.301 110.512 107.477 110.563 107.572 110.666C107.675 110.769 107.726 110.893 107.726 111.04V111.282C107.726 111.429 107.675 111.553 107.572 111.656C107.477 111.759 107.301 111.81 107.044 111.81ZM113.64 115.132C113.141 115.132 112.708 115.044 112.342 114.868C111.975 114.685 111.671 114.424 111.429 114.087C111.194 113.75 111.018 113.335 110.901 112.844C110.791 112.353 110.736 111.792 110.736 111.161C110.736 110.538 110.791 109.98 110.901 109.489C111.018 108.99 111.194 108.572 111.429 108.235C111.671 107.898 111.975 107.641 112.342 107.465C112.708 107.282 113.141 107.19 113.64 107.19C114.637 107.19 115.37 107.538 115.84 108.235C116.309 108.932 116.544 109.907 116.544 111.161C116.544 112.415 116.309 113.39 115.84 114.087C115.37 114.784 114.637 115.132 113.64 115.132ZM113.64 113.977C114.168 113.977 114.538 113.79 114.751 113.416C114.971 113.035 115.081 112.51 115.081 111.843V110.479C115.081 109.812 114.971 109.291 114.751 108.917C114.538 108.536 114.168 108.345 113.64 108.345C113.112 108.345 112.738 108.536 112.518 108.917C112.305 109.291 112.199 109.812 112.199 110.479V111.843C112.199 112.51 112.305 113.035 112.518 113.416C112.738 113.79 113.112 113.977 113.64 113.977ZM113.64 111.81C113.383 111.81 113.203 111.759 113.101 111.656C113.005 111.553 112.958 111.429 112.958 111.282V111.04C112.958 110.893 113.005 110.769 113.101 110.666C113.203 110.563 113.383 110.512 113.64 110.512C113.896 110.512 114.072 110.563 114.168 110.666C114.27 110.769 114.322 110.893 114.322 111.04V111.282C114.322 111.429 114.27 111.553 114.168 111.656C114.072 111.759 113.896 111.81 113.64 111.81ZM120.235 115.132C119.737 115.132 119.304 115.044 118.937 114.868C118.571 114.685 118.266 114.424 118.024 114.087C117.79 113.75 117.614 113.335 117.496 112.844C117.386 112.353 117.331 111.792 117.331 111.161C117.331 110.538 117.386 109.98 117.496 109.489C117.614 108.99 117.79 108.572 118.024 108.235C118.266 107.898 118.571 107.641 118.937 107.465C119.304 107.282 119.737 107.19 120.235 107.19C121.233 107.19 121.966 107.538 122.435 108.235C122.905 108.932 123.139 109.907 123.139 111.161C123.139 112.415 122.905 113.39 122.435 114.087C121.966 114.784 121.233 115.132 120.235 115.132ZM120.235 113.977C120.763 113.977 121.134 113.79 121.346 113.416C121.566 113.035 121.676 112.51 121.676 111.843V110.479C121.676 109.812 121.566 109.291 121.346 108.917C121.134 108.536 120.763 108.345 120.235 108.345C119.707 108.345 119.333 108.536 119.113 108.917C118.901 109.291 118.794 109.812 118.794 110.479V111.843C118.794 112.51 118.901 113.035 119.113 113.416C119.333 113.79 119.707 113.977 120.235 113.977ZM120.235 111.81C119.979 111.81 119.799 111.759 119.696 111.656C119.601 111.553 119.553 111.429 119.553 111.282V111.04C119.553 110.893 119.601 110.769 119.696 110.666C119.799 110.563 119.979 110.512 120.235 110.512C120.492 110.512 120.668 110.563 120.763 110.666C120.866 110.769 120.917 110.893 120.917 111.04V111.282C120.917 111.429 120.866 111.553 120.763 111.656C120.668 111.759 120.492 111.81 120.235 111.81ZM140.023 115.132C139.524 115.132 139.091 115.044 138.725 114.868C138.358 114.685 138.054 114.424 137.812 114.087C137.577 113.75 137.401 113.335 137.284 112.844C137.174 112.353 137.119 111.792 137.119 111.161C137.119 110.538 137.174 109.98 137.284 109.489C137.401 108.99 137.577 108.572 137.812 108.235C138.054 107.898 138.358 107.641 138.725 107.465C139.091 107.282 139.524 107.19 140.023 107.19C141.02 107.19 141.753 107.538 142.223 108.235C142.692 108.932 142.927 109.907 142.927 111.161C142.927 112.415 142.692 113.39 142.223 114.087C141.753 114.784 141.02 115.132 140.023 115.132ZM140.023 113.977C140.551 113.977 140.921 113.79 141.134 113.416C141.354 113.035 141.464 112.51 141.464 111.843V110.479C141.464 109.812 141.354 109.291 141.134 108.917C140.921 108.536 140.551 108.345 140.023 108.345C139.495 108.345 139.121 108.536 138.901 108.917C138.688 109.291 138.582 109.812 138.582 110.479V111.843C138.582 112.51 138.688 113.035 138.901 113.416C139.121 113.79 139.495 113.977 140.023 113.977ZM140.023 111.81C139.766 111.81 139.586 111.759 139.484 111.656C139.388 111.553 139.341 111.429 139.341 111.282V111.04C139.341 110.893 139.388 110.769 139.484 110.666C139.586 110.563 139.766 110.512 140.023 110.512C140.279 110.512 140.455 110.563 140.551 110.666C140.653 110.769 140.705 110.893 140.705 111.04V111.282C140.705 111.429 140.653 111.553 140.551 111.656C140.455 111.759 140.279 111.81 140.023 111.81ZM146.618 115.132C146.12 115.132 145.687 115.044 145.32 114.868C144.954 114.685 144.649 114.424 144.407 114.087C144.173 113.75 143.997 113.335 143.879 112.844C143.769 112.353 143.714 111.792 143.714 111.161C143.714 110.538 143.769 109.98 143.879 109.489C143.997 108.99 144.173 108.572 144.407 108.235C144.649 107.898 144.954 107.641 145.32 107.465C145.687 107.282 146.12 107.19 146.618 107.19C147.616 107.19 148.349 107.538 148.818 108.235C149.288 108.932 149.522 109.907 149.522 111.161C149.522 112.415 149.288 113.39 148.818 114.087C148.349 114.784 147.616 115.132 146.618 115.132ZM146.618 113.977C147.146 113.977 147.517 113.79 147.729 113.416C147.949 113.035 148.059 112.51 148.059 111.843V110.479C148.059 109.812 147.949 109.291 147.729 108.917C147.517 108.536 147.146 108.345 146.618 108.345C146.09 108.345 145.716 108.536 145.496 108.917C145.284 109.291 145.177 109.812 145.177 110.479V111.843C145.177 112.51 145.284 113.035 145.496 113.416C145.716 113.79 146.09 113.977 146.618 113.977ZM146.618 111.81C146.362 111.81 146.182 111.759 146.079 111.656C145.984 111.553 145.936 111.429 145.936 111.282V111.04C145.936 110.893 145.984 110.769 146.079 110.666C146.182 110.563 146.362 110.512 146.618 110.512C146.875 110.512 147.051 110.563 147.146 110.666C147.249 110.769 147.3 110.893 147.3 111.04V111.282C147.3 111.429 147.249 111.553 147.146 111.656C147.051 111.759 146.875 111.81 146.618 111.81ZM153.214 115.132C152.715 115.132 152.283 115.044 151.916 114.868C151.549 114.685 151.245 114.424 151.003 114.087C150.768 113.75 150.592 113.335 150.475 112.844C150.365 112.353 150.31 111.792 150.31 111.161C150.31 110.538 150.365 109.98 150.475 109.489C150.592 108.99 150.768 108.572 151.003 108.235C151.245 107.898 151.549 107.641 151.916 107.465C152.283 107.282 152.715 107.19 153.214 107.19C154.211 107.19 154.945 107.538 155.414 108.235C155.883 108.932 156.118 109.907 156.118 111.161C156.118 112.415 155.883 113.39 155.414 114.087C154.945 114.784 154.211 115.132 153.214 115.132ZM153.214 113.977C153.742 113.977 154.112 113.79 154.325 113.416C154.545 113.035 154.655 112.51 154.655 111.843V110.479C154.655 109.812 154.545 109.291 154.325 108.917C154.112 108.536 153.742 108.345 153.214 108.345C152.686 108.345 152.312 108.536 152.092 108.917C151.879 109.291 151.773 109.812 151.773 110.479V111.843C151.773 112.51 151.879 113.035 152.092 113.416C152.312 113.79 152.686 113.977 153.214 113.977ZM153.214 111.81C152.957 111.81 152.778 111.759 152.675 111.656C152.58 111.553 152.532 111.429 152.532 111.282V111.04C152.532 110.893 152.58 110.769 152.675 110.666C152.778 110.563 152.957 110.512 153.214 110.512C153.471 110.512 153.647 110.563 153.742 110.666C153.845 110.769 153.896 110.893 153.896 111.04V111.282C153.896 111.429 153.845 111.553 153.742 111.656C153.647 111.759 153.471 111.81 153.214 111.81ZM159.81 115.132C159.311 115.132 158.878 115.044 158.512 114.868C158.145 114.685 157.841 114.424 157.599 114.087C157.364 113.75 157.188 113.335 157.071 112.844C156.961 112.353 156.906 111.792 156.906 111.161C156.906 110.538 156.961 109.98 157.071 109.489C157.188 108.99 157.364 108.572 157.599 108.235C157.841 107.898 158.145 107.641 158.512 107.465C158.878 107.282 159.311 107.19 159.81 107.19C160.807 107.19 161.54 107.538 162.01 108.235C162.479 108.932 162.714 109.907 162.714 111.161C162.714 112.415 162.479 113.39 162.01 114.087C161.54 114.784 160.807 115.132 159.81 115.132ZM159.81 113.977C160.338 113.977 160.708 113.79 160.921 113.416C161.141 113.035 161.251 112.51 161.251 111.843V110.479C161.251 109.812 161.141 109.291 160.921 108.917C160.708 108.536 160.338 108.345 159.81 108.345C159.282 108.345 158.908 108.536 158.688 108.917C158.475 109.291 158.369 109.812 158.369 110.479V111.843C158.369 112.51 158.475 113.035 158.688 113.416C158.908 113.79 159.282 113.977 159.81 113.977ZM159.81 111.81C159.553 111.81 159.373 111.759 159.271 111.656C159.175 111.553 159.128 111.429 159.128 111.282V111.04C159.128 110.893 159.175 110.769 159.271 110.666C159.373 110.563 159.553 110.512 159.81 110.512C160.066 110.512 160.242 110.563 160.338 110.666C160.44 110.769 160.492 110.893 160.492 111.04V111.282C160.492 111.429 160.44 111.553 160.338 111.656C160.242 111.759 160.066 111.81 159.81 111.81Z" fill="white"/>
<defs>
<filter id="filter0_b_101_698" x="-58.8109" y="-58.8108" width="363.892" height="250.622" filterUnits="userSpaceOnUse" color-interpolation-filters="sRGB">
<feFlood flood-opacity="0" result="BackgroundImageFix"/>
<feGaussianBlur in="BackgroundImage" stdDeviation="29.4054"/>
<feComposite in2="SourceAlpha" operator="in" result="effect1_backgroundBlur_101_698"/>
<feBlend mode="normal" in="SourceGraphic" in2="effect1_backgroundBlur_101_698" result="shape"/>
</filter>
<clipPath id="clip0_101_698">
<rect width="34" height="34" fill="white" transform="translate(195 4)"/>
</clipPath>
</defs>
</svg>
