<svg width="38" height="13" viewBox="0 0 38 13" fill="none" xmlns="http://www.w3.org/2000/svg">
<g clip-path="url(#clip0_101_720)">
<path d="M11.2016 0.214355L8.01268 8.28063L6.72636 1.42028C6.56557 0.643127 5.97601 0.214355 5.30605 0.214355H0.0803946L0 0.562733C1.07193 0.803917 2.27785 1.17909 3.0282 1.58106C3.48377 1.82225 3.61777 2.03664 3.75176 2.6262L6.1904 12.086H9.45979L14.4443 0.214355H11.2016Z" fill="#C1C1C1"/>
<path d="M15.758 0.214355L13.2122 12.086H16.294L18.813 0.214355H15.758Z" fill="#C1C1C1"/>
<path d="M22.8593 3.51057C22.8593 3.0818 23.2881 2.62623 24.1724 2.51904C24.6012 2.46544 25.8339 2.41184 27.2006 3.055L27.7366 0.535965C26.9863 0.267983 26.0483 0 24.8692 0C21.841 0 19.6971 1.60789 19.6703 3.93935C19.6435 5.65444 21.1978 6.59237 22.3501 7.15513C23.556 7.7447 23.9581 8.09308 23.9313 8.62904C23.9313 9.43299 22.9665 9.78139 22.109 9.78139C20.5547 9.80818 19.6703 9.3526 18.9467 9.03101L18.384 11.6305C19.1076 11.952 20.4206 12.2468 21.7874 12.2468C25.0032 12.2468 27.1202 10.6657 27.1202 8.17347C27.1738 5.09167 22.8325 4.90408 22.8593 3.51057Z" fill="#C1C1C1"/>
<path d="M31.7292 7.87861L33.3639 3.43009L34.275 7.87861H31.7292ZM32.9083 0.214299C32.3188 0.214299 31.8096 0.562676 31.5951 1.07185L26.9858 12.0591H30.2017L30.8448 10.2904H34.7842L35.1594 12.0591H38L35.5345 0.1875H32.9083V0.214299Z" fill="#C1C1C1"/>
</g>
<defs>
<clipPath id="clip0_101_720">
<rect width="38" height="12.35" fill="white"/>
</clipPath>
</defs>
</svg>
