<svg width="246" height="133" viewBox="0 0 246 133" fill="none" xmlns="http://www.w3.org/2000/svg">
<g clip-path="url(#clip0_101_801)">
<rect width="246.27" height="133" rx="14.7027" fill="url(#paint0_linear_101_801)" fill-opacity="0.92"/>
<g filter="url(#filter0_b_101_801)">
<rect width="246.27" height="133" rx="14.7027" fill="white" fill-opacity="0.03"/>
</g>
<path fill-rule="evenodd" clip-rule="evenodd" d="M246.271 81.6375V118.297C246.271 126.417 239.689 133 231.569 133H38.6306C50.1155 79.2817 97.8537 39 155 39C191.657 39 224.442 55.5742 246.271 81.6375Z" fill="white" fill-opacity="0.15"/>
<path opacity="0.9" d="M21.356 27.154C20.1167 27.154 19.1707 26.8093 18.518 26.12C17.8727 25.4307 17.55 24.4517 17.55 23.183C17.55 22.5523 17.649 21.9913 17.847 21.5C18.045 21.0013 18.3163 20.5833 18.661 20.246C19.0057 19.9013 19.4163 19.641 19.893 19.465C20.3697 19.289 20.8867 19.201 21.444 19.201C21.7667 19.201 22.06 19.2267 22.324 19.278C22.588 19.322 22.819 19.377 23.017 19.443C23.215 19.5017 23.38 19.564 23.512 19.63C23.644 19.696 23.7393 19.7473 23.798 19.784L23.303 21.17C23.0683 21.0453 22.7933 20.939 22.478 20.851C22.17 20.763 21.818 20.719 21.422 20.719C21.158 20.719 20.8977 20.763 20.641 20.851C20.3917 20.939 20.168 21.082 19.97 21.28C19.7793 21.4707 19.6253 21.72 19.508 22.028C19.3907 22.336 19.332 22.71 19.332 23.15C19.332 23.502 19.3687 23.832 19.442 24.14C19.5227 24.4407 19.6473 24.701 19.816 24.921C19.992 25.141 20.2193 25.317 20.498 25.449C20.7767 25.5737 21.114 25.636 21.51 25.636C21.7593 25.636 21.983 25.6213 22.181 25.592C22.379 25.5627 22.555 25.5297 22.709 25.493C22.863 25.449 22.9987 25.4013 23.116 25.35C23.2333 25.2987 23.3397 25.251 23.435 25.207L23.908 26.582C23.666 26.7287 23.325 26.8607 22.885 26.978C22.445 27.0953 21.9353 27.154 21.356 27.154ZM28.3898 22.666C28.2431 22.6293 28.0708 22.5927 27.8728 22.556C27.6748 22.512 27.4621 22.49 27.2348 22.49C27.1321 22.49 27.0075 22.501 26.8608 22.523C26.7215 22.5377 26.6151 22.556 26.5418 22.578V27H24.9028V21.522C25.1961 21.4193 25.5408 21.324 25.9368 21.236C26.3401 21.1407 26.7875 21.093 27.2788 21.093C27.3668 21.093 27.4731 21.1003 27.5978 21.115C27.7225 21.1223 27.8471 21.137 27.9718 21.159C28.0965 21.1737 28.2211 21.1957 28.3458 21.225C28.4705 21.247 28.5768 21.2763 28.6648 21.313L28.3898 22.666ZM29.161 24.151C29.161 23.6377 29.238 23.1903 29.392 22.809C29.5533 22.4203 29.7623 22.0977 30.019 21.841C30.2757 21.5843 30.569 21.39 30.899 21.258C31.2363 21.126 31.581 21.06 31.933 21.06C32.7543 21.06 33.4033 21.313 33.88 21.819C34.3567 22.3177 34.595 23.0547 34.595 24.03C34.595 24.1253 34.5913 24.2317 34.584 24.349C34.5767 24.459 34.5693 24.558 34.562 24.646H30.844C30.8807 24.9833 31.0383 25.251 31.317 25.449C31.5957 25.647 31.9697 25.746 32.439 25.746C32.7397 25.746 33.033 25.7203 33.319 25.669C33.6123 25.6103 33.8507 25.5407 34.034 25.46L34.254 26.791C34.166 26.835 34.0487 26.879 33.902 26.923C33.7553 26.967 33.5903 27.0037 33.407 27.033C33.231 27.0697 33.0403 27.099 32.835 27.121C32.6297 27.143 32.4243 27.154 32.219 27.154C31.6983 27.154 31.2437 27.077 30.855 26.923C30.4737 26.769 30.1547 26.56 29.898 26.296C29.6487 26.0247 29.4617 25.7057 29.337 25.339C29.2197 24.9723 29.161 24.5763 29.161 24.151ZM33.011 23.524C33.0037 23.3847 32.978 23.249 32.934 23.117C32.8973 22.985 32.835 22.8677 32.747 22.765C32.6663 22.6623 32.56 22.578 32.428 22.512C32.3033 22.446 32.1457 22.413 31.955 22.413C31.7717 22.413 31.614 22.446 31.482 22.512C31.35 22.5707 31.24 22.6513 31.152 22.754C31.064 22.8567 30.9943 22.9777 30.943 23.117C30.899 23.249 30.866 23.3847 30.844 23.524H33.011ZM37.2568 24.063C37.2568 24.569 37.3705 24.976 37.5978 25.284C37.8252 25.592 38.1625 25.746 38.6098 25.746C38.7565 25.746 38.8922 25.7423 39.0168 25.735C39.1415 25.7203 39.2442 25.7057 39.3248 25.691V22.71C39.2222 22.644 39.0865 22.589 38.9178 22.545C38.7565 22.501 38.5915 22.479 38.4228 22.479C37.6455 22.479 37.2568 23.007 37.2568 24.063ZM40.9638 26.813C40.8172 26.857 40.6485 26.901 40.4578 26.945C40.2672 26.9817 40.0655 27.0147 39.8528 27.044C39.6475 27.0733 39.4348 27.0953 39.2148 27.11C39.0022 27.132 38.7968 27.143 38.5988 27.143C38.1222 27.143 37.6968 27.0733 37.3228 26.934C36.9488 26.7947 36.6335 26.5967 36.3768 26.34C36.1202 26.076 35.9222 25.7607 35.7828 25.394C35.6508 25.02 35.5848 24.602 35.5848 24.14C35.5848 23.6707 35.6435 23.249 35.7608 22.875C35.8782 22.4937 36.0468 22.171 36.2668 21.907C36.4868 21.643 36.7545 21.4413 37.0698 21.302C37.3925 21.1627 37.7592 21.093 38.1698 21.093C38.3972 21.093 38.5988 21.115 38.7748 21.159C38.9582 21.203 39.1415 21.2653 39.3248 21.346V18.728L40.9638 18.464V26.813ZM44.1375 27H42.4985V21.214H44.1375V27ZM44.2915 19.542C44.2915 19.8427 44.1925 20.081 43.9945 20.257C43.8038 20.4257 43.5765 20.51 43.3125 20.51C43.0485 20.51 42.8175 20.4257 42.6195 20.257C42.4288 20.081 42.3335 19.8427 42.3335 19.542C42.3335 19.2413 42.4288 19.0067 42.6195 18.838C42.8175 18.662 43.0485 18.574 43.3125 18.574C43.5765 18.574 43.8038 18.662 43.9945 18.838C44.1925 19.0067 44.2915 19.2413 44.2915 19.542ZM45.6232 19.773L47.2622 19.509V21.214H49.2312V22.578H47.2622V24.613C47.2622 24.9577 47.3209 25.2327 47.4382 25.438C47.5629 25.6433 47.8085 25.746 48.1752 25.746C48.3512 25.746 48.5309 25.7313 48.7142 25.702C48.9049 25.6653 49.0772 25.6177 49.2312 25.559L49.4622 26.835C49.2642 26.9157 49.0442 26.9853 48.8022 27.044C48.5602 27.1027 48.2632 27.132 47.9112 27.132C47.4639 27.132 47.0935 27.0733 46.8002 26.956C46.5069 26.8313 46.2722 26.6627 46.0962 26.45C45.9202 26.23 45.7955 25.966 45.7222 25.658C45.6562 25.35 45.6232 25.009 45.6232 24.635V19.773Z" fill="white"/>
<g clip-path="url(#clip1_101_801)">
<path d="M207.909 16.1955L203.457 26.8148H200.553L198.363 18.3389C198.23 17.8176 198.115 17.6263 197.71 17.4067C197.05 17.0483 195.959 16.7126 195 16.5029L195.065 16.1955H199.74C200.046 16.1952 200.341 16.3041 200.573 16.5026C200.806 16.7011 200.959 16.976 201.007 17.2778L202.164 23.4233L205.023 16.1955H207.909ZM219.289 23.3482C219.3 20.5447 215.413 20.3902 215.44 19.1379C215.448 18.7568 215.811 18.3517 216.604 18.2483C217.534 18.16 218.47 18.3244 219.314 18.7242L219.796 16.4718C218.974 16.1628 218.104 16.0031 217.226 16C214.51 16 212.599 17.445 212.582 19.5119C212.565 21.0405 213.946 21.8919 214.988 22.4019C216.059 22.9218 216.419 23.2562 216.413 23.7208C216.406 24.4348 215.56 24.7479 214.77 24.7607C213.388 24.7819 212.588 24.3881 211.948 24.0906L211.45 26.4167C212.092 26.7114 213.276 26.9692 214.505 26.9806C217.39 26.9806 219.279 25.5554 219.289 23.3482ZM226.458 26.8148H229L226.783 16.1955H224.437C224.186 16.1932 223.941 16.2662 223.732 16.4052C223.523 16.5441 223.361 16.7425 223.267 16.9747L219.146 26.8148H222.03L222.604 25.2282H226.128L226.458 26.8148ZM223.394 23.0522L224.839 19.0642L225.672 23.0522H223.394ZM211.834 16.1955L209.563 26.8148H206.815L209.089 16.1955H211.834Z" fill="white"/>
</g>
<path d="M20.3 111.132C19.8013 111.132 19.3687 111.044 19.002 110.868C18.6353 110.685 18.331 110.424 18.089 110.087C17.8543 109.75 17.6783 109.335 17.561 108.844C17.451 108.353 17.396 107.792 17.396 107.161C17.396 106.538 17.451 105.98 17.561 105.489C17.6783 104.99 17.8543 104.572 18.089 104.235C18.331 103.898 18.6353 103.641 19.002 103.465C19.3687 103.282 19.8013 103.19 20.3 103.19C21.2973 103.19 22.0307 103.538 22.5 104.235C22.9693 104.932 23.204 105.907 23.204 107.161C23.204 108.415 22.9693 109.39 22.5 110.087C22.0307 110.784 21.2973 111.132 20.3 111.132ZM20.3 109.977C20.828 109.977 21.1983 109.79 21.411 109.416C21.631 109.035 21.741 108.51 21.741 107.843V106.479C21.741 105.812 21.631 105.291 21.411 104.917C21.1983 104.536 20.828 104.345 20.3 104.345C19.772 104.345 19.398 104.536 19.178 104.917C18.9653 105.291 18.859 105.812 18.859 106.479V107.843C18.859 108.51 18.9653 109.035 19.178 109.416C19.398 109.79 19.772 109.977 20.3 109.977ZM20.3 107.81C20.0433 107.81 19.8637 107.759 19.761 107.656C19.6657 107.553 19.618 107.429 19.618 107.282V107.04C19.618 106.893 19.6657 106.769 19.761 106.666C19.8637 106.563 20.0433 106.512 20.3 106.512C20.5567 106.512 20.7327 106.563 20.828 106.666C20.9307 106.769 20.982 106.893 20.982 107.04V107.282C20.982 107.429 20.9307 107.553 20.828 107.656C20.7327 107.759 20.5567 107.81 20.3 107.81ZM26.8957 111.132C26.397 111.132 25.9644 111.044 25.5977 110.868C25.231 110.685 24.9267 110.424 24.6847 110.087C24.45 109.75 24.274 109.335 24.1567 108.844C24.0467 108.353 23.9917 107.792 23.9917 107.161C23.9917 106.538 24.0467 105.98 24.1567 105.489C24.274 104.99 24.45 104.572 24.6847 104.235C24.9267 103.898 25.231 103.641 25.5977 103.465C25.9644 103.282 26.397 103.19 26.8957 103.19C27.893 103.19 28.6264 103.538 29.0957 104.235C29.565 104.932 29.7997 105.907 29.7997 107.161C29.7997 108.415 29.565 109.39 29.0957 110.087C28.6264 110.784 27.893 111.132 26.8957 111.132ZM26.8957 109.977C27.4237 109.977 27.794 109.79 28.0067 109.416C28.2267 109.035 28.3367 108.51 28.3367 107.843V106.479C28.3367 105.812 28.2267 105.291 28.0067 104.917C27.794 104.536 27.4237 104.345 26.8957 104.345C26.3677 104.345 25.9937 104.536 25.7737 104.917C25.561 105.291 25.4547 105.812 25.4547 106.479V107.843C25.4547 108.51 25.561 109.035 25.7737 109.416C25.9937 109.79 26.3677 109.977 26.8957 109.977ZM26.8957 107.81C26.639 107.81 26.4594 107.759 26.3567 107.656C26.2614 107.553 26.2137 107.429 26.2137 107.282V107.04C26.2137 106.893 26.2614 106.769 26.3567 106.666C26.4594 106.563 26.639 106.512 26.8957 106.512C27.1524 106.512 27.3284 106.563 27.4237 106.666C27.5264 106.769 27.5777 106.893 27.5777 107.04V107.282C27.5777 107.429 27.5264 107.553 27.4237 107.656C27.3284 107.759 27.1524 107.81 26.8957 107.81ZM33.4914 111.132C32.9927 111.132 32.5601 111.044 32.1934 110.868C31.8267 110.685 31.5224 110.424 31.2804 110.087C31.0457 109.75 30.8697 109.335 30.7524 108.844C30.6424 108.353 30.5874 107.792 30.5874 107.161C30.5874 106.538 30.6424 105.98 30.7524 105.489C30.8697 104.99 31.0457 104.572 31.2804 104.235C31.5224 103.898 31.8267 103.641 32.1934 103.465C32.5601 103.282 32.9927 103.19 33.4914 103.19C34.4887 103.19 35.2221 103.538 35.6914 104.235C36.1607 104.932 36.3954 105.907 36.3954 107.161C36.3954 108.415 36.1607 109.39 35.6914 110.087C35.2221 110.784 34.4887 111.132 33.4914 111.132ZM33.4914 109.977C34.0194 109.977 34.3897 109.79 34.6024 109.416C34.8224 109.035 34.9324 108.51 34.9324 107.843V106.479C34.9324 105.812 34.8224 105.291 34.6024 104.917C34.3897 104.536 34.0194 104.345 33.4914 104.345C32.9634 104.345 32.5894 104.536 32.3694 104.917C32.1567 105.291 32.0504 105.812 32.0504 106.479V107.843C32.0504 108.51 32.1567 109.035 32.3694 109.416C32.5894 109.79 32.9634 109.977 33.4914 109.977ZM33.4914 107.81C33.2347 107.81 33.0551 107.759 32.9524 107.656C32.8571 107.553 32.8094 107.429 32.8094 107.282V107.04C32.8094 106.893 32.8571 106.769 32.9524 106.666C33.0551 106.563 33.2347 106.512 33.4914 106.512C33.7481 106.512 33.9241 106.563 34.0194 106.666C34.1221 106.769 34.1734 106.893 34.1734 107.04V107.282C34.1734 107.429 34.1221 107.553 34.0194 107.656C33.9241 107.759 33.7481 107.81 33.4914 107.81ZM40.0871 111.132C39.5884 111.132 39.1558 111.044 38.7891 110.868C38.4224 110.685 38.1181 110.424 37.8761 110.087C37.6414 109.75 37.4654 109.335 37.3481 108.844C37.2381 108.353 37.1831 107.792 37.1831 107.161C37.1831 106.538 37.2381 105.98 37.3481 105.489C37.4654 104.99 37.6414 104.572 37.8761 104.235C38.1181 103.898 38.4224 103.641 38.7891 103.465C39.1558 103.282 39.5884 103.19 40.0871 103.19C41.0844 103.19 41.8178 103.538 42.2871 104.235C42.7564 104.932 42.9911 105.907 42.9911 107.161C42.9911 108.415 42.7564 109.39 42.2871 110.087C41.8178 110.784 41.0844 111.132 40.0871 111.132ZM40.0871 109.977C40.6151 109.977 40.9854 109.79 41.1981 109.416C41.4181 109.035 41.5281 108.51 41.5281 107.843V106.479C41.5281 105.812 41.4181 105.291 41.1981 104.917C40.9854 104.536 40.6151 104.345 40.0871 104.345C39.5591 104.345 39.1851 104.536 38.9651 104.917C38.7524 105.291 38.6461 105.812 38.6461 106.479V107.843C38.6461 108.51 38.7524 109.035 38.9651 109.416C39.1851 109.79 39.5591 109.977 40.0871 109.977ZM40.0871 107.81C39.8304 107.81 39.6508 107.759 39.5481 107.656C39.4528 107.553 39.4051 107.429 39.4051 107.282V107.04C39.4051 106.893 39.4528 106.769 39.5481 106.666C39.6508 106.563 39.8304 106.512 40.0871 106.512C40.3438 106.512 40.5198 106.563 40.6151 106.666C40.7178 106.769 40.7691 106.893 40.7691 107.04V107.282C40.7691 107.429 40.7178 107.553 40.6151 107.656C40.5198 107.759 40.3438 107.81 40.0871 107.81ZM59.8742 111.132C59.3756 111.132 58.9429 111.044 58.5762 110.868C58.2096 110.685 57.9052 110.424 57.6632 110.087C57.4286 109.75 57.2526 109.335 57.1352 108.844C57.0252 108.353 56.9702 107.792 56.9702 107.161C56.9702 106.538 57.0252 105.98 57.1352 105.489C57.2526 104.99 57.4286 104.572 57.6632 104.235C57.9052 103.898 58.2096 103.641 58.5762 103.465C58.9429 103.282 59.3756 103.19 59.8742 103.19C60.8716 103.19 61.6049 103.538 62.0742 104.235C62.5436 104.932 62.7782 105.907 62.7782 107.161C62.7782 108.415 62.5436 109.39 62.0742 110.087C61.6049 110.784 60.8716 111.132 59.8742 111.132ZM59.8742 109.977C60.4022 109.977 60.7726 109.79 60.9852 109.416C61.2052 109.035 61.3152 108.51 61.3152 107.843V106.479C61.3152 105.812 61.2052 105.291 60.9852 104.917C60.7726 104.536 60.4022 104.345 59.8742 104.345C59.3462 104.345 58.9722 104.536 58.7522 104.917C58.5396 105.291 58.4332 105.812 58.4332 106.479V107.843C58.4332 108.51 58.5396 109.035 58.7522 109.416C58.9722 109.79 59.3462 109.977 59.8742 109.977ZM59.8742 107.81C59.6176 107.81 59.4379 107.759 59.3352 107.656C59.2399 107.553 59.1922 107.429 59.1922 107.282V107.04C59.1922 106.893 59.2399 106.769 59.3352 106.666C59.4379 106.563 59.6176 106.512 59.8742 106.512C60.1309 106.512 60.3069 106.563 60.4022 106.666C60.5049 106.769 60.5562 106.893 60.5562 107.04V107.282C60.5562 107.429 60.5049 107.553 60.4022 107.656C60.3069 107.759 60.1309 107.81 59.8742 107.81ZM66.4699 111.132C65.9713 111.132 65.5386 111.044 65.1719 110.868C64.8053 110.685 64.5009 110.424 64.2589 110.087C64.0243 109.75 63.8483 109.335 63.7309 108.844C63.6209 108.353 63.5659 107.792 63.5659 107.161C63.5659 106.538 63.6209 105.98 63.7309 105.489C63.8483 104.99 64.0243 104.572 64.2589 104.235C64.5009 103.898 64.8053 103.641 65.1719 103.465C65.5386 103.282 65.9713 103.19 66.4699 103.19C67.4673 103.19 68.2006 103.538 68.6699 104.235C69.1393 104.932 69.3739 105.907 69.3739 107.161C69.3739 108.415 69.1393 109.39 68.6699 110.087C68.2006 110.784 67.4673 111.132 66.4699 111.132ZM66.4699 109.977C66.9979 109.977 67.3683 109.79 67.5809 109.416C67.8009 109.035 67.9109 108.51 67.9109 107.843V106.479C67.9109 105.812 67.8009 105.291 67.5809 104.917C67.3683 104.536 66.9979 104.345 66.4699 104.345C65.9419 104.345 65.5679 104.536 65.3479 104.917C65.1353 105.291 65.0289 105.812 65.0289 106.479V107.843C65.0289 108.51 65.1353 109.035 65.3479 109.416C65.5679 109.79 65.9419 109.977 66.4699 109.977ZM66.4699 107.81C66.2133 107.81 66.0336 107.759 65.9309 107.656C65.8356 107.553 65.7879 107.429 65.7879 107.282V107.04C65.7879 106.893 65.8356 106.769 65.9309 106.666C66.0336 106.563 66.2133 106.512 66.4699 106.512C66.7266 106.512 66.9026 106.563 66.9979 106.666C67.1006 106.769 67.1519 106.893 67.1519 107.04V107.282C67.1519 107.429 67.1006 107.553 66.9979 107.656C66.9026 107.759 66.7266 107.81 66.4699 107.81ZM73.0656 111.132C72.567 111.132 72.1343 111.044 71.7676 110.868C71.401 110.685 71.0966 110.424 70.8546 110.087C70.62 109.75 70.444 109.335 70.3266 108.844C70.2166 108.353 70.1616 107.792 70.1616 107.161C70.1616 106.538 70.2166 105.98 70.3266 105.489C70.444 104.99 70.62 104.572 70.8546 104.235C71.0966 103.898 71.401 103.641 71.7676 103.465C72.1343 103.282 72.567 103.19 73.0656 103.19C74.063 103.19 74.7963 103.538 75.2656 104.235C75.735 104.932 75.9696 105.907 75.9696 107.161C75.9696 108.415 75.735 109.39 75.2656 110.087C74.7963 110.784 74.063 111.132 73.0656 111.132ZM73.0656 109.977C73.5936 109.977 73.964 109.79 74.1766 109.416C74.3966 109.035 74.5066 108.51 74.5066 107.843V106.479C74.5066 105.812 74.3966 105.291 74.1766 104.917C73.964 104.536 73.5936 104.345 73.0656 104.345C72.5376 104.345 72.1636 104.536 71.9436 104.917C71.731 105.291 71.6246 105.812 71.6246 106.479V107.843C71.6246 108.51 71.731 109.035 71.9436 109.416C72.1636 109.79 72.5376 109.977 73.0656 109.977ZM73.0656 107.81C72.809 107.81 72.6293 107.759 72.5266 107.656C72.4313 107.553 72.3836 107.429 72.3836 107.282V107.04C72.3836 106.893 72.4313 106.769 72.5266 106.666C72.6293 106.563 72.809 106.512 73.0656 106.512C73.3223 106.512 73.4983 106.563 73.5936 106.666C73.6963 106.769 73.7476 106.893 73.7476 107.04V107.282C73.7476 107.429 73.6963 107.553 73.5936 107.656C73.4983 107.759 73.3223 107.81 73.0656 107.81ZM79.6613 111.132C79.1627 111.132 78.73 111.044 78.3633 110.868C77.9967 110.685 77.6923 110.424 77.4503 110.087C77.2157 109.75 77.0397 109.335 76.9223 108.844C76.8123 108.353 76.7573 107.792 76.7573 107.161C76.7573 106.538 76.8123 105.98 76.9223 105.489C77.0397 104.99 77.2157 104.572 77.4503 104.235C77.6923 103.898 77.9967 103.641 78.3633 103.465C78.73 103.282 79.1627 103.19 79.6613 103.19C80.6587 103.19 81.392 103.538 81.8613 104.235C82.3307 104.932 82.5653 105.907 82.5653 107.161C82.5653 108.415 82.3307 109.39 81.8613 110.087C81.392 110.784 80.6587 111.132 79.6613 111.132ZM79.6613 109.977C80.1893 109.977 80.5597 109.79 80.7723 109.416C80.9923 109.035 81.1023 108.51 81.1023 107.843V106.479C81.1023 105.812 80.9923 105.291 80.7723 104.917C80.5597 104.536 80.1893 104.345 79.6613 104.345C79.1333 104.345 78.7593 104.536 78.5393 104.917C78.3267 105.291 78.2203 105.812 78.2203 106.479V107.843C78.2203 108.51 78.3267 109.035 78.5393 109.416C78.7593 109.79 79.1333 109.977 79.6613 109.977ZM79.6613 107.81C79.4047 107.81 79.225 107.759 79.1223 107.656C79.027 107.553 78.9793 107.429 78.9793 107.282V107.04C78.9793 106.893 79.027 106.769 79.1223 106.666C79.225 106.563 79.4047 106.512 79.6613 106.512C79.918 106.512 80.094 106.563 80.1893 106.666C80.292 106.769 80.3433 106.893 80.3433 107.04V107.282C80.3433 107.429 80.292 107.553 80.1893 107.656C80.094 107.759 79.918 107.81 79.6613 107.81ZM99.4484 111.132C98.9498 111.132 98.5171 111.044 98.1504 110.868C97.7838 110.685 97.4794 110.424 97.2374 110.087C97.0028 109.75 96.8268 109.335 96.7094 108.844C96.5994 108.353 96.5444 107.792 96.5444 107.161C96.5444 106.538 96.5994 105.98 96.7094 105.489C96.8268 104.99 97.0028 104.572 97.2374 104.235C97.4794 103.898 97.7838 103.641 98.1504 103.465C98.5171 103.282 98.9498 103.19 99.4484 103.19C100.446 103.19 101.179 103.538 101.648 104.235C102.118 104.932 102.352 105.907 102.352 107.161C102.352 108.415 102.118 109.39 101.648 110.087C101.179 110.784 100.446 111.132 99.4484 111.132ZM99.4484 109.977C99.9764 109.977 100.347 109.79 100.559 109.416C100.779 109.035 100.889 108.51 100.889 107.843V106.479C100.889 105.812 100.779 105.291 100.559 104.917C100.347 104.536 99.9764 104.345 99.4484 104.345C98.9204 104.345 98.5464 104.536 98.3264 104.917C98.1138 105.291 98.0074 105.812 98.0074 106.479V107.843C98.0074 108.51 98.1138 109.035 98.3264 109.416C98.5464 109.79 98.9204 109.977 99.4484 109.977ZM99.4484 107.81C99.1918 107.81 99.0121 107.759 98.9094 107.656C98.8141 107.553 98.7664 107.429 98.7664 107.282V107.04C98.7664 106.893 98.8141 106.769 98.9094 106.666C99.0121 106.563 99.1918 106.512 99.4484 106.512C99.7051 106.512 99.8811 106.563 99.9764 106.666C100.079 106.769 100.13 106.893 100.13 107.04V107.282C100.13 107.429 100.079 107.553 99.9764 107.656C99.8811 107.759 99.7051 107.81 99.4484 107.81ZM106.044 111.132C105.545 111.132 105.113 111.044 104.746 110.868C104.379 110.685 104.075 110.424 103.833 110.087C103.598 109.75 103.422 109.335 103.305 108.844C103.195 108.353 103.14 107.792 103.14 107.161C103.14 106.538 103.195 105.98 103.305 105.489C103.422 104.99 103.598 104.572 103.833 104.235C104.075 103.898 104.379 103.641 104.746 103.465C105.113 103.282 105.545 103.19 106.044 103.19C107.041 103.19 107.775 103.538 108.244 104.235C108.713 104.932 108.948 105.907 108.948 107.161C108.948 108.415 108.713 109.39 108.244 110.087C107.775 110.784 107.041 111.132 106.044 111.132ZM106.044 109.977C106.572 109.977 106.942 109.79 107.155 109.416C107.375 109.035 107.485 108.51 107.485 107.843V106.479C107.485 105.812 107.375 105.291 107.155 104.917C106.942 104.536 106.572 104.345 106.044 104.345C105.516 104.345 105.142 104.536 104.922 104.917C104.709 105.291 104.603 105.812 104.603 106.479V107.843C104.603 108.51 104.709 109.035 104.922 109.416C105.142 109.79 105.516 109.977 106.044 109.977ZM106.044 107.81C105.787 107.81 105.608 107.759 105.505 107.656C105.41 107.553 105.362 107.429 105.362 107.282V107.04C105.362 106.893 105.41 106.769 105.505 106.666C105.608 106.563 105.787 106.512 106.044 106.512C106.301 106.512 106.477 106.563 106.572 106.666C106.675 106.769 106.726 106.893 106.726 107.04V107.282C106.726 107.429 106.675 107.553 106.572 107.656C106.477 107.759 106.301 107.81 106.044 107.81ZM112.64 111.132C112.141 111.132 111.709 111.044 111.342 110.868C110.975 110.685 110.671 110.424 110.429 110.087C110.194 109.75 110.018 109.335 109.901 108.844C109.791 108.353 109.736 107.792 109.736 107.161C109.736 106.538 109.791 105.98 109.901 105.489C110.018 104.99 110.194 104.572 110.429 104.235C110.671 103.898 110.975 103.641 111.342 103.465C111.709 103.282 112.141 103.19 112.64 103.19C113.637 103.19 114.371 103.538 114.84 104.235C115.309 104.932 115.544 105.907 115.544 107.161C115.544 108.415 115.309 109.39 114.84 110.087C114.371 110.784 113.637 111.132 112.64 111.132ZM112.64 109.977C113.168 109.977 113.538 109.79 113.751 109.416C113.971 109.035 114.081 108.51 114.081 107.843V106.479C114.081 105.812 113.971 105.291 113.751 104.917C113.538 104.536 113.168 104.345 112.64 104.345C112.112 104.345 111.738 104.536 111.518 104.917C111.305 105.291 111.199 105.812 111.199 106.479V107.843C111.199 108.51 111.305 109.035 111.518 109.416C111.738 109.79 112.112 109.977 112.64 109.977ZM112.64 107.81C112.383 107.81 112.204 107.759 112.101 107.656C112.006 107.553 111.958 107.429 111.958 107.282V107.04C111.958 106.893 112.006 106.769 112.101 106.666C112.204 106.563 112.383 106.512 112.64 106.512C112.897 106.512 113.073 106.563 113.168 106.666C113.271 106.769 113.322 106.893 113.322 107.04V107.282C113.322 107.429 113.271 107.553 113.168 107.656C113.073 107.759 112.897 107.81 112.64 107.81ZM119.236 111.132C118.737 111.132 118.304 111.044 117.938 110.868C117.571 110.685 117.267 110.424 117.025 110.087C116.79 109.75 116.614 109.335 116.497 108.844C116.387 108.353 116.332 107.792 116.332 107.161C116.332 106.538 116.387 105.98 116.497 105.489C116.614 104.99 116.79 104.572 117.025 104.235C117.267 103.898 117.571 103.641 117.938 103.465C118.304 103.282 118.737 103.19 119.236 103.19C120.233 103.19 120.966 103.538 121.436 104.235C121.905 104.932 122.14 105.907 122.14 107.161C122.14 108.415 121.905 109.39 121.436 110.087C120.966 110.784 120.233 111.132 119.236 111.132ZM119.236 109.977C119.764 109.977 120.134 109.79 120.347 109.416C120.567 109.035 120.677 108.51 120.677 107.843V106.479C120.677 105.812 120.567 105.291 120.347 104.917C120.134 104.536 119.764 104.345 119.236 104.345C118.708 104.345 118.334 104.536 118.114 104.917C117.901 105.291 117.795 105.812 117.795 106.479V107.843C117.795 108.51 117.901 109.035 118.114 109.416C118.334 109.79 118.708 109.977 119.236 109.977ZM119.236 107.81C118.979 107.81 118.799 107.759 118.697 107.656C118.601 107.553 118.554 107.429 118.554 107.282V107.04C118.554 106.893 118.601 106.769 118.697 106.666C118.799 106.563 118.979 106.512 119.236 106.512C119.492 106.512 119.668 106.563 119.764 106.666C119.866 106.769 119.918 106.893 119.918 107.04V107.282C119.918 107.429 119.866 107.553 119.764 107.656C119.668 107.759 119.492 107.81 119.236 107.81ZM139.023 111.132C138.524 111.132 138.091 111.044 137.725 110.868C137.358 110.685 137.054 110.424 136.812 110.087C136.577 109.75 136.401 109.335 136.284 108.844C136.174 108.353 136.119 107.792 136.119 107.161C136.119 106.538 136.174 105.98 136.284 105.489C136.401 104.99 136.577 104.572 136.812 104.235C137.054 103.898 137.358 103.641 137.725 103.465C138.091 103.282 138.524 103.19 139.023 103.19C140.02 103.19 140.753 103.538 141.223 104.235C141.692 104.932 141.927 105.907 141.927 107.161C141.927 108.415 141.692 109.39 141.223 110.087C140.753 110.784 140.02 111.132 139.023 111.132ZM139.023 109.977C139.551 109.977 139.921 109.79 140.134 109.416C140.354 109.035 140.464 108.51 140.464 107.843V106.479C140.464 105.812 140.354 105.291 140.134 104.917C139.921 104.536 139.551 104.345 139.023 104.345C138.495 104.345 138.121 104.536 137.901 104.917C137.688 105.291 137.582 105.812 137.582 106.479V107.843C137.582 108.51 137.688 109.035 137.901 109.416C138.121 109.79 138.495 109.977 139.023 109.977ZM139.023 107.81C138.766 107.81 138.586 107.759 138.484 107.656C138.388 107.553 138.341 107.429 138.341 107.282V107.04C138.341 106.893 138.388 106.769 138.484 106.666C138.586 106.563 138.766 106.512 139.023 106.512C139.279 106.512 139.455 106.563 139.551 106.666C139.653 106.769 139.705 106.893 139.705 107.04V107.282C139.705 107.429 139.653 107.553 139.551 107.656C139.455 107.759 139.279 107.81 139.023 107.81ZM145.618 111.132C145.12 111.132 144.687 111.044 144.32 110.868C143.954 110.685 143.649 110.424 143.407 110.087C143.173 109.75 142.997 109.335 142.879 108.844C142.769 108.353 142.714 107.792 142.714 107.161C142.714 106.538 142.769 105.98 142.879 105.489C142.997 104.99 143.173 104.572 143.407 104.235C143.649 103.898 143.954 103.641 144.32 103.465C144.687 103.282 145.12 103.19 145.618 103.19C146.616 103.19 147.349 103.538 147.818 104.235C148.288 104.932 148.522 105.907 148.522 107.161C148.522 108.415 148.288 109.39 147.818 110.087C147.349 110.784 146.616 111.132 145.618 111.132ZM145.618 109.977C146.146 109.977 146.517 109.79 146.729 109.416C146.949 109.035 147.059 108.51 147.059 107.843V106.479C147.059 105.812 146.949 105.291 146.729 104.917C146.517 104.536 146.146 104.345 145.618 104.345C145.09 104.345 144.716 104.536 144.496 104.917C144.284 105.291 144.177 105.812 144.177 106.479V107.843C144.177 108.51 144.284 109.035 144.496 109.416C144.716 109.79 145.09 109.977 145.618 109.977ZM145.618 107.81C145.362 107.81 145.182 107.759 145.079 107.656C144.984 107.553 144.936 107.429 144.936 107.282V107.04C144.936 106.893 144.984 106.769 145.079 106.666C145.182 106.563 145.362 106.512 145.618 106.512C145.875 106.512 146.051 106.563 146.146 106.666C146.249 106.769 146.3 106.893 146.3 107.04V107.282C146.3 107.429 146.249 107.553 146.146 107.656C146.051 107.759 145.875 107.81 145.618 107.81ZM152.214 111.132C151.715 111.132 151.283 111.044 150.916 110.868C150.549 110.685 150.245 110.424 150.003 110.087C149.768 109.75 149.592 109.335 149.475 108.844C149.365 108.353 149.31 107.792 149.31 107.161C149.31 106.538 149.365 105.98 149.475 105.489C149.592 104.99 149.768 104.572 150.003 104.235C150.245 103.898 150.549 103.641 150.916 103.465C151.283 103.282 151.715 103.19 152.214 103.19C153.211 103.19 153.945 103.538 154.414 104.235C154.883 104.932 155.118 105.907 155.118 107.161C155.118 108.415 154.883 109.39 154.414 110.087C153.945 110.784 153.211 111.132 152.214 111.132ZM152.214 109.977C152.742 109.977 153.112 109.79 153.325 109.416C153.545 109.035 153.655 108.51 153.655 107.843V106.479C153.655 105.812 153.545 105.291 153.325 104.917C153.112 104.536 152.742 104.345 152.214 104.345C151.686 104.345 151.312 104.536 151.092 104.917C150.879 105.291 150.773 105.812 150.773 106.479V107.843C150.773 108.51 150.879 109.035 151.092 109.416C151.312 109.79 151.686 109.977 152.214 109.977ZM152.214 107.81C151.957 107.81 151.778 107.759 151.675 107.656C151.58 107.553 151.532 107.429 151.532 107.282V107.04C151.532 106.893 151.58 106.769 151.675 106.666C151.778 106.563 151.957 106.512 152.214 106.512C152.471 106.512 152.647 106.563 152.742 106.666C152.845 106.769 152.896 106.893 152.896 107.04V107.282C152.896 107.429 152.845 107.553 152.742 107.656C152.647 107.759 152.471 107.81 152.214 107.81ZM158.81 111.132C158.311 111.132 157.878 111.044 157.512 110.868C157.145 110.685 156.841 110.424 156.599 110.087C156.364 109.75 156.188 109.335 156.071 108.844C155.961 108.353 155.906 107.792 155.906 107.161C155.906 106.538 155.961 105.98 156.071 105.489C156.188 104.99 156.364 104.572 156.599 104.235C156.841 103.898 157.145 103.641 157.512 103.465C157.878 103.282 158.311 103.19 158.81 103.19C159.807 103.19 160.54 103.538 161.01 104.235C161.479 104.932 161.714 105.907 161.714 107.161C161.714 108.415 161.479 109.39 161.01 110.087C160.54 110.784 159.807 111.132 158.81 111.132ZM158.81 109.977C159.338 109.977 159.708 109.79 159.921 109.416C160.141 109.035 160.251 108.51 160.251 107.843V106.479C160.251 105.812 160.141 105.291 159.921 104.917C159.708 104.536 159.338 104.345 158.81 104.345C158.282 104.345 157.908 104.536 157.688 104.917C157.475 105.291 157.369 105.812 157.369 106.479V107.843C157.369 108.51 157.475 109.035 157.688 109.416C157.908 109.79 158.282 109.977 158.81 109.977ZM158.81 107.81C158.553 107.81 158.373 107.759 158.271 107.656C158.175 107.553 158.128 107.429 158.128 107.282V107.04C158.128 106.893 158.175 106.769 158.271 106.666C158.373 106.563 158.553 106.512 158.81 106.512C159.066 106.512 159.242 106.563 159.338 106.666C159.44 106.769 159.492 106.893 159.492 107.04V107.282C159.492 107.429 159.44 107.553 159.338 107.656C159.242 107.759 159.066 107.81 158.81 107.81Z" fill="white"/>
</g>
<defs>
<filter id="filter0_b_101_801" x="-58.8108" y="-58.8108" width="363.892" height="250.622" filterUnits="userSpaceOnUse" color-interpolation-filters="sRGB">
<feFlood flood-opacity="0" result="BackgroundImageFix"/>
<feGaussianBlur in="BackgroundImage" stdDeviation="29.4054"/>
<feComposite in2="SourceAlpha" operator="in" result="effect1_backgroundBlur_101_801"/>
<feBlend mode="normal" in="SourceGraphic" in2="effect1_backgroundBlur_101_801" result="shape"/>
</filter>
<linearGradient id="paint0_linear_101_801" x1="-35.2865" y1="-14.3784" x2="357.911" y2="181.215" gradientUnits="userSpaceOnUse">
<stop offset="0.365207" stop-color="#F7C851"/>
<stop offset="0.906228" stop-color="#FDDE76"/>
</linearGradient>
<clipPath id="clip0_101_801">
<rect width="246" height="133" fill="white"/>
</clipPath>
<clipPath id="clip1_101_801">
<rect width="34" height="34" fill="white" transform="translate(195 4)"/>
</clipPath>
</defs>
</svg>
