<svg width="397" height="220" viewBox="0 0 397 220" fill="none" xmlns="http://www.w3.org/2000/svg">
<rect x="0.971191" y="0.937988" width="396" height="218.687" rx="23.6418" fill="url(#paint0_linear_42_503)"/>
<g filter="url(#filter0_b_42_503)">
<rect x="0.971191" y="0.937988" width="396" height="218.687" rx="23.6418" fill="#E1BB4C"/>
</g>
<path fill-rule="evenodd" clip-rule="evenodd" d="M5.30587 8.503C2.59231 11.9169 0.971191 16.2381 0.971191 20.938V198.938C0.971191 209.984 9.92549 218.938 20.9712 218.938H376.971C385.81 218.938 393.31 213.204 395.954 205.253C397.105 142.635 341.604 52.4017 49.8079 0.937988H20.9712C20.211 0.937988 19.4607 0.980399 18.7226 1.06298L5.30587 8.503Z" fill="#EAC251"/>
<g clip-path="url(#clip0_42_503)">
<circle cx="279.971" cy="37.8794" r="15" fill="#EB001B"/>
<circle cx="297.971" cy="37.8794" r="15" fill="#F79E1B"/>
<path fill-rule="evenodd" clip-rule="evenodd" d="M288.971 49.8794C293.112 47.4841 295.898 43.0071 295.898 37.8794C295.898 32.7517 293.112 28.2747 288.971 25.8794C284.83 28.2747 282.044 32.7517 282.044 37.8794C282.044 43.0071 284.83 47.4841 288.971 49.8794Z" fill="#FF5F00"/>
</g>
<path d="M34.6452 183.165C33.7878 183.165 33.0439 183.014 32.4134 182.711C31.783 182.396 31.2597 181.948 30.8436 181.368C30.4401 180.788 30.1375 180.076 29.9358 179.231C29.7466 178.386 29.6521 177.422 29.6521 176.337C29.6521 175.265 29.7466 174.307 29.9358 173.462C30.1375 172.605 30.4401 171.886 30.8436 171.306C31.2597 170.726 31.783 170.285 32.4134 169.982C33.0439 169.667 33.7878 169.509 34.6452 169.509C36.36 169.509 37.6209 170.108 38.4279 171.306C39.2349 172.504 39.6384 174.181 39.6384 176.337C39.6384 178.493 39.2349 180.17 38.4279 181.368C37.6209 182.566 36.36 183.165 34.6452 183.165ZM34.6452 181.179C35.5531 181.179 36.1898 180.858 36.5555 180.214C36.9337 179.559 37.1229 178.657 37.1229 177.51V175.165C37.1229 174.017 36.9337 173.122 36.5555 172.479C36.1898 171.823 35.5531 171.495 34.6452 171.495C33.7374 171.495 33.0943 171.823 32.7161 172.479C32.3504 173.122 32.1676 174.017 32.1676 175.165V177.51C32.1676 178.657 32.3504 179.559 32.7161 180.214C33.0943 180.858 33.7374 181.179 34.6452 181.179ZM34.6452 177.453C34.2039 177.453 33.895 177.365 33.7185 177.188C33.5545 177.012 33.4726 176.797 33.4726 176.545V176.129C33.4726 175.877 33.5545 175.663 33.7185 175.486C33.895 175.31 34.2039 175.221 34.6452 175.221C35.0865 175.221 35.3891 175.31 35.5531 175.486C35.7296 175.663 35.8179 175.877 35.8179 176.129V176.545C35.8179 176.797 35.7296 177.012 35.5531 177.188C35.3891 177.365 35.0865 177.453 34.6452 177.453ZM45.9859 183.165C45.1285 183.165 44.3846 183.014 43.7541 182.711C43.1237 182.396 42.6004 181.948 42.1843 181.368C41.7808 180.788 41.4782 180.076 41.2764 179.231C41.0873 178.386 40.9927 177.422 40.9927 176.337C40.9927 175.265 41.0873 174.307 41.2764 173.462C41.4782 172.605 41.7808 171.886 42.1843 171.306C42.6004 170.726 43.1237 170.285 43.7541 169.982C44.3846 169.667 45.1285 169.509 45.9859 169.509C47.7007 169.509 48.9616 170.108 49.7686 171.306C50.5756 172.504 50.979 174.181 50.979 176.337C50.979 178.493 50.5756 180.17 49.7686 181.368C48.9616 182.566 47.7007 183.165 45.9859 183.165ZM45.9859 181.179C46.8937 181.179 47.5305 180.858 47.8962 180.214C48.2744 179.559 48.4636 178.657 48.4636 177.51V175.165C48.4636 174.017 48.2744 173.122 47.8962 172.479C47.5305 171.823 46.8937 171.495 45.9859 171.495C45.078 171.495 44.435 171.823 44.0567 172.479C43.6911 173.122 43.5082 174.017 43.5082 175.165V177.51C43.5082 178.657 43.6911 179.559 44.0567 180.214C44.435 180.858 45.078 181.179 45.9859 181.179ZM45.9859 177.453C45.5446 177.453 45.2357 177.365 45.0591 177.188C44.8952 177.012 44.8133 176.797 44.8133 176.545V176.129C44.8133 175.877 44.8952 175.663 45.0591 175.486C45.2357 175.31 45.5446 175.221 45.9859 175.221C46.4272 175.221 46.7298 175.31 46.8937 175.486C47.0703 175.663 47.1585 175.877 47.1585 176.129V176.545C47.1585 176.797 47.0703 177.012 46.8937 177.188C46.7298 177.365 46.4272 177.453 45.9859 177.453ZM57.3266 183.165C56.4692 183.165 55.7252 183.014 55.0948 182.711C54.4643 182.396 53.9411 181.948 53.525 181.368C53.1215 180.788 52.8189 180.076 52.6171 179.231C52.428 178.386 52.3334 177.422 52.3334 176.337C52.3334 175.265 52.428 174.307 52.6171 173.462C52.8189 172.605 53.1215 171.886 53.525 171.306C53.9411 170.726 54.4643 170.285 55.0948 169.982C55.7252 169.667 56.4692 169.509 57.3266 169.509C59.0414 169.509 60.3023 170.108 61.1093 171.306C61.9162 172.504 62.3197 174.181 62.3197 176.337C62.3197 178.493 61.9162 180.17 61.1093 181.368C60.3023 182.566 59.0414 183.165 57.3266 183.165ZM57.3266 181.179C58.2344 181.179 58.8712 180.858 59.2368 180.214C59.6151 179.559 59.8042 178.657 59.8042 177.51V175.165C59.8042 174.017 59.6151 173.122 59.2368 172.479C58.8712 171.823 58.2344 171.495 57.3266 171.495C56.4187 171.495 55.7757 171.823 55.3974 172.479C55.0317 173.122 54.8489 174.017 54.8489 175.165V177.51C54.8489 178.657 55.0317 179.559 55.3974 180.214C55.7757 180.858 56.4187 181.179 57.3266 181.179ZM57.3266 177.453C56.8853 177.453 56.5763 177.365 56.3998 177.188C56.2359 177.012 56.1539 176.797 56.1539 176.545V176.129C56.1539 175.877 56.2359 175.663 56.3998 175.486C56.5763 175.31 56.8853 175.221 57.3266 175.221C57.7679 175.221 58.0705 175.31 58.2344 175.486C58.4109 175.663 58.4992 175.877 58.4992 176.129V176.545C58.4992 176.797 58.4109 177.012 58.2344 177.188C58.0705 177.365 57.7679 177.453 57.3266 177.453ZM68.6672 183.165C67.8098 183.165 67.0659 183.014 66.4355 182.711C65.805 182.396 65.2817 181.948 64.8656 181.368C64.4621 180.788 64.1595 180.076 63.9578 179.231C63.7687 178.386 63.6741 177.422 63.6741 176.337C63.6741 175.265 63.7687 174.307 63.9578 173.462C64.1595 172.605 64.4621 171.886 64.8656 171.306C65.2817 170.726 65.805 170.285 66.4355 169.982C67.0659 169.667 67.8098 169.509 68.6672 169.509C70.3821 169.509 71.6429 170.108 72.4499 171.306C73.2569 172.504 73.6604 174.181 73.6604 176.337C73.6604 178.493 73.2569 180.17 72.4499 181.368C71.6429 182.566 70.3821 183.165 68.6672 183.165ZM68.6672 181.179C69.5751 181.179 70.2118 180.858 70.5775 180.214C70.9558 179.559 71.1449 178.657 71.1449 177.51V175.165C71.1449 174.017 70.9558 173.122 70.5775 172.479C70.2118 171.823 69.5751 171.495 68.6672 171.495C67.7594 171.495 67.1163 171.823 66.7381 172.479C66.3724 173.122 66.1896 174.017 66.1896 175.165V177.51C66.1896 178.657 66.3724 179.559 66.7381 180.214C67.1163 180.858 67.7594 181.179 68.6672 181.179ZM68.6672 177.453C68.2259 177.453 67.917 177.365 67.7405 177.188C67.5766 177.012 67.4946 176.797 67.4946 176.545V176.129C67.4946 175.877 67.5766 175.663 67.7405 175.486C67.917 175.31 68.2259 175.221 68.6672 175.221C69.1085 175.221 69.4112 175.31 69.5751 175.486C69.7516 175.663 69.8399 175.877 69.8399 176.129V176.545C69.8399 176.797 69.7516 177.012 69.5751 177.188C69.4112 177.365 69.1085 177.453 68.6672 177.453ZM102.689 183.165C101.832 183.165 101.088 183.014 100.457 182.711C99.827 182.396 99.3037 181.948 98.8877 181.368C98.4842 180.788 98.1815 180.076 97.9798 179.231C97.7907 178.386 97.6961 177.422 97.6961 176.337C97.6961 175.265 97.7907 174.307 97.9798 173.462C98.1815 172.605 98.4842 171.886 98.8877 171.306C99.3037 170.726 99.827 170.285 100.457 169.982C101.088 169.667 101.832 169.509 102.689 169.509C104.404 169.509 105.665 170.108 106.472 171.306C107.279 172.504 107.682 174.181 107.682 176.337C107.682 178.493 107.279 180.17 106.472 181.368C105.665 182.566 104.404 183.165 102.689 183.165ZM102.689 181.179C103.597 181.179 104.234 180.858 104.6 180.214C104.978 179.559 105.167 178.657 105.167 177.51V175.165C105.167 174.017 104.978 173.122 104.6 172.479C104.234 171.823 103.597 171.495 102.689 171.495C101.781 171.495 101.138 171.823 100.76 172.479C100.394 173.122 100.212 174.017 100.212 175.165V177.51C100.212 178.657 100.394 179.559 100.76 180.214C101.138 180.858 101.781 181.179 102.689 181.179ZM102.689 177.453C102.248 177.453 101.939 177.365 101.762 177.188C101.599 177.012 101.517 176.797 101.517 176.545V176.129C101.517 175.877 101.599 175.663 101.762 175.486C101.939 175.31 102.248 175.221 102.689 175.221C103.131 175.221 103.433 175.31 103.597 175.486C103.774 175.663 103.862 175.877 103.862 176.129V176.545C103.862 176.797 103.774 177.012 103.597 177.188C103.433 177.365 103.131 177.453 102.689 177.453ZM114.03 183.165C113.173 183.165 112.429 183.014 111.798 182.711C111.168 182.396 110.644 181.948 110.228 181.368C109.825 180.788 109.522 180.076 109.32 179.231C109.131 178.386 109.037 177.422 109.037 176.337C109.037 175.265 109.131 174.307 109.32 173.462C109.522 172.605 109.825 171.886 110.228 171.306C110.644 170.726 111.168 170.285 111.798 169.982C112.429 169.667 113.173 169.509 114.03 169.509C115.745 169.509 117.006 170.108 117.813 171.306C118.62 172.504 119.023 174.181 119.023 176.337C119.023 178.493 118.62 180.17 117.813 181.368C117.006 182.566 115.745 183.165 114.03 183.165ZM114.03 181.179C114.938 181.179 115.575 180.858 115.94 180.214C116.318 179.559 116.508 178.657 116.508 177.51V175.165C116.508 174.017 116.318 173.122 115.94 172.479C115.575 171.823 114.938 171.495 114.03 171.495C113.122 171.495 112.479 171.823 112.101 172.479C111.735 173.122 111.552 174.017 111.552 175.165V177.51C111.552 178.657 111.735 179.559 112.101 180.214C112.479 180.858 113.122 181.179 114.03 181.179ZM114.03 177.453C113.589 177.453 113.28 177.365 113.103 177.188C112.939 177.012 112.857 176.797 112.857 176.545V176.129C112.857 175.877 112.939 175.663 113.103 175.486C113.28 175.31 113.589 175.221 114.03 175.221C114.471 175.221 114.774 175.31 114.938 175.486C115.114 175.663 115.203 175.877 115.203 176.129V176.545C115.203 176.797 115.114 177.012 114.938 177.188C114.774 177.365 114.471 177.453 114.03 177.453ZM125.371 183.165C124.513 183.165 123.769 183.014 123.139 182.711C122.508 182.396 121.985 181.948 121.569 181.368C121.166 180.788 120.863 180.076 120.661 179.231C120.472 178.386 120.377 177.422 120.377 176.337C120.377 175.265 120.472 174.307 120.661 173.462C120.863 172.605 121.166 171.886 121.569 171.306C121.985 170.726 122.508 170.285 123.139 169.982C123.769 169.667 124.513 169.509 125.371 169.509C127.085 169.509 128.346 170.108 129.153 171.306C129.96 172.504 130.364 174.181 130.364 176.337C130.364 178.493 129.96 180.17 129.153 181.368C128.346 182.566 127.085 183.165 125.371 183.165ZM125.371 181.179C126.278 181.179 126.915 180.858 127.281 180.214C127.659 179.559 127.848 178.657 127.848 177.51V175.165C127.848 174.017 127.659 173.122 127.281 172.479C126.915 171.823 126.278 171.495 125.371 171.495C124.463 171.495 123.82 171.823 123.441 172.479C123.076 173.122 122.893 174.017 122.893 175.165V177.51C122.893 178.657 123.076 179.559 123.441 180.214C123.82 180.858 124.463 181.179 125.371 181.179ZM125.371 177.453C124.929 177.453 124.62 177.365 124.444 177.188C124.28 177.012 124.198 176.797 124.198 176.545V176.129C124.198 175.877 124.28 175.663 124.444 175.486C124.62 175.31 124.929 175.221 125.371 175.221C125.812 175.221 126.115 175.31 126.278 175.486C126.455 175.663 126.543 175.877 126.543 176.129V176.545C126.543 176.797 126.455 177.012 126.278 177.188C126.115 177.365 125.812 177.453 125.371 177.453ZM136.711 183.165C135.854 183.165 135.11 183.014 134.479 182.711C133.849 182.396 133.326 181.948 132.91 181.368C132.506 180.788 132.204 180.076 132.002 179.231C131.813 178.386 131.718 177.422 131.718 176.337C131.718 175.265 131.813 174.307 132.002 173.462C132.204 172.605 132.506 171.886 132.91 171.306C133.326 170.726 133.849 170.285 134.479 169.982C135.11 169.667 135.854 169.509 136.711 169.509C138.426 169.509 139.687 170.108 140.494 171.306C141.301 172.504 141.704 174.181 141.704 176.337C141.704 178.493 141.301 180.17 140.494 181.368C139.687 182.566 138.426 183.165 136.711 183.165ZM136.711 181.179C137.619 181.179 138.256 180.858 138.622 180.214C139 179.559 139.189 178.657 139.189 177.51V175.165C139.189 174.017 139 173.122 138.622 172.479C138.256 171.823 137.619 171.495 136.711 171.495C135.803 171.495 135.16 171.823 134.782 172.479C134.416 173.122 134.234 174.017 134.234 175.165V177.51C134.234 178.657 134.416 179.559 134.782 180.214C135.16 180.858 135.803 181.179 136.711 181.179ZM136.711 177.453C136.27 177.453 135.961 177.365 135.785 177.188C135.621 177.012 135.539 176.797 135.539 176.545V176.129C135.539 175.877 135.621 175.663 135.785 175.486C135.961 175.31 136.27 175.221 136.711 175.221C137.153 175.221 137.455 175.31 137.619 175.486C137.796 175.663 137.884 175.877 137.884 176.129V176.545C137.884 176.797 137.796 177.012 137.619 177.188C137.455 177.365 137.153 177.453 136.711 177.453ZM170.733 183.165C169.876 183.165 169.132 183.014 168.501 182.711C167.871 182.396 167.348 181.948 166.932 181.368C166.528 180.788 166.226 180.076 166.024 179.231C165.835 178.386 165.74 177.422 165.74 176.337C165.74 175.265 165.835 174.307 166.024 173.462C166.226 172.605 166.528 171.886 166.932 171.306C167.348 170.726 167.871 170.285 168.501 169.982C169.132 169.667 169.876 169.509 170.733 169.509C172.448 169.509 173.709 170.108 174.516 171.306C175.323 172.504 175.726 174.181 175.726 176.337C175.726 178.493 175.323 180.17 174.516 181.368C173.709 182.566 172.448 183.165 170.733 183.165ZM170.733 181.179C171.641 181.179 172.278 180.858 172.644 180.214C173.022 179.559 173.211 178.657 173.211 177.51V175.165C173.211 174.017 173.022 173.122 172.644 172.479C172.278 171.823 171.641 171.495 170.733 171.495C169.825 171.495 169.182 171.823 168.804 172.479C168.438 173.122 168.256 174.017 168.256 175.165V177.51C168.256 178.657 168.438 179.559 168.804 180.214C169.182 180.858 169.825 181.179 170.733 181.179ZM170.733 177.453C170.292 177.453 169.983 177.365 169.807 177.188C169.643 177.012 169.561 176.797 169.561 176.545V176.129C169.561 175.877 169.643 175.663 169.807 175.486C169.983 175.31 170.292 175.221 170.733 175.221C171.175 175.221 171.477 175.31 171.641 175.486C171.818 175.663 171.906 175.877 171.906 176.129V176.545C171.906 176.797 171.818 177.012 171.641 177.188C171.477 177.365 171.175 177.453 170.733 177.453ZM182.074 183.165C181.217 183.165 180.473 183.014 179.842 182.711C179.212 182.396 178.688 181.948 178.272 181.368C177.869 180.788 177.566 180.076 177.365 179.231C177.175 178.386 177.081 177.422 177.081 176.337C177.081 175.265 177.175 174.307 177.365 173.462C177.566 172.605 177.869 171.886 178.272 171.306C178.688 170.726 179.212 170.285 179.842 169.982C180.473 169.667 181.217 169.509 182.074 169.509C183.789 169.509 185.05 170.108 185.857 171.306C186.664 172.504 187.067 174.181 187.067 176.337C187.067 178.493 186.664 180.17 185.857 181.368C185.05 182.566 183.789 183.165 182.074 183.165ZM182.074 181.179C182.982 181.179 183.619 180.858 183.984 180.214C184.362 179.559 184.552 178.657 184.552 177.51V175.165C184.552 174.017 184.362 173.122 183.984 172.479C183.619 171.823 182.982 171.495 182.074 171.495C181.166 171.495 180.523 171.823 180.145 172.479C179.779 173.122 179.596 174.017 179.596 175.165V177.51C179.596 178.657 179.779 179.559 180.145 180.214C180.523 180.858 181.166 181.179 182.074 181.179ZM182.074 177.453C181.633 177.453 181.324 177.365 181.147 177.188C180.983 177.012 180.901 176.797 180.901 176.545V176.129C180.901 175.877 180.983 175.663 181.147 175.486C181.324 175.31 181.633 175.221 182.074 175.221C182.515 175.221 182.818 175.31 182.982 175.486C183.158 175.663 183.247 175.877 183.247 176.129V176.545C183.247 176.797 183.158 177.012 182.982 177.188C182.818 177.365 182.515 177.453 182.074 177.453ZM193.415 183.165C192.557 183.165 191.813 183.014 191.183 182.711C190.552 182.396 190.029 181.948 189.613 181.368C189.21 180.788 188.907 180.076 188.705 179.231C188.516 178.386 188.421 177.422 188.421 176.337C188.421 175.265 188.516 174.307 188.705 173.462C188.907 172.605 189.21 171.886 189.613 171.306C190.029 170.726 190.552 170.285 191.183 169.982C191.813 169.667 192.557 169.509 193.415 169.509C195.129 169.509 196.39 170.108 197.197 171.306C198.004 172.504 198.408 174.181 198.408 176.337C198.408 178.493 198.004 180.17 197.197 181.368C196.39 182.566 195.129 183.165 193.415 183.165ZM193.415 181.179C194.322 181.179 194.959 180.858 195.325 180.214C195.703 179.559 195.892 178.657 195.892 177.51V175.165C195.892 174.017 195.703 173.122 195.325 172.479C194.959 171.823 194.322 171.495 193.415 171.495C192.507 171.495 191.864 171.823 191.485 172.479C191.12 173.122 190.937 174.017 190.937 175.165V177.51C190.937 178.657 191.12 179.559 191.485 180.214C191.864 180.858 192.507 181.179 193.415 181.179ZM193.415 177.453C192.973 177.453 192.664 177.365 192.488 177.188C192.324 177.012 192.242 176.797 192.242 176.545V176.129C192.242 175.877 192.324 175.663 192.488 175.486C192.664 175.31 192.973 175.221 193.415 175.221C193.856 175.221 194.159 175.31 194.322 175.486C194.499 175.663 194.587 175.877 194.587 176.129V176.545C194.587 176.797 194.499 177.012 194.322 177.188C194.159 177.365 193.856 177.453 193.415 177.453ZM204.755 183.165C203.898 183.165 203.154 183.014 202.524 182.711C201.893 182.396 201.37 181.948 200.954 181.368C200.55 180.788 200.248 180.076 200.046 179.231C199.857 178.386 199.762 177.422 199.762 176.337C199.762 175.265 199.857 174.307 200.046 173.462C200.248 172.605 200.55 171.886 200.954 171.306C201.37 170.726 201.893 170.285 202.524 169.982C203.154 169.667 203.898 169.509 204.755 169.509C206.47 169.509 207.731 170.108 208.538 171.306C209.345 172.504 209.748 174.181 209.748 176.337C209.748 178.493 209.345 180.17 208.538 181.368C207.731 182.566 206.47 183.165 204.755 183.165ZM204.755 181.179C205.663 181.179 206.3 180.858 206.666 180.214C207.044 179.559 207.233 178.657 207.233 177.51V175.165C207.233 174.017 207.044 173.122 206.666 172.479C206.3 171.823 205.663 171.495 204.755 171.495C203.847 171.495 203.204 171.823 202.826 172.479C202.46 173.122 202.278 174.017 202.278 175.165V177.51C202.278 178.657 202.46 179.559 202.826 180.214C203.204 180.858 203.847 181.179 204.755 181.179ZM204.755 177.453C204.314 177.453 204.005 177.365 203.829 177.188C203.665 177.012 203.583 176.797 203.583 176.545V176.129C203.583 175.877 203.665 175.663 203.829 175.486C204.005 175.31 204.314 175.221 204.755 175.221C205.197 175.221 205.499 175.31 205.663 175.486C205.84 175.663 205.928 175.877 205.928 176.129V176.545C205.928 176.797 205.84 177.012 205.663 177.188C205.499 177.365 205.197 177.453 204.755 177.453ZM238.777 183.165C237.92 183.165 237.176 183.014 236.546 182.711C235.915 182.396 235.392 181.948 234.976 181.368C234.572 180.788 234.27 180.076 234.068 179.231C233.879 178.386 233.784 177.422 233.784 176.337C233.784 175.265 233.879 174.307 234.068 173.462C234.27 172.605 234.572 171.886 234.976 171.306C235.392 170.726 235.915 170.285 236.546 169.982C237.176 169.667 237.92 169.509 238.777 169.509C240.492 169.509 241.753 170.108 242.56 171.306C243.367 172.504 243.77 174.181 243.77 176.337C243.77 178.493 243.367 180.17 242.56 181.368C241.753 182.566 240.492 183.165 238.777 183.165ZM238.777 181.179C239.685 181.179 240.322 180.858 240.688 180.214C241.066 179.559 241.255 178.657 241.255 177.51V175.165C241.255 174.017 241.066 173.122 240.688 172.479C240.322 171.823 239.685 171.495 238.777 171.495C237.869 171.495 237.226 171.823 236.848 172.479C236.482 173.122 236.3 174.017 236.3 175.165V177.51C236.3 178.657 236.482 179.559 236.848 180.214C237.226 180.858 237.869 181.179 238.777 181.179ZM238.777 177.453C238.336 177.453 238.027 177.365 237.851 177.188C237.687 177.012 237.605 176.797 237.605 176.545V176.129C237.605 175.877 237.687 175.663 237.851 175.486C238.027 175.31 238.336 175.221 238.777 175.221C239.219 175.221 239.521 175.31 239.685 175.486C239.862 175.663 239.95 175.877 239.95 176.129V176.545C239.95 176.797 239.862 177.012 239.685 177.188C239.521 177.365 239.219 177.453 238.777 177.453ZM250.118 183.165C249.261 183.165 248.517 183.014 247.886 182.711C247.256 182.396 246.732 181.948 246.316 181.368C245.913 180.788 245.61 180.076 245.409 179.231C245.219 178.386 245.125 177.422 245.125 176.337C245.125 175.265 245.219 174.307 245.409 173.462C245.61 172.605 245.913 171.886 246.316 171.306C246.732 170.726 247.256 170.285 247.886 169.982C248.517 169.667 249.261 169.509 250.118 169.509C251.833 169.509 253.094 170.108 253.901 171.306C254.708 172.504 255.111 174.181 255.111 176.337C255.111 178.493 254.708 180.17 253.901 181.368C253.094 182.566 251.833 183.165 250.118 183.165ZM250.118 181.179C251.026 181.179 251.663 180.858 252.028 180.214C252.407 179.559 252.596 178.657 252.596 177.51V175.165C252.596 174.017 252.407 173.122 252.028 172.479C251.663 171.823 251.026 171.495 250.118 171.495C249.21 171.495 248.567 171.823 248.189 172.479C247.823 173.122 247.64 174.017 247.64 175.165V177.51C247.64 178.657 247.823 179.559 248.189 180.214C248.567 180.858 249.21 181.179 250.118 181.179ZM250.118 177.453C249.677 177.453 249.368 177.365 249.191 177.188C249.027 177.012 248.945 176.797 248.945 176.545V176.129C248.945 175.877 249.027 175.663 249.191 175.486C249.368 175.31 249.677 175.221 250.118 175.221C250.559 175.221 250.862 175.31 251.026 175.486C251.202 175.663 251.291 175.877 251.291 176.129V176.545C251.291 176.797 251.202 177.012 251.026 177.188C250.862 177.365 250.559 177.453 250.118 177.453ZM261.459 183.165C260.601 183.165 259.857 183.014 259.227 182.711C258.596 182.396 258.073 181.948 257.657 181.368C257.254 180.788 256.951 180.076 256.749 179.231C256.56 178.386 256.466 177.422 256.466 176.337C256.466 175.265 256.56 174.307 256.749 173.462C256.951 172.605 257.254 171.886 257.657 171.306C258.073 170.726 258.596 170.285 259.227 169.982C259.857 169.667 260.601 169.509 261.459 169.509C263.173 169.509 264.434 170.108 265.241 171.306C266.048 172.504 266.452 174.181 266.452 176.337C266.452 178.493 266.048 180.17 265.241 181.368C264.434 182.566 263.173 183.165 261.459 183.165ZM261.459 181.179C262.366 181.179 263.003 180.858 263.369 180.214C263.747 179.559 263.936 178.657 263.936 177.51V175.165C263.936 174.017 263.747 173.122 263.369 172.479C263.003 171.823 262.366 171.495 261.459 171.495C260.551 171.495 259.908 171.823 259.529 172.479C259.164 173.122 258.981 174.017 258.981 175.165V177.51C258.981 178.657 259.164 179.559 259.529 180.214C259.908 180.858 260.551 181.179 261.459 181.179ZM261.459 177.453C261.017 177.453 260.708 177.365 260.532 177.188C260.368 177.012 260.286 176.797 260.286 176.545V176.129C260.286 175.877 260.368 175.663 260.532 175.486C260.708 175.31 261.017 175.221 261.459 175.221C261.9 175.221 262.203 175.31 262.366 175.486C262.543 175.663 262.631 175.877 262.631 176.129V176.545C262.631 176.797 262.543 177.012 262.366 177.188C262.203 177.365 261.9 177.453 261.459 177.453ZM272.799 183.165C271.942 183.165 271.198 183.014 270.568 182.711C269.937 182.396 269.414 181.948 268.998 181.368C268.594 180.788 268.292 180.076 268.09 179.231C267.901 178.386 267.806 177.422 267.806 176.337C267.806 175.265 267.901 174.307 268.09 173.462C268.292 172.605 268.594 171.886 268.998 171.306C269.414 170.726 269.937 170.285 270.568 169.982C271.198 169.667 271.942 169.509 272.799 169.509C274.514 169.509 275.775 170.108 276.582 171.306C277.389 172.504 277.792 174.181 277.792 176.337C277.792 178.493 277.389 180.17 276.582 181.368C275.775 182.566 274.514 183.165 272.799 183.165ZM272.799 181.179C273.707 181.179 274.344 180.858 274.71 180.214C275.088 179.559 275.277 178.657 275.277 177.51V175.165C275.277 174.017 275.088 173.122 274.71 172.479C274.344 171.823 273.707 171.495 272.799 171.495C271.891 171.495 271.248 171.823 270.87 172.479C270.504 173.122 270.322 174.017 270.322 175.165V177.51C270.322 178.657 270.504 179.559 270.87 180.214C271.248 180.858 271.891 181.179 272.799 181.179ZM272.799 177.453C272.358 177.453 272.049 177.365 271.873 177.188C271.709 177.012 271.627 176.797 271.627 176.545V176.129C271.627 175.877 271.709 175.663 271.873 175.486C272.049 175.31 272.358 175.221 272.799 175.221C273.241 175.221 273.543 175.31 273.707 175.486C273.884 175.663 273.972 175.877 273.972 176.129V176.545C273.972 176.797 273.884 177.012 273.707 177.188C273.543 177.365 273.241 177.453 272.799 177.453Z" fill="white"/>
<path opacity="0.9" d="M35.8832 45.208C35.0072 45.208 34.2092 45.064 33.4892 44.776C32.7692 44.488 32.1512 44.068 31.6352 43.516C31.1192 42.964 30.7172 42.286 30.4292 41.482C30.1532 40.666 30.0152 39.736 30.0152 38.692C30.0152 37.648 30.1712 36.724 30.4832 35.92C30.8072 35.104 31.2392 34.42 31.7792 33.868C32.3192 33.316 32.9492 32.896 33.6692 32.608C34.3892 32.32 35.1572 32.176 35.9732 32.176C36.4892 32.176 36.9512 32.212 37.3592 32.284C37.7792 32.356 38.1392 32.44 38.4392 32.536C38.7512 32.632 39.0032 32.728 39.1952 32.824C39.3872 32.92 39.5192 32.992 39.5912 33.04L39.0872 34.48C38.9792 34.408 38.8232 34.33 38.6192 34.246C38.4152 34.162 38.1812 34.078 37.9172 33.994C37.6652 33.91 37.3832 33.844 37.0712 33.796C36.7712 33.736 36.4652 33.706 36.1532 33.706C35.4932 33.706 34.8992 33.82 34.3712 34.048C33.8432 34.276 33.3932 34.606 33.0212 35.038C32.6492 35.47 32.3612 35.998 32.1572 36.622C31.9652 37.234 31.8692 37.924 31.8692 38.692C31.8692 39.436 31.9532 40.114 32.1212 40.726C32.3012 41.338 32.5652 41.866 32.9132 42.31C33.2612 42.742 33.6932 43.078 34.2092 43.318C34.7372 43.558 35.3492 43.678 36.0452 43.678C36.8492 43.678 37.5152 43.594 38.0432 43.426C38.5712 43.258 38.9672 43.108 39.2312 42.976L39.6812 44.416C39.5972 44.476 39.4472 44.554 39.2312 44.65C39.0152 44.734 38.7452 44.818 38.4212 44.902C38.0972 44.986 37.7192 45.058 37.2872 45.118C36.8552 45.178 36.3872 45.208 35.8832 45.208ZM45.0293 35.38C45.1733 35.38 45.3353 35.392 45.5153 35.416C45.7073 35.428 45.8933 35.452 46.0733 35.488C46.2533 35.512 46.4153 35.542 46.5593 35.578C46.7153 35.602 46.8293 35.626 46.9013 35.65L46.6133 37.108C46.4813 37.06 46.2593 37.006 45.9473 36.946C45.6473 36.874 45.2573 36.838 44.7773 36.838C44.4653 36.838 44.1533 36.874 43.8413 36.946C43.5413 37.006 43.3433 37.048 43.2473 37.072V44.938H41.5733V35.974C41.9693 35.83 42.4613 35.698 43.0493 35.578C43.6373 35.446 44.2973 35.38 45.0293 35.38ZM47.9947 40.276C47.9947 39.448 48.1147 38.728 48.3547 38.116C48.5947 37.492 48.9127 36.976 49.3087 36.568C49.7047 36.16 50.1607 35.854 50.6767 35.65C51.1927 35.446 51.7207 35.344 52.2607 35.344C53.5207 35.344 54.4867 35.74 55.1587 36.532C55.8307 37.312 56.1667 38.506 56.1667 40.114C56.1667 40.186 56.1667 40.282 56.1667 40.402C56.1667 40.51 56.1607 40.612 56.1487 40.708H49.7407C49.8127 41.68 50.0947 42.418 50.5867 42.922C51.0787 43.426 51.8467 43.678 52.8907 43.678C53.4787 43.678 53.9707 43.63 54.3667 43.534C54.7747 43.426 55.0807 43.324 55.2847 43.228L55.5187 44.632C55.3147 44.74 54.9547 44.854 54.4387 44.974C53.9347 45.094 53.3587 45.154 52.7107 45.154C51.8947 45.154 51.1867 45.034 50.5867 44.794C49.9987 44.542 49.5127 44.2 49.1287 43.768C48.7447 43.336 48.4567 42.826 48.2647 42.238C48.0847 41.638 47.9947 40.984 47.9947 40.276ZM54.4207 39.358C54.4327 38.602 54.2407 37.984 53.8447 37.504C53.4607 37.012 52.9267 36.766 52.2427 36.766C51.8587 36.766 51.5167 36.844 51.2167 37C50.9287 37.144 50.6827 37.336 50.4787 37.576C50.2747 37.816 50.1127 38.092 49.9927 38.404C49.8847 38.716 49.8127 39.034 49.7767 39.358H54.4207ZM64.6193 37.558C64.4153 37.39 64.1213 37.228 63.7373 37.072C63.3533 36.916 62.9333 36.838 62.4773 36.838C61.9973 36.838 61.5833 36.928 61.2353 37.108C60.8993 37.276 60.6233 37.516 60.4073 37.828C60.1913 38.128 60.0353 38.488 59.9393 38.908C59.8433 39.328 59.7953 39.778 59.7953 40.258C59.7953 41.35 60.0653 42.196 60.6053 42.796C61.1453 43.384 61.8653 43.678 62.7653 43.678C63.2213 43.678 63.5993 43.66 63.8993 43.624C64.2113 43.576 64.4513 43.528 64.6193 43.48V37.558ZM64.6193 31.258L66.2933 30.97V44.668C65.9093 44.776 65.4173 44.884 64.8173 44.992C64.2173 45.1 63.5273 45.154 62.7473 45.154C62.0273 45.154 61.3793 45.04 60.8033 44.812C60.2273 44.584 59.7353 44.26 59.3273 43.84C58.9193 43.42 58.6013 42.91 58.3733 42.31C58.1573 41.698 58.0493 41.014 58.0493 40.258C58.0493 39.538 58.1393 38.878 58.3193 38.278C58.5113 37.678 58.7873 37.162 59.1473 36.73C59.5073 36.298 59.9453 35.962 60.4613 35.722C60.9893 35.482 61.5893 35.362 62.2613 35.362C62.8013 35.362 63.2753 35.434 63.6833 35.578C64.1033 35.722 64.4153 35.86 64.6193 35.992V31.258ZM70.845 44.938H69.171V35.578H70.845V44.938ZM69.999 33.886C69.699 33.886 69.441 33.79 69.225 33.598C69.021 33.394 68.919 33.124 68.919 32.788C68.919 32.452 69.021 32.188 69.225 31.996C69.441 31.792 69.699 31.69 69.999 31.69C70.299 31.69 70.551 31.792 70.755 31.996C70.971 32.188 71.079 32.452 71.079 32.788C71.079 33.124 70.971 33.394 70.755 33.598C70.551 33.79 70.299 33.886 69.999 33.886ZM75.2897 35.578H78.8357V36.982H75.2897V41.302C75.2897 41.77 75.3257 42.16 75.3977 42.472C75.4697 42.772 75.5777 43.012 75.7217 43.192C75.8657 43.36 76.0457 43.48 76.2617 43.552C76.4777 43.624 76.7297 43.66 77.0177 43.66C77.5217 43.66 77.9237 43.606 78.2237 43.498C78.5357 43.378 78.7517 43.294 78.8717 43.246L79.1957 44.632C79.0277 44.716 78.7337 44.818 78.3137 44.938C77.8937 45.07 77.4137 45.136 76.8737 45.136C76.2377 45.136 75.7097 45.058 75.2897 44.902C74.8817 44.734 74.5517 44.488 74.2997 44.164C74.0477 43.84 73.8677 43.444 73.7597 42.976C73.6637 42.496 73.6157 41.944 73.6157 41.32V32.968L75.2897 32.68V35.578Z" fill="white"/>
<g clip-path="url(#clip1_42_503)">
<path d="M342.233 28.216L334.901 45.7067H330.118L326.511 31.7464C326.291 30.8877 326.102 30.5727 325.435 30.211C324.348 29.6207 322.551 29.0677 320.971 28.7224L321.079 28.216H328.779C329.282 28.2155 329.768 28.3949 330.151 28.7218C330.534 29.0487 330.787 29.5016 330.865 29.9987L332.771 40.1207L337.48 28.216H342.233ZM360.976 39.997C360.995 35.3794 354.592 35.125 354.637 33.0624C354.651 32.4347 355.248 31.7674 356.555 31.597C358.086 31.4516 359.628 31.7225 361.018 32.381L361.812 28.671C360.458 28.1622 359.025 27.8991 357.579 27.894C353.106 27.894 349.958 30.274 349.93 33.6784C349.902 36.196 352.177 37.5984 353.892 38.4384C355.656 39.2947 356.249 39.8454 356.24 40.6107C356.228 41.7867 354.835 42.3024 353.533 42.3234C351.258 42.3584 349.94 41.7097 348.885 41.2197L348.066 45.051C349.123 45.5364 351.074 45.961 353.097 45.9797C357.85 45.9797 360.96 43.6324 360.976 39.997ZM372.785 45.7067H376.971L373.32 28.216H369.456C369.043 28.2122 368.638 28.3325 368.295 28.5614C367.951 28.7902 367.684 29.117 367.528 29.4994L360.741 45.7067H365.491L366.436 43.0934H372.242L372.785 45.7067ZM367.738 39.5094L370.118 32.941L371.49 39.5094H367.738ZM348.698 28.216L344.958 45.7067H340.431L344.176 28.216H348.698Z" fill="white"/>
</g>
<defs>
<filter id="filter0_b_42_503" x="-93.596" y="-93.6292" width="585.134" height="407.821" filterUnits="userSpaceOnUse" color-interpolation-filters="sRGB">
<feFlood flood-opacity="0" result="BackgroundImageFix"/>
<feGaussianBlur in="BackgroundImage" stdDeviation="47.2836"/>
<feComposite in2="SourceAlpha" operator="in" result="effect1_backgroundBlur_42_503"/>
<feBlend mode="normal" in="SourceGraphic" in2="effect1_backgroundBlur_42_503" result="shape"/>
</filter>
<linearGradient id="paint0_linear_42_503" x1="-55.7691" y1="-22.7038" x2="452.529" y2="243.857" gradientUnits="userSpaceOnUse">
<stop offset="0.119355" stop-color="#282828"/>
<stop offset="0.843296" stop-color="#0B0B0B"/>
</linearGradient>
<clipPath id="clip0_42_503">
<rect width="48" height="57" fill="white" transform="translate(264.971 8.93799)"/>
</clipPath>
<clipPath id="clip1_42_503">
<rect width="56" height="56" fill="white" transform="translate(320.971 8.93799)"/>
</clipPath>
</defs>
</svg>
